<svg xmlns="http://www.w3.org/2000/svg" xmlns:xlink="http://www.w3.org/1999/xlink" contentStyleType="text/css" data-diagram-type="STATE" height="444px" preserveAspectRatio="none" style="width:1723px;height:444px;background:#FFFFFF;" version="1.1" viewBox="0 0 1723 444" width="1723.5px" zoomAndPan="magnify"><defs/><g><path d="M29.25,10.5 L333.2021,10.5 A18.75,18.75 0 0 1 351.9521,29.25 L351.9521,123.2813 L10.5,123.2813 L10.5,29.25 A18.75,18.75 0 0 1 29.25,10.5" fill="#90EE90"/><rect fill="none" height="425.3475" rx="18.75" ry="18.75" style="stroke:#181818;stroke-width:0.75;" width="341.4521" x="10.5" y="10.5"/><line style="stroke:#181818;stroke-width:0.75;" x1="10.5" x2="351.9521" y1="123.2813" y2="123.2813"/><text fill="#000000" font-family="&#24494;&#36719;&#38597;&#40657;" font-size="42" lengthAdjust="spacing" textLength="168.0007" x="97.2257" y="56.9854">&#27491;&#24120;&#25720;&#20999;</text><text fill="#000000" font-family="&#24494;&#36719;&#38597;&#40657;" font-size="42" lengthAdjust="spacing" textLength="311.4521" x="25.5" y="105.876">normalmoqie()</text><rect fill="#90EE90" height="112.7813" rx="18.75" ry="18.75" style="stroke:#181818;stroke-width:0.75;" width="176.0068" x="29.715" y="308.0662"/><text fill="#000000" font-family="&#24494;&#36719;&#38597;&#40657;" font-size="42" lengthAdjust="spacing" textLength="84.0004" x="75.7182" y="354.5516">&#20999;&#29260;</text><text fill="#000000" font-family="&#24494;&#36719;&#38597;&#40657;" font-size="42" lengthAdjust="spacing" textLength="161.0068" x="37.215" y="403.4422">qiepai()</text><rect fill="#90EE90" height="112.7813" rx="18.75" ry="18.75" style="stroke:#181818;stroke-width:0.75;" width="178.4473" x="28.5" y="141.2813"/><text fill="#000000" font-family="&#24494;&#36719;&#38597;&#40657;" font-size="42" lengthAdjust="spacing" textLength="84.0004" x="75.7234" y="187.7666">&#25720;&#29260;</text><text fill="#000000" font-family="&#24494;&#36719;&#38597;&#40657;" font-size="42" lengthAdjust="spacing" textLength="163.4473" x="36" y="236.6572">mopai()</text><!--link S11 to S12--><g class="link" data-entity-1="S11" data-entity-2="S12" data-source-line="13" data-uid="lnk2" id="link_S11_S12"><path d="M117.72,254.6213 C117.72,271.7062 117.72,281.5012 117.72,298.5713" fill="none" id="S11-to-S12" style="stroke:#008000;stroke-width:3;"/><polygon fill="#008000" points="117.72,307.5713,123.72,294.0713,117.72,300.0713,111.72,294.0713,117.72,307.5713" style="stroke:#008000;stroke-width:3;"/></g><path d="M423.54,10.5 L682.9082,10.5 A18.75,18.75 0 0 1 701.6582,29.25 L701.6582,123.2813 L404.79,123.2813 L404.79,29.25 A18.75,18.75 0 0 1 423.54,10.5" fill="#9ACD32"/><rect fill="none" height="425.3475" rx="18.75" ry="18.75" style="stroke:#181818;stroke-width:0.75;" width="296.8682" x="404.79" y="10.5"/><line style="stroke:#181818;stroke-width:0.75;" x1="404.79" x2="701.6582" y1="123.2813" y2="123.2813"/><text fill="#000000" font-family="&#24494;&#36719;&#38597;&#40657;" font-size="42" lengthAdjust="spacing" textLength="210.0009" x="448.2236" y="56.9854">&#40483;&#29260;&#24182;&#20999;&#29260;</text><text fill="#000000" font-family="&#24494;&#36719;&#38597;&#40657;" font-size="42" lengthAdjust="spacing" textLength="266.8682" x="419.79" y="105.876">mingqiepai()</text><rect fill="#FFFF00" height="112.7813" rx="18.75" ry="18.75" style="stroke:#181818;stroke-width:0.75;" width="217.6992" x="422.79" y="141.2813"/><text fill="#000000" font-family="&#24494;&#36719;&#38597;&#40657;" font-size="42" lengthAdjust="spacing" textLength="196.3015" x="433.4889" y="187.7666">&#21507;/&#30896;/&#26126;&#26464;</text><text fill="#000000" font-family="&#24494;&#36719;&#38597;&#40657;" font-size="42" lengthAdjust="spacing" textLength="202.6992" x="430.29" y="236.6572">mingpai()</text><rect fill="#90EE90" height="112.7813" rx="18.75" ry="18.75" style="stroke:#181818;stroke-width:0.75;" width="176.0068" x="443.64" y="308.0662"/><text fill="#000000" font-family="&#24494;&#36719;&#38597;&#40657;" font-size="42" lengthAdjust="spacing" textLength="84.0004" x="489.6432" y="354.5516">&#20999;&#29260;</text><text fill="#000000" font-family="&#24494;&#36719;&#38597;&#40657;" font-size="42" lengthAdjust="spacing" textLength="161.0068" x="451.14" y="403.4422">qiepai()</text><!--link S21 to S22--><g class="link" data-entity-1="S21" data-entity-2="S22" data-source-line="19" data-uid="lnk3" id="link_S21_S22"><path d="M531.645,254.6213 C531.645,271.7062 531.645,281.5012 531.645,298.5713" fill="none" id="S21-to-S22" style="stroke:#181818;stroke-width:3;"/><polygon fill="#181818" points="531.645,307.5713,537.645,294.0713,531.645,300.0713,525.645,294.0713,531.645,307.5713" style="stroke:#181818;stroke-width:3;"/></g><path d="M772.38,10.5 L1027.0812,10.5 A18.75,18.75 0 0 1 1045.8312,29.25 L1045.8312,123.2813 L753.63,123.2813 L753.63,29.25 A18.75,18.75 0 0 1 772.38,10.5" fill="#90EE90"/><rect fill="none" height="425.3475" rx="18.75" ry="18.75" style="stroke:#181818;stroke-width:0.75;" width="292.2012" x="753.63" y="10.5"/><line style="stroke:#181818;stroke-width:0.75;" x1="753.63" x2="1045.8312" y1="123.2813" y2="123.2813"/><text fill="#000000" font-family="&#24494;&#36719;&#38597;&#40657;" font-size="42" lengthAdjust="spacing" textLength="168.0007" x="815.7302" y="56.9854">&#25720;&#29260;&#31435;&#30452;</text><text fill="#000000" font-family="&#24494;&#36719;&#38597;&#40657;" font-size="42" lengthAdjust="spacing" textLength="225.2168" x="787.1222" y="105.876">moqieliqi()</text><rect fill="#90EE90" height="112.7813" rx="18.75" ry="18.75" style="stroke:#181818;stroke-width:0.75;" width="178.4473" x="813.51" y="141.2813"/><text fill="#000000" font-family="&#24494;&#36719;&#38597;&#40657;" font-size="42" lengthAdjust="spacing" textLength="84.0004" x="860.7334" y="187.7666">&#25720;&#29260;</text><text fill="#000000" font-family="&#24494;&#36719;&#38597;&#40657;" font-size="42" lengthAdjust="spacing" textLength="163.4473" x="821.01" y="236.6572">mopai()</text><rect fill="#90EE90" height="112.7813" rx="18.75" ry="18.75" style="stroke:#181818;stroke-width:0.75;" width="262.2012" x="771.63" y="308.0662"/><text fill="#000000" font-family="&#24494;&#36719;&#38597;&#40657;" font-size="42" lengthAdjust="spacing" textLength="84.0004" x="860.7304" y="354.5516">&#20999;&#29260;</text><text fill="#000000" font-family="&#24494;&#36719;&#38597;&#40657;" font-size="42" lengthAdjust="spacing" textLength="247.2012" x="779.13" y="403.4422">qiepai(true)</text><!--link S31 to S32--><g class="link" data-entity-1="S31" data-entity-2="S32" data-source-line="25" data-uid="lnk4" id="link_S31_S32"><path d="M902.73,254.6213 C902.73,271.7062 902.73,281.5012 902.73,298.5713" fill="none" id="S31-to-S32" style="stroke:#008000;stroke-width:3;"/><polygon fill="#008000" points="902.73,307.5713,908.73,294.0713,902.73,300.0713,896.73,294.0713,902.73,307.5713" style="stroke:#008000;stroke-width:3;"/></g><path d="M1117.815,10.5 L1296.649,10.5 A18.75,18.75 0 0 1 1315.399,29.25 L1315.399,123.2813 L1099.065,123.2813 L1099.065,29.25 A18.75,18.75 0 0 1 1117.815,10.5" fill="#F08080"/><rect fill="none" height="425.3475" rx="18.75" ry="18.75" style="stroke:#181818;stroke-width:0.75;" width="216.334" x="1099.065" y="10.5"/><line style="stroke:#181818;stroke-width:0.75;" x1="1099.065" x2="1315.399" y1="123.2813" y2="123.2813"/><text fill="#000000" font-family="&#24494;&#36719;&#38597;&#40657;" font-size="42" lengthAdjust="spacing" textLength="168.0007" x="1123.2316" y="56.9854">&#33258;&#25720;&#21644;&#29260;</text><text fill="#000000" font-family="&#24494;&#36719;&#38597;&#40657;" font-size="42" lengthAdjust="spacing" textLength="186.334" x="1114.065" y="105.876">zimohu()</text><rect fill="#90EE90" height="112.7813" rx="18.75" ry="18.75" style="stroke:#181818;stroke-width:0.75;" width="178.4473" x="1117.065" y="141.2813"/><text fill="#000000" font-family="&#24494;&#36719;&#38597;&#40657;" font-size="42" lengthAdjust="spacing" textLength="84.0004" x="1164.2884" y="187.7666">&#25720;&#29260;</text><text fill="#000000" font-family="&#24494;&#36719;&#38597;&#40657;" font-size="42" lengthAdjust="spacing" textLength="163.4473" x="1124.565" y="236.6572">mopai()</text><rect fill="#F08080" height="112.7813" rx="18.75" ry="18.75" style="stroke:#181818;stroke-width:0.75;" width="165.0762" x="1123.755" y="308.0662"/><text fill="#000000" font-family="&#24494;&#36719;&#38597;&#40657;" font-size="42" lengthAdjust="spacing" textLength="84.0004" x="1164.2929" y="354.5516">&#21644;&#29260;</text><text fill="#000000" font-family="&#24494;&#36719;&#38597;&#40657;" font-size="42" lengthAdjust="spacing" textLength="150.0762" x="1131.255" y="403.4422">hupai()</text><!--link S41 to S42--><g class="link" data-entity-1="S41" data-entity-2="S42" data-source-line="31" data-uid="lnk5" id="link_S41_S42"><path d="M1206.285,254.6213 C1206.285,271.7062 1206.285,281.5012 1206.285,298.5713" fill="none" id="S41-to-S42" style="stroke:#FF0000;stroke-width:3;"/><polygon fill="#FF0000" points="1206.285,307.5713,1212.285,294.0713,1206.285,300.0713,1200.285,294.0713,1206.285,307.5713" style="stroke:#FF0000;stroke-width:3;"/></g><path d="M1386.72,10.5 L1684.7249,10.5 A18.75,18.75 0 0 1 1703.4749,29.25 L1703.4749,123.2813 L1367.97,123.2813 L1367.97,29.25 A18.75,18.75 0 0 1 1386.72,10.5" fill="#9ACD32"/><rect fill="none" height="425.3475" rx="18.75" ry="18.75" style="stroke:#181818;stroke-width:0.75;" width="335.5049" x="1367.97" y="10.5"/><line style="stroke:#181818;stroke-width:0.75;" x1="1367.97" x2="1703.4749" y1="123.2813" y2="123.2813"/><text fill="#000000" font-family="&#24494;&#36719;&#38597;&#40657;" font-size="42" lengthAdjust="spacing" textLength="252.0011" x="1409.7219" y="56.9854">&#36830;&#32493;&#23725;&#19978;&#25720;&#29260;</text><text fill="#000000" font-family="&#24494;&#36719;&#38597;&#40657;" font-size="42" lengthAdjust="spacing" textLength="305.5049" x="1382.97" y="105.876">combomopai()</text><rect fill="#FFFF00" height="112.7813" rx="18.75" ry="18.75" style="stroke:#181818;stroke-width:0.75;" width="295.3019" x="1385.97" y="141.2813"/><text fill="#000000" font-family="&#24494;&#36719;&#38597;&#40657;" font-size="42" lengthAdjust="spacing" textLength="280.3019" x="1393.47" y="187.7666">&#26263;&#26464;/&#21152;&#26464;/&#25300;&#21271;</text><text fill="#000000" font-family="&#24494;&#36719;&#38597;&#40657;" font-size="42" lengthAdjust="spacing" textLength="251.877" x="1407.6825" y="236.6572">leimingpai()</text><rect fill="#90EE90" height="112.7813" rx="18.75" ry="18.75" style="stroke:#181818;stroke-width:0.75;" width="178.4473" x="1444.395" y="308.0662"/><text fill="#000000" font-family="&#24494;&#36719;&#38597;&#40657;" font-size="42" lengthAdjust="spacing" textLength="84.0004" x="1491.6184" y="354.5516">&#25720;&#29260;</text><text fill="#000000" font-family="&#24494;&#36719;&#38597;&#40657;" font-size="42" lengthAdjust="spacing" textLength="163.4473" x="1451.895" y="403.4422">mopai()</text><!--link S51 to S52--><g class="link" data-entity-1="S51" data-entity-2="S52" data-source-line="37" data-uid="lnk6" id="link_S51_S52"><path d="M1533.615,254.6213 C1533.615,271.7062 1533.615,281.5012 1533.615,298.5713" fill="none" id="S51-to-S52" style="stroke:#181818;stroke-width:3;"/><polygon fill="#181818" points="1533.615,307.5713,1539.615,294.0713,1533.615,300.0713,1527.615,294.0713,1533.615,307.5713" style="stroke:#181818;stroke-width:3;"/></g><!--SRC=[ZP9FI-D06CRl-HH3lIYiMvCsu4bONFGYNkf5x1x6zhKTd3yrdU8_F8deQX5T5XH54RqfrMLP92Bgbp69_HPEsgQTQkgQGm8pp_FazpwyHP871Amabr4UoZc7b2GHt2ZdC0LaVhMDyZpX9UnWfkxdS8NAALYItoWfS0PSefnwWVDUDIQudCGCKC9xl7vvkAaVRzJlznEQy7j7c24hWAmXxJ8ZiGIqYWoadevas5WpZEPTmgzTUAxhxxlUrcQMS-4mJ9bO8D0_a42uZ38cwfiWXQ8STm0uMcr4jRpA4loiPhbIbp1f6opTeUlLNnfw9dIv-LwkpWPd-WhXmPTPGVC_1aV2N0sxxbweAE_kDc9WX1UwEHJ6D50g5kF8zzQJmVcVf7-uwv-SDTswrOoy_n_NYXdN2ldRu9OEtkmWkDe9Zl-5JQWmIXRQQQdURSUsbp9xbVs6LZeLY3mnnAcunbCw-ClcPRWblwgDr1N2HB4IKQHRWQF2mVGJrEdUrAtyOaMNMtf-Kvvk03kGx-2ckt2VJeFxclUtzknkHmmvmMP55uZzmOxuHmTgDvBUzbduyNT-UzM3BAT0tYoB7RiiiNFRCStRNRjYgnbU0G00]--></g></svg>