<svg xmlns="http://www.w3.org/2000/svg" xmlns:xlink="http://www.w3.org/1999/xlink" contentStyleType="text/css" data-diagram-type="STATE" height="1386px" preserveAspectRatio="none" style="width:1724px;height:1386px;background:#FFFFFF;" version="1.1" viewBox="0 0 1724 1386" width="1724px" zoomAndPan="magnify"><defs/><g><rect fill="#E0FFFF" height="131.75" rx="25" ry="25" style="stroke:#181818;stroke-width:1;" width="332.0938" x="14" y="526"/><text fill="#000000" font-family="&#24494;&#36719;&#38597;&#40657;" font-size="48" lengthAdjust="spacing" textLength="277.4524" x="41.3207" y="580.5547">&#24320;&#23616;(&#24196;&#34892;&#21160;)</text><text fill="#000000" font-family="&#24494;&#36719;&#38597;&#40657;" font-size="48" lengthAdjust="spacing" textLength="312.0938" x="24" y="636.4297">roundbegin()</text><rect fill="#90EE90" height="131.75" rx="25" ry="25" style="stroke:#181818;stroke-width:1;" width="204.0078" x="844.04" y="526"/><text fill="#000000" font-family="&#24494;&#36719;&#38597;&#40657;" font-size="48" lengthAdjust="spacing" textLength="95.9997" x="898.0441" y="580.5547">&#20999;&#29260;</text><text fill="#000000" font-family="&#24494;&#36719;&#38597;&#40657;" font-size="48" lengthAdjust="spacing" textLength="184.0078" x="854.04" y="636.4297">qiepai()</text><rect fill="#90EE90" height="131.75" rx="25" ry="25" style="stroke:#181818;stroke-width:1;" width="206.7969" x="842.64" y="97.14"/><text fill="#000000" font-family="&#24494;&#36719;&#38597;&#40657;" font-size="48" lengthAdjust="spacing" textLength="95.9997" x="898.0386" y="151.6947">&#25720;&#29260;</text><text fill="#000000" font-family="&#24494;&#36719;&#38597;&#40657;" font-size="48" lengthAdjust="spacing" textLength="186.7969" x="852.64" y="207.5697">mopai()</text><rect fill="#FFFF00" height="131.75" rx="25" ry="25" style="stroke:#181818;stroke-width:1;" width="251.6563" x="1262.22" y="526"/><text fill="#000000" font-family="&#24494;&#36719;&#38597;&#40657;" font-size="48" lengthAdjust="spacing" textLength="224.3431" x="1275.8766" y="580.5547">&#21507;/&#30896;/&#26126;&#26464;</text><text fill="#000000" font-family="&#24494;&#36719;&#38597;&#40657;" font-size="48" lengthAdjust="spacing" textLength="231.6563" x="1272.22" y="636.4297">mingpai()</text><rect fill="#FFFF00" height="131.75" rx="25" ry="25" style="stroke:#181818;stroke-width:1;" width="340.3428" x="287.88" y="97.14"/><text fill="#000000" font-family="&#24494;&#36719;&#38597;&#40657;" font-size="48" lengthAdjust="spacing" textLength="320.3428" x="297.88" y="151.6947">&#26263;&#26464;/&#21152;&#26464;/&#25300;&#21271;</text><text fill="#000000" font-family="&#24494;&#36719;&#38597;&#40657;" font-size="48" lengthAdjust="spacing" textLength="287.8594" x="314.1217" y="207.5697">leimingpai()</text><rect fill="#F08080" height="131.75" rx="25" ry="25" style="stroke:#181818;stroke-width:1;" width="191.5156" x="562.28" y="905.76"/><text fill="#000000" font-family="&#24494;&#36719;&#38597;&#40657;" font-size="48" lengthAdjust="spacing" textLength="95.9997" x="610.038" y="960.3147">&#21644;&#29260;</text><text fill="#000000" font-family="&#24494;&#36719;&#38597;&#40657;" font-size="48" lengthAdjust="spacing" textLength="171.5156" x="572.28" y="1016.1897">hupai()</text><rect fill="#ADD8E6" height="131.75" rx="25" ry="25" style="stroke:#181818;stroke-width:1;" width="293.1172" x="823.48" y="905.76"/><text fill="#000000" font-family="&#24494;&#36719;&#38597;&#40657;" font-size="48" lengthAdjust="spacing" textLength="191.9994" x="874.0389" y="960.3147">&#33618;&#29260;&#27969;&#23616;</text><text fill="#000000" font-family="&#24494;&#36719;&#38597;&#40657;" font-size="48" lengthAdjust="spacing" textLength="273.1172" x="833.48" y="1016.1897">notileliuju()</text><rect fill="#ADD8E6" height="131.75" rx="25" ry="25" style="stroke:#181818;stroke-width:1;" width="211.9994" x="1186.04" y="905.76"/><text fill="#000000" font-family="&#24494;&#36719;&#38597;&#40657;" font-size="48" lengthAdjust="spacing" textLength="191.9994" x="1196.04" y="960.3147">&#36884;&#20013;&#27969;&#23616;</text><text fill="#000000" font-family="&#24494;&#36719;&#38597;&#40657;" font-size="48" lengthAdjust="spacing" textLength="138.3047" x="1222.8874" y="1016.1897">liuju()</text><rect fill="#E0FFFF" height="131.75" rx="25" ry="25" style="stroke:#181818;stroke-width:1;" width="259.9992" x="840.04" y="1243.5"/><text fill="#000000" font-family="&#24494;&#36719;&#38597;&#40657;" font-size="48" lengthAdjust="spacing" textLength="239.9992" x="850.04" y="1298.0547">&#26412;&#23567;&#23616;&#32467;&#26463;</text><text fill="#000000" font-family="&#24494;&#36719;&#38597;&#40657;" font-size="48" lengthAdjust="spacing" textLength="191.9994" x="874.0399" y="1353.9297">&#36820;&#22238;&#24320;&#23616;</text><g class="entity" data-entity="&#22791;&#27880;" data-source-line="53" data-uid="ent0011" id="entity_&#22791;&#27880;"><rect fill="#F1F1F1" height="299.4375" rx="5" ry="5" style="stroke:#181818;stroke-width:1;" width="363.9981" x="1135.04" y="14"/><text fill="#000000" font-family="&#24494;&#36719;&#38597;&#40657;" font-size="36" lengthAdjust="spacing" textLength="71.9996" x="1281.0393" y="51.416">&#22791;&#27880;</text><line style="stroke:#181818;stroke-width:2;" x1="1227.0396" x2="1227.0396" y1="63.9063" y2="313.4375"/><line style="stroke:#181818;stroke-width:2;" x1="1135.04" x2="1499.0381" y1="63.9063" y2="63.9063"/><text fill="#000000" font-family="&#24494;&#36719;&#38597;&#40657;" font-size="36" lengthAdjust="spacing" textLength="71.9996" x="1145.04" y="101.3223">&#32511;&#32447;</text><text fill="#000000" font-family="&#24494;&#36719;&#38597;&#40657;" font-size="36" lengthAdjust="spacing" textLength="251.9985" x="1237.0396" y="101.3223">&#26080;&#20154;&#40483;&#29260;&#30340;&#27969;&#31243;</text><line style="stroke:#181818;stroke-width:2;" x1="1135.04" x2="1499.0381" y1="113.8125" y2="113.8125"/><text fill="#000000" font-family="&#24494;&#36719;&#38597;&#40657;" font-size="36" lengthAdjust="spacing" textLength="71.9996" x="1145.04" y="151.2285">&#40657;&#32447;</text><text fill="#000000" font-family="&#24494;&#36719;&#38597;&#40657;" font-size="36" lengthAdjust="spacing" textLength="215.9987" x="1237.0396" y="151.2285">&#40483;&#29260;&#30456;&#20851;&#27969;&#31243;</text><line style="stroke:#181818;stroke-width:2;" x1="1135.04" x2="1499.0381" y1="163.7188" y2="163.7188"/><text fill="#000000" font-family="&#24494;&#36719;&#38597;&#40657;" font-size="36" lengthAdjust="spacing" textLength="71.9996" x="1145.04" y="201.1348">&#32418;&#32447;</text><text fill="#000000" font-family="&#24494;&#36719;&#38597;&#40657;" font-size="36" lengthAdjust="spacing" textLength="71.9996" x="1237.0396" y="201.1348">&#21644;&#29260;</text><line style="stroke:#181818;stroke-width:2;" x1="1135.04" x2="1499.0381" y1="213.625" y2="213.625"/><text fill="#000000" font-family="&#24494;&#36719;&#38597;&#40657;" font-size="36" lengthAdjust="spacing" textLength="71.9996" x="1145.04" y="251.041">&#34013;&#32447;</text><text fill="#000000" font-family="&#24494;&#36719;&#38597;&#40657;" font-size="36" lengthAdjust="spacing" textLength="71.9996" x="1237.0396" y="251.041">&#27969;&#23616;</text><line style="stroke:#181818;stroke-width:2;" x1="1135.04" x2="1499.0381" y1="263.5313" y2="263.5313"/><text fill="#000000" font-family="&#24494;&#36719;&#38597;&#40657;" font-size="36" lengthAdjust="spacing" textLength="71.9996" x="1145.04" y="300.9473">&#34394;&#32447;</text><text fill="#000000" font-family="&#24494;&#36719;&#38597;&#40657;" font-size="36" lengthAdjust="spacing" textLength="143.9991" x="1237.0396" y="300.9473">&#36807;&#28193;&#27969;&#31243;</text></g><ellipse cx="178.04" cy="163" fill="#222222" rx="20" ry="20" style="stroke:#222222;stroke-width:2;"/><!--link *start* to S1--><g class="link" data-entity-1="*start*" data-entity-2="S1" data-source-line="20" data-uid="lnk3" id="link_*start*_S1"><path d="M178.14,183.82 C178.42,242.92 179.2241,414.8401 179.6841,513.6201" fill="none" id="*start*-to-S1" style="stroke:#181818;stroke-width:2;stroke-dasharray:7.0,7.0;"/><polygon fill="#181818" points="179.74,525.62,187.6561,507.5829,179.6934,515.6201,171.6563,507.6574,179.74,525.62" style="stroke:#181818;stroke-width:2;"/></g><!--link S1 to S2--><g class="link" data-entity-1="S1" data-entity-2="S2" data-source-line="23" data-uid="lnk4" id="link_S1_S2"><path d="M254.88,525.2 C302.74,487.16 368.18,443.14 435.04,423 C571.22,382 622.04,372.64 755.04,423 C809.28,443.54 849.9124,478.4332 884.5724,516.2532" fill="none" id="S1-to-S2" style="stroke:#008000;stroke-width:4;"/><polygon fill="#008000" points="892.68,525.1,886.4164,506.4247,885.9236,517.7276,874.6207,517.2349,892.68,525.1" style="stroke:#008000;stroke-width:4;"/></g><!--reverse link S3 to S2--><g class="link" data-entity-1="S3" data-entity-2="S2" data-source-line="24" data-uid="lnk6" id="link_S3_S2"><path d="M925.8151,241.4688 C917.0551,321.5488 918.36,445.4 927.14,525.44" fill="none" id="S3-backto-S2" style="stroke:#008000;stroke-width:4;"/><polygon fill="#008000" points="927.12,229.54,917.2101,246.5633,926.0326,239.4807,933.1152,248.3032,927.12,229.54" style="stroke:#008000;stroke-width:4;"/></g><!--link S3 to S2--><g class="link" data-entity-1="S3" data-entity-2="S2" data-source-line="25" data-uid="lnk7" id="link_S3_S2"><path d="M966.08,229.54 C975.38,309.62 976.742,433.4799 967.462,513.5199" fill="none" id="S3-to-S2" style="stroke:#008000;stroke-width:4;"/><polygon fill="#008000" points="966.08,525.44,976.0998,508.4811,967.2317,515.5065,960.2063,506.6384,966.08,525.44" style="stroke:#008000;stroke-width:4;"/></g><!--reverse link S5 to S1--><g class="link" data-entity-1="S5" data-entity-2="S1" data-source-line="28" data-uid="lnk9" id="link_S5_S1"><path d="M394.0343,238.5423 C359.1343,280.0223 322.32,326.8 288.04,380 C257.88,426.86 229.28,483.16 209.1,525.66" fill="none" id="S5-backto-S1" style="stroke:#181818;stroke-width:4;"/><polygon fill="#181818" points="401.76,229.36,384.05,237.9829,395.3219,237.0119,396.293,248.2838,401.76,229.36" style="stroke:#181818;stroke-width:4;"/><text fill="#000000" font-family="&#24494;&#36719;&#38597;&#40657;" font-size="36" lengthAdjust="spacing" textLength="143.9991" x="290.04" y="436.416">&#33258;&#23478;&#40483;&#29260;</text></g><!--link S2 to S4--><g class="link" data-entity-1="S2" data-entity-2="S4" data-source-line="30" data-uid="lnk10" id="link_S2_S4"><path d="M1048.56,591.88 C1112.06,591.88 1182.1,591.88 1249.6,591.88" fill="none" id="S2-to-S4" style="stroke:#181818;stroke-width:4;"/><polygon fill="#181818" points="1261.6,591.88,1243.6,583.88,1251.6,591.88,1243.6,599.88,1261.6,591.88" style="stroke:#181818;stroke-width:4;"/><text fill="#000000" font-family="&#24494;&#36719;&#38597;&#40657;" font-size="36" lengthAdjust="spacing" textLength="143.9991" x="1084.14" y="577.296">&#20182;&#23478;&#40483;&#29260;</text></g><!--reverse link S2 to S4--><g class="link" data-entity-1="S2" data-entity-2="S4" data-source-line="31" data-uid="lnk12" id="link_S2_S4"><path d="M1060.1398,634.8406 C1074.8798,639.1406 1078.5,639.46 1093.14,641.88 C1147.5,650.88 1162.58,649.7 1217.14,641.88 C1231.82,639.78 1247.02,636.7 1262,633.1" fill="none" id="S2-backto-S4" style="stroke:#181818;stroke-width:4;"/><polygon fill="#181818" points="1048.62,631.48,1063.6593,644.2008,1058.2199,634.2805,1068.1401,628.841,1048.62,631.48" style="stroke:#181818;stroke-width:4;"/><text fill="#000000" font-family="&#24494;&#36719;&#38597;&#40657;" font-size="36" lengthAdjust="spacing" textLength="120.1283" x="1095.14" y="633.296">&#21507;/&#30896;&#21518;</text></g><!--reverse link S3 to S4--><g class="link" data-entity-1="S3" data-entity-2="S4" data-source-line="32" data-uid="lnk14" id="link_S3_S4"><path d="M1008.0346,238.1949 C1032.8546,266.7349 1055.24,291.24 1084.04,320 C1157.7,393.56 1247.4,471.96 1310.2,525.18" fill="none" id="S3-backto-S4" style="stroke:#181818;stroke-width:4;"/><polygon fill="#181818" points="1000.16,229.14,1005.9354,247.972,1006.7222,236.6857,1018.0085,237.4725,1000.16,229.14" style="stroke:#181818;stroke-width:4;"/><text fill="#000000" font-family="&#24494;&#36719;&#38597;&#40657;" font-size="36" lengthAdjust="spacing" textLength="107.9994" x="1258.0399" y="415.416">&#26126;&#26464;&#21518;</text><text fill="#000000" font-family="&#24494;&#36719;&#38597;&#40657;" font-size="36" lengthAdjust="spacing" textLength="143.9991" x="1240.04" y="457.3223">&#23725;&#19978;&#25720;&#29260;</text></g><!--reverse link S5 to S3--><g class="link" data-entity-1="S5" data-entity-2="S3" data-source-line="34" data-uid="lnk16" id="link_S5_S3"><path d="M640.72,163 C711.92,163 780.28,163 842.32,163" fill="none" id="S5-backto-S3" style="stroke:#181818;stroke-width:4;"/><polygon fill="#181818" points="628.72,163,646.72,171,638.72,163,646.72,155,628.72,163" style="stroke:#181818;stroke-width:4;"/><text fill="#000000" font-family="&#24494;&#36719;&#38597;&#40657;" font-size="36" lengthAdjust="spacing" textLength="143.9991" x="664.44" y="148.416">&#33258;&#23478;&#40483;&#29260;</text></g><!--link S5 to S3--><g class="link" data-entity-1="S5" data-entity-2="S3" data-source-line="35" data-uid="lnk17" id="link_S5_S3"><path d="M628.6,209.02 C685.88,218.72 750.04,223.3 808.44,213 C819.44,211.08 819.2103,211.6467 830.3703,208.4267" fill="none" id="S5-to-S3" style="stroke:#181818;stroke-width:4;"/><polygon fill="#181818" points="841.9,205.1,822.3877,202.4035,832.2919,207.8722,826.8233,217.7764,841.9,205.1" style="stroke:#181818;stroke-width:4;"/><text fill="#000000" font-family="&#24494;&#36719;&#38597;&#40657;" font-size="36" lengthAdjust="spacing" textLength="143.9991" x="664.44" y="204.416">&#23725;&#19978;&#25720;&#29260;</text></g><!--link S1 to S6--><g class="link" data-entity-1="S1" data-entity-2="S6" data-source-line="38" data-uid="lnk18" id="link_S1_S6"><path d="M212.76,658.52 C243.98,714.58 295.7,794.56 360.04,845.76 C419.46,893.04 488.0155,921.3514 550.1755,940.9514" fill="none" id="S1-to-S6" style="stroke:#FF0000;stroke-width:4;"/><polygon fill="#FF0000" points="561.62,944.56,546.8589,931.5173,552.0829,941.5528,542.0474,946.7767,561.62,944.56" style="stroke:#FF0000;stroke-width:4;"/><text fill="#000000" font-family="&#24494;&#36719;&#38597;&#40657;" font-size="36" lengthAdjust="spacing" textLength="71.9996" x="362.04" y="795.176">&#22825;&#21644;</text></g><!--link S2 to S6--><g class="link" data-entity-1="S2" data-entity-2="S6" data-source-line="39" data-uid="lnk19" id="link_S2_S6"><path d="M896.54,658.48 C843.62,727.52 767.5386,826.7748 714.6986,895.7348" fill="none" id="S2-to-S6" style="stroke:#FF0000;stroke-width:4;"/><polygon fill="#FF0000" points="707.4,905.26,724.6981,895.8379,713.4822,897.3223,711.9978,886.1064,707.4,905.26" style="stroke:#FF0000;stroke-width:4;"/><text fill="#000000" font-family="&#24494;&#36719;&#38597;&#40657;" font-size="36" lengthAdjust="spacing" textLength="71.9996" x="846.04" y="795.176">&#25918;&#38131;</text></g><!--link S3 to S6--><g class="link" data-entity-1="S3" data-entity-2="S6" data-source-line="40" data-uid="lnk20" id="link_S3_S6"><path d="M898.54,229.26 C849.54,298.8 774.7,414.74 734.04,526 C686.72,655.56 669.4364,805.375 662.6964,893.375" fill="none" id="S3-to-S6" style="stroke:#FF0000;stroke-width:4;"/><polygon fill="#FF0000" points="661.78,905.34,671.1312,888.0035,662.5437,895.3692,655.178,886.7816,661.78,905.34" style="stroke:#FF0000;stroke-width:4;"/><text fill="#000000" font-family="&#24494;&#36719;&#38597;&#40657;" font-size="36" lengthAdjust="spacing" textLength="71.9996" x="736.04" y="605.296">&#33258;&#25720;</text></g><!--link S5 to S6--><g class="link" data-entity-1="S5" data-entity-2="S6" data-source-line="41" data-uid="lnk21" id="link_S5_S6"><path d="M464.7,229.66 C475.38,324.66 499.42,507.04 540.04,657.76 C563.7,745.52 597.9968,831.9086 624.6368,894.1286" fill="none" id="S5-to-S6" style="stroke:#FF0000;stroke-width:4;"/><polygon fill="#FF0000" points="629.36,905.16,629.6295,885.4641,625.424,895.9672,614.921,891.7617,629.36,905.16" style="stroke:#FF0000;stroke-width:4;"/><text fill="#000000" font-family="&#24494;&#36719;&#38597;&#40657;" font-size="36" lengthAdjust="spacing" textLength="71.9996" x="542.04" y="584.296">&#26538;&#26464;</text><text fill="#000000" font-family="&#24494;&#36719;&#38597;&#40657;" font-size="36" lengthAdjust="spacing" textLength="71.9996" x="542.04" y="626.2023">&#26538;&#21271;</text></g><!--link S2 to S7--><g class="link" data-entity-1="S2" data-entity-2="S7" data-source-line="44" data-uid="lnk22" id="link_S2_S7"><path d="M950.18,658.48 C954.58,727.52 960.7759,824.3244 965.1759,893.2844" fill="none" id="S2-to-S7" style="stroke:#0000FF;stroke-width:4;"/><polygon fill="#0000FF" points="965.94,905.26,972.7776,886.7871,965.3032,895.2803,956.8101,887.8059,965.94,905.26" style="stroke:#0000FF;stroke-width:4;"/><text fill="#000000" font-family="&#24494;&#36719;&#38597;&#40657;" font-size="36" lengthAdjust="spacing" textLength="71.9996" x="962.04" y="795.176">&#33618;&#29260;</text></g><!--link S2 to S8--><g class="link" data-entity-1="S2" data-entity-2="S8" data-source-line="45" data-uid="lnk23" id="link_S2_S8"><path d="M1005.52,658.48 C1069.1,727.52 1161.1528,827.4712 1224.6328,896.4312" fill="none" id="S2-to-S8" style="stroke:#0000FF;stroke-width:4;"/><polygon fill="#0000FF" points="1232.76,905.26,1226.455,886.5986,1225.9873,897.9026,1214.6833,897.4349,1232.76,905.26" style="stroke:#0000FF;stroke-width:4;"/><text fill="#000000" font-family="&#24494;&#36719;&#38597;&#40657;" font-size="36" lengthAdjust="spacing" textLength="143.9991" x="1172.04" y="753.176">&#22235;&#39118;&#36830;&#25171;</text><text fill="#000000" font-family="&#24494;&#36719;&#38597;&#40657;" font-size="36" lengthAdjust="spacing" textLength="143.9991" x="1172.04" y="795.0823">&#22235;&#26464;&#25955;&#20102;</text><text fill="#000000" font-family="&#24494;&#36719;&#38597;&#40657;" font-size="36" lengthAdjust="spacing" textLength="143.9991" x="1172.04" y="836.9885">&#22235;&#23478;&#31435;&#30452;</text></g><!--link S3 to S8--><g class="link" data-entity-1="S3" data-entity-2="S8" data-source-line="46" data-uid="lnk24" id="link_S3_S8"><path d="M987.86,229.36 C1012.12,261.52 1045.48,298.16 1084.04,320 C1208.42,390.48 1273.46,313.6 1400.04,380 C1481.86,422.94 1512.4,440.76 1548.04,526 C1607.58,668.34 1477.8374,813.6025 1382.2374,897.5425" fill="none" id="S3-to-S8" style="stroke:#0000FF;stroke-width:4;"/><polygon fill="#0000FF" points="1373.22,905.46,1392.0244,899.5953,1380.7345,898.8621,1381.4677,887.5721,1373.22,905.46" style="stroke:#0000FF;stroke-width:4;"/><text fill="#000000" font-family="&#24494;&#36719;&#38597;&#40657;" font-size="36" lengthAdjust="spacing" textLength="143.9991" x="1564.04" y="605.296">&#20061;&#31181;&#20061;&#29260;</text></g><!--link S6 to S9--><g class="link" data-entity-1="S6" data-entity-2="S9" data-source-line="49" data-uid="lnk25" id="link_S6_S9"><path d="M696.88,1038 C724.82,1081.58 765.06,1139.1 808.04,1183.5 C828.48,1204.62 843.1885,1217.7435 866.5885,1235.7435" fill="none" id="S6-to-S9" style="stroke:#181818;stroke-width:2;stroke-dasharray:7.0,7.0;"/><polygon fill="#181818" points="876.1,1243.06,866.7105,1225.7442,868.1738,1236.9629,856.9551,1238.4262,876.1,1243.06" style="stroke:#181818;stroke-width:2;"/><text fill="#000000" font-family="&#24494;&#36719;&#38597;&#40657;" font-size="36" lengthAdjust="spacing" textLength="143.9991" x="810.04" y="1153.916">&#36830;&#24196;&#21028;&#26029;</text></g><!--link S7 to S9--><g class="link" data-entity-1="S7" data-entity-2="S9" data-source-line="50" data-uid="lnk26" id="link_S7_S9"><path d="M970.04,1037.98 C970.04,1096.9 970.04,1171.64 970.04,1230.66" fill="none" id="S7-to-S9" style="stroke:#181818;stroke-width:2;stroke-dasharray:7.0,7.0;"/><polygon fill="#181818" points="970.04,1242.66,978.04,1224.66,970.04,1232.66,962.04,1224.66,970.04,1242.66" style="stroke:#181818;stroke-width:2;"/><text fill="#000000" font-family="&#24494;&#36719;&#38597;&#40657;" font-size="36" lengthAdjust="spacing" textLength="143.9991" x="1008.0398" y="1132.916">&#36830;&#24196;&#21028;&#26029;</text><text fill="#000000" font-family="&#24494;&#36719;&#38597;&#40657;" font-size="36" lengthAdjust="spacing" textLength="215.9987" x="972.04" y="1174.8223">&#27969;&#23616;&#28385;&#36143;&#21028;&#26029;</text></g><!--link S8 to S9--><g class="link" data-entity-1="S8" data-entity-2="S9" data-source-line="51" data-uid="lnk27" id="link_S8_S9"><path d="M1276.76,1037.72 C1263.32,1082.84 1239.86,1142.34 1202.04,1183.5 C1174.1,1213.94 1147.5771,1232.8241 1111.1771,1251.6641" fill="none" id="S8-to-S9" style="stroke:#181818;stroke-width:2;stroke-dasharray:7.0,7.0;"/><polygon fill="#181818" points="1100.52,1257.18,1120.183,1256.0108,1109.4009,1252.5834,1112.8284,1241.8013,1100.52,1257.18" style="stroke:#181818;stroke-width:2;"/><text fill="#000000" font-family="&#24494;&#36719;&#38597;&#40657;" font-size="36" lengthAdjust="spacing" textLength="71.9996" x="1256.04" y="1153.916">&#36830;&#24196;</text></g><!--SRC=[VPJRJzDG7CVVprzniZq8XeKmReC74o_H5-CBlfYDXyAEMx4xdLqRHMA24HoNWS0cA7MJMoAYN1GqSrFsp-oqtN_XhwVhLjXa3srsVf_lxtuQ5wC4aqHIdSHHaXfNnAGgoXIbnWM9u21AFH5fKb2415WV2vgaFYJFrPkI6AC9GbKy3W-Yj59tPQe-4184-zZvaVNtkARFrighFWzufmcEY2y8xWbvZ2Ege18yXH66NmC9zg6N23as7_ippRvFTx3IZBMTOGlxdH6go1gDZf6OI3iwVLX8uP4UxBylnkBgxKc1DeHpQNC-4w5FHP8KH9SCribx2Y4Dr5WjSZGXUyZUTYHRUTrjxfnq6- -NZVmMA4GQysZwiFyHaIJvMSFpvWPmtMnXotuPYpcMsOXGYOYNXFsNXMmjmrEAQnvgm2rJLWJ99QsbDI2Ddw-WJH5APLMKY2Hg4vgh6gohRaaQSKMrwLorUEYABk2XDhZnyHixUGkiMSuQ-KyHQbLoJ2yuit5aGzuHeF3rKHm8HuLKd4H70pTWGWXTmsQvOfOgmzZOsAgMIhNYBYHkRiv06kR-8e8f1fImFsRtksjCbXnX4C7C0bhBUI-22GMYRNW813l80zL3w4KsU-g9eeKRU3yUnbRwW1tzSbZ4mobDe0-0Qdcz2S19G6hQWs2lRmLRMUPMZ_jUi3gx0iO8PJyEgyK5PzqGBq2w8XKuyMPY-xhe03fQsk65Ekl2YuEMA2JQRCY0BTlx0WGlhPtPo9tNigTkGrlCa1H4vEcqLHSE-5s0DsotdPMLpJjpvll5muRzOx1FJU6WxPTlRbjpo4vQrskxorQbOCndeNMw3b6CTxlLqXl-3_faVbqqzJEUTpi7rTzvy_EI_Qmtgpp7qncuk9f3TYgL0dnXsDoUiNw88Bah0IYL5sQKjwspOrSK-fy8eOcKJ646QUDq7q_nRvtFkGg-ORXRxIw3hyl1d4MsiTPLTXbd1sp6sGBtt9a23y7JRPn_sAoVMvMqKTokUqCl_m40]--></g></svg>