<svg xmlns="http://www.w3.org/2000/svg" xmlns:xlink="http://www.w3.org/1999/xlink" contentStyleType="text/css"
     data-diagram-type="STATE" height="1926px" preserveAspectRatio="none"
     style="width:2817px;height:1926px;background:#FFFFFF;" version="1.1" viewBox="0 0 2817 1926" width="2817px"
     zoomAndPan="magnify">
    <defs/>
    <g><!--cluster S000-->
        <g class="cluster" data-entity="S000" data-source-line="10" data-uid="ent0002" id="cluster_S000">
            <path d="M632.25,445.2102 L1148.25,445.2102 A18.75,18.75 0 0 1 1167,463.9602 L1167,501.6008 L613.5,501.6008 L613.5,463.9602 A18.75,18.75 0 0 1 632.25,445.2102"
                  fill="#90EE90"/>
            <rect fill="none" height="407.535" rx="18.75" ry="18.75" style="stroke:#181818;stroke-width:0.75;"
                  width="553.5" x="613.5" y="445.2102"/>
            <line style="stroke:#181818;stroke-width:0.75;" x1="613.5" x2="1167" y1="501.6008" y2="501.6008"/>
            <text fill="#000000" font-family="'&#24494;&#36719;&#38597;&#40657;'" font-size="42" lengthAdjust="spacing"
                  textLength="210.0009" x="785.2495" y="491.6955">&#24191;&#20041;&#25720;&#29260;&#32452;
            </text>
        </g><!--cluster S010-->
        <g class="cluster" data-entity="S010" data-source-line="23" data-uid="ent0008" id="cluster_S010">
            <path d="M1643.25,445.2102 L2244.75,445.2102 A18.75,18.75 0 0 1 2263.5,463.9602 L2263.5,501.6008 L1624.5,501.6008 L1624.5,463.9602 A18.75,18.75 0 0 1 1643.25,445.2102"
                  fill="#FFFF00"/>
            <rect fill="none" height="407.535" rx="18.75" ry="18.75" style="stroke:#181818;stroke-width:0.75;"
                  width="639" x="1624.5" y="445.2102"/>
            <line style="stroke:#181818;stroke-width:0.75;" x1="1624.5" x2="2263.5" y1="501.6008" y2="501.6008"/>
            <text fill="#000000" font-family="'&#24494;&#36719;&#38597;&#40657;'" font-size="42" lengthAdjust="spacing"
                  textLength="210.0009" x="1838.9995" y="491.6955">&#33258;&#23478;&#40483;&#29260;&#32452;
            </text>
        </g><!--cluster S020-->
        <g class="cluster" data-entity="S020" data-source-line="35" data-uid="ent0013" id="cluster_S020">
            <path d="M683.25,1080.1302 L1112.25,1080.1302 A18.75,18.75 0 0 1 1131,1098.8802 L1131,1136.5208 L664.5,1136.5208 L664.5,1098.8802 A18.75,18.75 0 0 1 683.25,1080.1302"
                  fill="#20B2AA"/>
            <rect fill="none" height="428.67" rx="18.75" ry="18.75" style="stroke:#181818;stroke-width:0.75;"
                  width="466.5" x="664.5" y="1080.1302"/>
            <line style="stroke:#181818;stroke-width:0.75;" x1="664.5" x2="1131" y1="1136.5208" y2="1136.5208"/>
            <text fill="#000000" font-family="'&#24494;&#36719;&#38597;&#40657;'" font-size="42" lengthAdjust="spacing"
                  textLength="126.0005" x="834.7497" y="1126.6155">&#27969;&#23616;&#32452;
            </text>
        </g>
        <rect fill="#E0FFFF" height="112.7813" rx="18.75" ry="18.75" style="stroke:#181818;stroke-width:0.75;"
              width="254.7363" x="888.135" y="624.5952"/>
        <text fill="#000000" font-family="'&#24494;&#36719;&#38597;&#40657;'" font-size="42" lengthAdjust="spacing"
              textLength="84.0004" x="973.503" y="671.0805">&#24320;&#23616;
        </text>
        <text fill="#000000" font-family="'&#24494;&#36719;&#38597;&#40657;'" font-size="42" lengthAdjust="spacing"
              textLength="239.7363" x="895.635" y="719.9712">.NewRound
        </text>
        <rect fill="#90EE90" height="112.7813" rx="18.75" ry="18.75" style="stroke:#181818;stroke-width:0.75;"
              width="198.7705" x="637.11" y="624.5952"/>
        <text fill="#000000" font-family="'&#24494;&#36719;&#38597;&#40657;'" font-size="42" lengthAdjust="spacing"
              textLength="84.0004" x="694.4951" y="671.0805">&#25720;&#29260;
        </text>
        <text fill="#000000" font-family="'&#24494;&#36719;&#38597;&#40657;'" font-size="42" lengthAdjust="spacing"
              textLength="183.7705" x="644.61" y="719.9712">.DealTile
        </text>
        <text fill="#000000" font-family="'&#24494;&#36719;&#38597;&#40657;'" font-size="42" lengthAdjust="spacing"
              textLength="15.1553" x="775.4224" y="408.3049">-
        </text>
        <ellipse cx="783" cy="445.2102" fill="#F1F1F1" rx="9" ry="9" style="stroke:#181818;stroke-width:2.25;"/>
        <text fill="#000000" font-family="'&#24494;&#36719;&#38597;&#40657;'" font-size="42" lengthAdjust="spacing"
              textLength="15.1553" x="1073.9224" y="408.3049">-
        </text>
        <ellipse cx="1081.5" cy="445.2102" fill="#F1F1F1" rx="9" ry="9" style="stroke:#181818;stroke-width:2.25;"/>
        <text fill="#000000" font-family="'&#24494;&#36719;&#38597;&#40657;'" font-size="42" lengthAdjust="spacing"
              textLength="35.1914" x="997.9043" y="900.7305">+
        </text>
        <ellipse cx="1015.5" cy="852.7452" fill="#F1F1F1" rx="9" ry="9" style="stroke:#181818;stroke-width:2.25;"/>
        <line style="stroke:#181818;stroke-width:2.25;" x1="1022.0836" x2="1010.4164" y1="859.3288" y2="847.6616"/>
        <line style="stroke:#181818;stroke-width:2.25;" x1="1022.0836" x2="1010.4164" y1="847.6616" y2="859.3288"/>
        <rect fill="#D3D3D3" height="112.7813" rx="18.75" ry="18.75" style="stroke:#181818;stroke-width:0.75;"
              width="388.8779" x="1850.055" y="624.5952"/>
        <text fill="#000000" font-family="'&#24494;&#36719;&#38597;&#40657;'" font-size="42" lengthAdjust="spacing"
              textLength="182.1511" x="1953.4184" y="671.0805">&#26263;&#26464;/&#21152;&#26464;
        </text>
        <text fill="#000000" font-family="'&#24494;&#36719;&#38597;&#40657;'" font-size="42" lengthAdjust="spacing"
              textLength="373.8779" x="1857.555" y="719.9712">.AnGangAddGang
        </text>
        <rect fill="#D3D3D3" height="112.7813" rx="18.75" ry="18.75" style="stroke:#181818;stroke-width:0.75;"
              width="149.2236" x="1648.89" y="624.5952"/>
        <text fill="#000000" font-family="'&#24494;&#36719;&#38597;&#40657;'" font-size="42" lengthAdjust="spacing"
              textLength="84.0004" x="1681.5016" y="671.0805">&#25300;&#21271;
        </text>
        <text fill="#000000" font-family="'&#24494;&#36719;&#38597;&#40657;'" font-size="42" lengthAdjust="spacing"
              textLength="134.2236" x="1656.39" y="719.9712">.BaBei
        </text>
        <text fill="#000000" font-family="'&#24494;&#36719;&#38597;&#40657;'" font-size="42" lengthAdjust="spacing"
              textLength="15.1553" x="1715.9224" y="408.3049">-
        </text>
        <ellipse cx="1723.5" cy="445.2102" fill="#F1F1F1" rx="9" ry="9" style="stroke:#181818;stroke-width:2.25;"/>
        <text fill="#000000" font-family="'&#24494;&#36719;&#38597;&#40657;'" font-size="42" lengthAdjust="spacing"
              textLength="35.1914" x="1666.9043" y="900.7305">+
        </text>
        <ellipse cx="1684.5" cy="852.7452" fill="#F1F1F1" rx="9" ry="9" style="stroke:#181818;stroke-width:2.25;"/>
        <line style="stroke:#181818;stroke-width:2.25;" x1="1691.0836" x2="1679.4164" y1="859.3288" y2="847.6616"/>
        <line style="stroke:#181818;stroke-width:2.25;" x1="1691.0836" x2="1679.4164" y1="847.6616" y2="859.3288"/>
        <rect fill="#ADD8E6" height="112.7813" rx="18.75" ry="18.75" style="stroke:#181818;stroke-width:0.75;"
              width="183.0007" x="924" y="1259.5152"/>
        <text fill="#000000" font-family="'&#24494;&#36719;&#38597;&#40657;'" font-size="42" lengthAdjust="spacing"
              textLength="168.0007" x="931.5" y="1306.0005">&#36884;&#20013;&#27969;&#23616;
        </text>
        <text fill="#000000" font-family="'&#24494;&#36719;&#38597;&#40657;'" font-size="42" lengthAdjust="spacing"
              textLength="114.0439" x="958.4784" y="1354.8912">.LiuJu
        </text>
        <rect fill="#ADD8E6" height="112.7813" rx="18.75" ry="18.75" style="stroke:#181818;stroke-width:0.75;"
              width="183.0007" x="688.5" y="1259.5152"/>
        <text fill="#000000" font-family="'&#24494;&#36719;&#38597;&#40657;'" font-size="42" lengthAdjust="spacing"
              textLength="168.0007" x="696" y="1306.0005">&#33618;&#29260;&#27969;&#23616;
        </text>
        <text fill="#000000" font-family="'&#24494;&#36719;&#38597;&#40657;'" font-size="42" lengthAdjust="spacing"
              textLength="145.2979" x="707.3514" y="1354.8912">.NoTile
        </text>
        <text fill="#000000" font-family="'&#24494;&#36719;&#38597;&#40657;'" font-size="42" lengthAdjust="spacing"
              textLength="15.1553" x="772.4224" y="1043.2249">-
        </text>
        <ellipse cx="780" cy="1080.1302" fill="#F1F1F1" rx="9" ry="9" style="stroke:#181818;stroke-width:2.25;"/>
        <text fill="#000000" font-family="'&#24494;&#36719;&#38597;&#40657;'" font-size="42" lengthAdjust="spacing"
              textLength="15.1553" x="1007.9224" y="1043.2249">-
        </text>
        <ellipse cx="1015.5" cy="1080.1302" fill="#F1F1F1" rx="9" ry="9" style="stroke:#181818;stroke-width:2.25;"/>
        <text fill="#000000" font-family="'&#24494;&#36719;&#38597;&#40657;'" font-size="42" lengthAdjust="spacing"
              textLength="35.1914" x="997.9043" y="1556.7855">+
        </text>
        <ellipse cx="1015.5" cy="1508.8002" fill="#F1F1F1" rx="9" ry="9" style="stroke:#181818;stroke-width:2.25;"/>
        <line style="stroke:#181818;stroke-width:2.25;" x1="1022.0836" x2="1010.4164" y1="1515.3838" y2="1503.7166"/>
        <line style="stroke:#181818;stroke-width:2.25;" x1="1022.0836" x2="1010.4164" y1="1503.7166" y2="1515.3838"/>
        <rect fill="#E0FFFF" height="112.7813" rx="18.75" ry="18.75" style="stroke:#181818;stroke-width:0.75;"
              width="225.0009" x="1230" y="1679.8002"/>
        <text fill="#000000" font-family="'&#24494;&#36719;&#38597;&#40657;'" font-size="42" lengthAdjust="spacing"
              textLength="210.0009" x="1237.5" y="1726.2855">&#26412;&#23567;&#23616;&#32467;&#26463;
        </text>
        <text fill="#000000" font-family="'&#24494;&#36719;&#38597;&#40657;'" font-size="42" lengthAdjust="spacing"
              textLength="168.0007" x="1258.5001" y="1775.1762">&#24320;&#22987;&#32467;&#31639;
        </text>
        <rect fill="#90EE90" height="112.7813" rx="18.75" ry="18.75" style="stroke:#181818;stroke-width:0.75;"
              width="261.832" x="332.58" y="76.6752"/>
        <text fill="#000000" font-family="'&#24494;&#36719;&#38597;&#40657;'" font-size="42" lengthAdjust="spacing"
              textLength="84.0004" x="421.4958" y="123.1605">&#20999;&#29260;
        </text>
        <text fill="#000000" font-family="'&#24494;&#36719;&#38597;&#40657;'" font-size="42" lengthAdjust="spacing"
              textLength="246.832" x="340.08" y="172.0512">.DiscardTile
        </text>
        <rect fill="#FF8C00" height="112.7813" rx="18.75" ry="18.75" style="stroke:#181818;stroke-width:0.75;"
              width="311.9736" x="289.515" y="388.8252"/>
        <text fill="#000000" font-family="'&#24494;&#36719;&#38597;&#40657;'" font-size="42" lengthAdjust="spacing"
              textLength="196.3015" x="347.3511" y="435.3105">&#21507;/&#30896;/&#26126;&#26464;
        </text>
        <text fill="#000000" font-family="'&#24494;&#36719;&#38597;&#40657;'" font-size="42" lengthAdjust="spacing"
              textLength="296.9736" x="297.015" y="484.2012">.ChiPengGang
        </text>
        <rect fill="#F08080" height="112.7813" rx="18.75" ry="18.75" style="stroke:#181818;stroke-width:0.75;"
              width="124.0605" x="1476.975" y="1023.7452"/>
        <text fill="#000000" font-family="'&#24494;&#36719;&#38597;&#40657;'" font-size="42" lengthAdjust="spacing"
              textLength="84.0004" x="1497.0051" y="1070.2305">&#21644;&#29260;
        </text>
        <text fill="#000000" font-family="'&#24494;&#36719;&#38597;&#40657;'" font-size="42" lengthAdjust="spacing"
              textLength="109.0605" x="1484.475" y="1119.1212">.Hule
        </text>
        <g class="entity" data-entity=".........." data-source-line="87" data-uid="ent0023" id="entity_..........">
            <rect fill="#F1F1F1" height="245.5313" rx="3.75" ry="3.75" style="stroke:#181818;stroke-width:0.75;"
                  width="320.9998" x="2486.25" y="10.8252"/>
            <text fill="#000000" font-family="'&#24494;&#36719;&#38597;&#40657;'" font-size="30" lengthAdjust="spacing"
                  textLength="299.9998" x="2496.75" y="41.6719">&#27573;&#20301;&#22330;&#25805;&#20316;&#29366;&#24577;&#36716;&#31227;&#34920;
            </text>
            <line style="stroke:#181818;stroke-width:1.5;" x1="2561.25" x2="2561.25" y1="51.7471" y2="256.3564"/>
            <line style="stroke:#181818;stroke-width:1.5;" x1="2486.25" x2="2807.2498" y1="51.7471" y2="51.7471"/>
            <text fill="#000000" font-family="'&#24494;&#36719;&#38597;&#40657;'" font-size="30" lengthAdjust="spacing"
                  textLength="60" x="2493.75" y="82.5938">&#32511;&#32447;
            </text>
            <text fill="#000000" font-family="'&#24494;&#36719;&#38597;&#40657;'" font-size="30" lengthAdjust="spacing"
                  textLength="209.9998" x="2568.75" y="82.5938">&#26080;&#20154;&#40483;&#29260;&#30340;&#27969;&#31243;
            </text>
            <line style="stroke:#181818;stroke-width:1.5;" x1="2486.25" x2="2807.2498" y1="92.6689" y2="92.6689"/>
            <text fill="#000000" font-family="'&#24494;&#36719;&#38597;&#40657;'" font-size="30" lengthAdjust="spacing"
                  textLength="60" x="2493.75" y="123.5156">&#40657;&#32447;
            </text>
            <text fill="#000000" font-family="'&#24494;&#36719;&#38597;&#40657;'" font-size="30" lengthAdjust="spacing"
                  textLength="179.9999" x="2568.75" y="123.5156">&#40483;&#29260;&#30456;&#20851;&#27969;&#31243;
            </text>
            <line style="stroke:#181818;stroke-width:1.5;" x1="2486.25" x2="2807.2498" y1="133.5908" y2="133.5908"/>
            <text fill="#000000" font-family="'&#24494;&#36719;&#38597;&#40657;'" font-size="30" lengthAdjust="spacing"
                  textLength="60" x="2493.75" y="164.4375">&#32418;&#32447;
            </text>
            <text fill="#000000" font-family="'&#24494;&#36719;&#38597;&#40657;'" font-size="30" lengthAdjust="spacing"
                  textLength="60" x="2568.75" y="164.4375">&#21644;&#29260;
            </text>
            <line style="stroke:#181818;stroke-width:1.5;" x1="2486.25" x2="2807.2498" y1="174.5127" y2="174.5127"/>
            <text fill="#000000" font-family="'&#24494;&#36719;&#38597;&#40657;'" font-size="30" lengthAdjust="spacing"
                  textLength="60" x="2493.75" y="205.3594">&#34013;&#32447;
            </text>
            <text fill="#000000" font-family="'&#24494;&#36719;&#38597;&#40657;'" font-size="30" lengthAdjust="spacing"
                  textLength="60" x="2568.75" y="205.3594">&#27969;&#23616;
            </text>
            <line style="stroke:#181818;stroke-width:1.5;" x1="2486.25" x2="2807.2498" y1="215.4346" y2="215.4346"/>
            <text fill="#000000" font-family="'&#24494;&#36719;&#38597;&#40657;'" font-size="30" lengthAdjust="spacing"
                  textLength="60" x="2493.75" y="246.2813">&#34394;&#32447;
            </text>
            <text fill="#000000" font-family="'&#24494;&#36719;&#38597;&#40657;'" font-size="30" lengthAdjust="spacing"
                  textLength="119.9999" x="2568.75" y="246.2813">&#36807;&#28193;&#27969;&#31243;
            </text>
        </g>
        <ellipse cx="2406" cy="133.0752" fill="#222222" rx="15" ry="15" style="stroke:#222222;stroke-width:1.5;"/>
        <ellipse cx="1342.5" cy="1900.5852" fill="none" rx="16.5" ry="16.5" style="stroke:#222222;stroke-width:1.5;"/>
        <ellipse cx="1342.5" cy="1900.5852" fill="#222222" rx="9" ry="9"
                 style="stroke:#222222;stroke-width:1.5;"/><!--link S001 to S3-->
        <g class="link" data-entity-1="S001" data-entity-2="S3" data-source-line="15" data-uid="lnk2" id="link_S001_S3">
            <path d="M781.455,454.4502 C776.25,480.4902 760.8383,557.6296 749.2883,615.4396" fill="none" id="S001-to-S3"
                  style="stroke:#008000;stroke-width:3;"/>
            <polygon fill="#008000"
                     points="747.525,624.2652,756.0536,612.2024,748.9944,616.9105,744.2862,609.8513,747.525,624.2652"
                     style="stroke:#008000;stroke-width:3;"/>
        </g><!--link S003 to S1-->
        <g class="link" data-entity-1="S003" data-entity-2="S1" data-source-line="17" data-uid="lnk3" id="link_S003_S1">
            <path d="M1079.31,454.4502 C1071.93,480.4902 1050.0106,557.7967 1033.6156,615.6067" fill="none"
                  id="S003-to-S1" style="stroke:#008000;stroke-width:3;"/>
            <polygon fill="#008000"
                     points="1031.16,624.2652,1040.6157,612.9144,1033.2063,617.0498,1029.071,609.6404,1031.16,624.2652"
                     style="stroke:#008000;stroke-width:3;"/>
        </g><!--link S1 to S002-->
        <g class="link" data-entity-1="S1" data-entity-2="S002" data-source-line="20" data-uid="lnk4" id="link_S1_S002">
            <path d="M1015.5,737.7402 C1015.5,776.5752 1015.5,815.8002 1015.5,834.4002" fill="none" id="S1-to-S002"
                  style="stroke:#008000;stroke-width:3;"/>
            <polygon fill="#008000"
                     points="1015.5,843.4002,1021.5,829.9002,1015.5,835.9002,1009.5,829.9002,1015.5,843.4002"
                     style="stroke:#008000;stroke-width:3;"/>
        </g><!--link S3 to S002-->
        <g class="link" data-entity-1="S3" data-entity-2="S002" data-source-line="21" data-uid="lnk5" id="link_S3_S002">
            <path d="M828.24,737.9802 C894.945,778.3302 970.5249,824.041 998.2899,840.841" fill="none" id="S3-to-S002"
                  style="stroke:#008000;stroke-width:3;"/>
            <polygon fill="#008000"
                     points="1005.99,845.5002,997.5459,833.378,999.5732,841.6175,991.3337,843.6448,1005.99,845.5002"
                     style="stroke:#008000;stroke-width:3;"/>
        </g><!--link S011 to S5-->
        <g class="link" data-entity-1="S011" data-entity-2="S5" data-source-line="28" data-uid="lnk6" id="link_S011_S5">
            <path d="M1732.755,453.4302 C1766.79,478.1052 1879.819,560.0769 1960.639,618.6819" fill="none"
                  id="S011-to-S5" style="stroke:#181818;stroke-width:3;"/>
            <polygon fill="#181818"
                     points="1967.925,623.9652,1960.5182,611.1828,1961.8533,619.5624,1953.4737,620.8976,1967.925,623.9652"
                     style="stroke:#181818;stroke-width:3;"/>
        </g><!--link S011 to S9-->
        <g class="link" data-entity-1="S011" data-entity-2="S9" data-source-line="29" data-uid="lnk7" id="link_S011_S9">
            <path d="M1723.5,454.4502 C1723.5,480.4902 1723.5,557.4552 1723.5,615.2652" fill="none" id="S011-to-S9"
                  style="stroke:#181818;stroke-width:3;"/>
            <polygon fill="#181818"
                     points="1723.5,624.2652,1729.5,610.7652,1723.5,616.7652,1717.5,610.7652,1723.5,624.2652"
                     style="stroke:#181818;stroke-width:3;"/>
        </g><!--link S5 to S012-->
        <g class="link" data-entity-1="S5" data-entity-2="S012" data-source-line="32" data-uid="lnk8" id="link_S5_S012">
            <path d="M1926.12,737.9802 C1837.59,779.4852 1734.5886,827.7592 1702.0236,843.0292" fill="none"
                  id="S5-to-S012" style="stroke:#181818;stroke-width:3;"/>
            <polygon fill="#181818"
                     points="1693.875,846.8502,1708.6453,846.5512,1700.6655,843.6661,1703.5506,835.6863,1693.875,846.8502"
                     style="stroke:#181818;stroke-width:3;"/>
        </g><!--link S9 to S012-->
        <g class="link" data-entity-1="S9" data-entity-2="S012" data-source-line="33" data-uid="lnk9" id="link_S9_S012">
            <path d="M1710.735,737.7402 C1701.75,776.5752 1692.6277,816.0304 1688.3377,834.6304" fill="none"
                  id="S9-to-S012" style="stroke:#181818;stroke-width:3;"/>
            <polygon fill="#181818"
                     points="1686.315,843.4002,1695.1956,831.594,1688.0006,836.0921,1683.5025,828.8971,1686.315,843.4002"
                     style="stroke:#181818;stroke-width:3;"/>
        </g><!--link S021 to S7-->
        <g class="link" data-entity-1="S021" data-entity-2="S7" data-source-line="41" data-uid="lnk10"
           id="link_S021_S7">
            <path d="M788.715,1089.7902 C808.455,1108.3002 857.985,1154.9952 898.5,1195.0152 C919.56,1215.8352 936.1174,1232.5708 955.9924,1252.9258"
                  fill="none" id="S021-to-S7" style="stroke:#0000FF;stroke-width:3;"/>
            <polygon fill="#0000FF"
                     points="962.28,1259.3652,957.1416,1245.5143,957.0403,1253.999,948.5557,1253.8978,962.28,1259.3652"
                     style="stroke:#0000FF;stroke-width:3;"/>
        </g><!--link S021 to S8-->
        <g class="link" data-entity-1="S021" data-entity-2="S8" data-source-line="42" data-uid="lnk11"
           id="link_S021_S8">
            <path d="M780,1089.3702 C780,1115.4102 780,1192.3752 780,1250.1852" fill="none" id="S021-to-S8"
                  style="stroke:#0000FF;stroke-width:3;"/>
            <polygon fill="#0000FF" points="780,1259.1852,786,1245.6852,780,1251.6852,774,1245.6852,780,1259.1852"
                     style="stroke:#0000FF;stroke-width:3;"/>
        </g><!--link S022 to S7-->
        <g class="link" data-entity-1="S022" data-entity-2="S7" data-source-line="46" data-uid="lnk12"
           id="link_S022_S7">
            <path d="M1015.5,1089.3702 C1015.5,1115.4102 1015.5,1192.3752 1015.5,1250.1852" fill="none" id="S022-to-S7"
                  style="stroke:#0000FF;stroke-width:3;"/>
            <polygon fill="#0000FF"
                     points="1015.5,1259.1852,1021.5,1245.6852,1015.5,1251.6852,1009.5,1245.6852,1015.5,1259.1852"
                     style="stroke:#0000FF;stroke-width:3;"/>
        </g><!--link S7 to S023-->
        <g class="link" data-entity-1="S7" data-entity-2="S023" data-source-line="49" data-uid="lnk13"
           id="link_S7_S023">
            <path d="M1015.5,1372.8552 C1015.5,1417.9452 1015.5,1468.5252 1015.5,1490.0802" fill="none" id="S7-to-S023"
                  style="stroke:#0000FF;stroke-width:3;"/>
            <polygon fill="#0000FF"
                     points="1015.5,1499.0802,1021.5,1485.5802,1015.5,1491.5802,1009.5,1485.5802,1015.5,1499.0802"
                     style="stroke:#0000FF;stroke-width:3;"/>
        </g><!--link S8 to S023-->
        <g class="link" data-entity-1="S8" data-entity-2="S023" data-source-line="50" data-uid="lnk14"
           id="link_S8_S023">
            <path d="M848.745,1372.8552 C905.22,1418.3802 973.0047,1473.03 999.0597,1494.045" fill="none"
                  id="S8-to-S023" style="stroke:#0000FF;stroke-width:3;"/>
            <polygon fill="#0000FF"
                     points="1006.065,1499.6952,999.3238,1486.5496,1000.2272,1494.9867,991.7902,1495.8901,1006.065,1499.6952"
                     style="stroke:#0000FF;stroke-width:3;"/>
        </g><!--link *start* to S003-->
        <g class="link" data-entity-1=".start." data-entity-2="S003" data-source-line="58" data-uid="lnk16"
           id="link_.start._S003">
            <path d="M2391.12,138.0402 C2253.285,170.2152 1210.2045,413.6748 1099.6545,439.4748" fill="none"
                  id="*start*-to-S003" style="stroke:#181818;stroke-width:1.5;stroke-dasharray:10.5,10.5;"/>
            <polygon fill="#181818"
                     points="1090.89,441.5202,1105.4004,444.295,1098.1937,439.8157,1102.6731,432.609,1090.89,441.5202"
                     style="stroke:#181818;stroke-width:1.5;"/>
        </g><!--link S2 to S001-->
        <g class="link" data-entity-1="S2" data-entity-2="S001" data-source-line="61" data-uid="lnk17"
           id="link_S2_S001">
            <path d="M520.62,189.8352 C600.315,266.9502 732.6279,394.971 768.0879,429.291" fill="none" id="S2-to-S001"
                  style="stroke:#008000;stroke-width:3;"/>
            <polygon fill="#008000"
                     points="774.555,435.5502,769.0272,421.8501,769.1658,430.3342,760.6816,430.4728,774.555,435.5502"
                     style="stroke:#008000;stroke-width:3;"/>
        </g><!--link S002 to S2-->
        <g class="link" data-entity-1="S002" data-entity-2="S2" data-source-line="62" data-uid="lnk18"
           id="link_S002_S2">
            <path d="M1005.795,850.7352 C929.055,846.1302 419.445,804.3552 264,501.5952 C206.7,389.9802 311.3151,267.6857 389.4801,196.1657"
                  fill="none" id="S002-to-S2" style="stroke:#008000;stroke-width:3;"/>
            <polygon fill="#008000"
                     points="396.12,190.0902,382.1098,194.7768,390.5867,195.1531,390.2104,203.63,396.12,190.0902"
                     style="stroke:#008000;stroke-width:3;"/>
        </g><!--link S002 to S011-->
        <g class="link" data-entity-1="S002" data-entity-2="S011" data-source-line="65" data-uid="lnk19"
           id="link_S002_S011">
            <path d="M1025.055,851.1102 C1069.905,850.0152 1262.31,840.1602 1381.5,752.2452 C1462.815,692.2602 1428.45,628.3002 1503,560.0952 C1571.61,497.3352 1672.8197,462.4447 1705.4597,452.2447"
                  fill="none" id="S002-to-S011" style="stroke:#181818;stroke-width:3;"/>
            <polygon fill="#181818"
                     points="1714.05,449.5602,1699.3749,447.86,1706.8914,451.7973,1702.9542,459.3138,1714.05,449.5602"
                     style="stroke:#181818;stroke-width:3;"/>
            <text fill="#000000" font-family="'&#24494;&#36719;&#38597;&#40657;'" font-size="30" lengthAdjust="spacing"
                  textLength="119.9999" x="1504.5" y="691.5919">&#33258;&#23478;&#40483;&#29260;
            </text>
        </g><!--link S2 to S4-->
        <g class="link" data-entity-1="S2" data-entity-2="S4" data-source-line="67" data-uid="lnk20" id="link_S2_S4">
            <path d="M423.015,189.8502 C401.955,222.0702 378.39,264.5052 367.5,306.3252 C363.3,322.4502 362.07,328.0602 367.5,343.8252 C372.945,359.6352 376.6532,367.6354 386.7482,381.2254"
                  fill="none" id="S2-to-S4" style="stroke:#181818;stroke-width:3;"/>
            <polygon fill="#181818"
                     points="392.115,388.4502,388.8814,374.0351,387.6427,382.4295,379.2483,381.1908,392.115,388.4502"
                     style="stroke:#181818;stroke-width:3;"/>
            <text fill="#000000" font-family="'&#24494;&#36719;&#38597;&#40657;'" font-size="30" lengthAdjust="spacing"
                  textLength="119.9999" x="369" y="335.6719">&#20182;&#23478;&#40483;&#29260;
            </text>
        </g><!--link S4 to S2-->
        <g class="link" data-entity-1="S4" data-entity-2="S2" data-source-line="68" data-uid="lnk21" id="link_S4_S2">
            <path d="M478.515,388.3602 C485.31,374.3052 491.475,358.9002 495,343.8252 C507.06,292.3152 498.099,241.1819 485.754,198.7469"
                  fill="none" id="S4-to-S2" style="stroke:#181818;stroke-width:3;"/>
            <polygon fill="#181818"
                     points="483.24,190.1052,481.2499,204.7438,485.335,197.3066,492.7722,201.3918,483.24,190.1052"
                     style="stroke:#181818;stroke-width:3;"/>
            <text fill="#000000" font-family="'&#24494;&#36719;&#38597;&#40657;'" font-size="30" lengthAdjust="spacing"
                  textLength="100.1074" x="501" y="335.6719">&#21507;/&#30896;&#21518;
            </text>
        </g><!--link S4 to S001-->
        <g class="link" data-entity-1="S4" data-entity-2="S001" data-source-line="69" data-uid="lnk22"
           id="link_S4_S001">
            <path d="M601.905,445.2102 C673.29,445.2102 738.63,445.2102 764.475,445.2102" fill="none" id="S4-to-S001"
                  style="stroke:#181818;stroke-width:3;"/>
            <polygon fill="#181818"
                     points="773.475,445.2102,759.975,439.2102,765.975,445.2102,759.975,451.2102,773.475,445.2102"
                     style="stroke:#181818;stroke-width:3;"/>
            <text fill="#000000" font-family="'&#24494;&#36719;&#38597;&#40657;'" font-size="30" lengthAdjust="spacing"
                  textLength="89.9999" x="643.5" y="398.0569">&#26126;&#26464;&#21518;
            </text>
            <text fill="#000000" font-family="'&#24494;&#36719;&#38597;&#40657;'" font-size="30" lengthAdjust="spacing"
                  textLength="119.9999" x="628.5" y="432.9787">&#23725;&#19978;&#25720;&#29260;
            </text>
        </g><!--link S012 to S001-->
        <g class="link" data-entity-1="S012" data-entity-2="S001" data-source-line="71" data-uid="lnk23"
           id="link_S012_S001">
            <path d="M1674.795,850.2402 C1616.85,844.1052 1316.79,809.8902 1248,752.2452 C1176.96,692.7252 1236.09,621.8652 1167,560.0952 C1107.405,506.8152 853.7946,459.334 801.0996,449.914"
                  fill="none" id="S012-to-S001" style="stroke:#181818;stroke-width:3;"/>
            <polygon fill="#181818"
                     points="792.24,448.3302,804.4735,456.6122,799.623,449.65,806.5852,444.7995,792.24,448.3302"
                     style="stroke:#181818;stroke-width:3;"/>
            <text fill="#000000" font-family="'&#24494;&#36719;&#38597;&#40657;'" font-size="30" lengthAdjust="spacing"
                  textLength="119.9999" x="1249.5" y="691.5919">&#23725;&#19978;&#25720;&#29260;
            </text>
        </g><!--link S2 to S6-->
        <g class="link" data-entity-1="S2" data-entity-2="S6" data-source-line="74" data-uid="lnk24" id="link_S2_S6">
            <path d="M595.02,142.2702 C1022.385,169.0302 2344.5,266.1402 2344.5,443.7102 C2344.5,443.7102 2344.5,443.7102 2344.5,854.2452 C2344.5,1008.2952 1799.7669,1060.4963 1610.5119,1074.0713"
                  fill="none" id="S2-to-S6" style="stroke:#FF0000;stroke-width:3;"/>
            <polygon fill="#FF0000"
                     points="1601.535,1074.7152,1615.4297,1079.734,1609.0158,1074.1786,1614.5711,1067.7647,1601.535,1074.7152"
                     style="stroke:#FF0000;stroke-width:3;"/>
            <text fill="#000000" font-family="'&#24494;&#36719;&#38597;&#40657;'" font-size="30" lengthAdjust="spacing"
                  textLength="60" x="2346" y="691.5919">&#25918;&#38131;
            </text>
        </g><!--link S002 to S6-->
        <g class="link" data-entity-1="S002" data-entity-2="S6" data-source-line="75" data-uid="lnk25"
           id="link_S002_S6">
            <path d="M1024.62,857.6802 C1046.295,865.8852 1102.56,887.3802 1149,906.7452 C1265.445,955.2702 1391.5866,1011.6922 1468.3266,1046.4472"
                  fill="none" id="S002-to-S6" style="stroke:#FF0000;stroke-width:3;"/>
            <polygon fill="#FF0000"
                     points="1476.525,1050.1602,1466.7027,1039.1251,1469.693,1047.066,1461.7521,1050.0563,1476.525,1050.1602"
                     style="stroke:#FF0000;stroke-width:3;"/>
            <text fill="#000000" font-family="'&#24494;&#36719;&#38597;&#40657;'" font-size="30" lengthAdjust="spacing"
                  textLength="60" x="1311" y="953.3419">&#33258;&#25720;
            </text>
        </g><!--link S012 to S6-->
        <g class="link" data-entity-1="S012" data-entity-2="S6" data-source-line="76" data-uid="lnk26"
           id="link_S012_S6">
            <path d="M1679.325,862.2252 C1662.87,887.6052 1615.6569,960.409 1579.7919,1015.714" fill="none"
                  id="S012-to-S6" style="stroke:#FF0000;stroke-width:3;"/>
            <polygon fill="#FF0000"
                     points="1574.895,1023.2652,1587.2745,1015.203,1578.9758,1016.9725,1577.2062,1008.6738,1574.895,1023.2652"
                     style="stroke:#FF0000;stroke-width:3;"/>
            <text fill="#000000" font-family="'&#24494;&#36719;&#38597;&#40657;'" font-size="30" lengthAdjust="spacing"
                  textLength="60" x="1650" y="936.0919">&#26538;&#26464;
            </text>
            <text fill="#000000" font-family="'&#24494;&#36719;&#38597;&#40657;'" font-size="30" lengthAdjust="spacing"
                  textLength="60" x="1650" y="971.0138">&#26538;&#21271;
            </text>
        </g><!--link S2 to S021-->
        <g class="link" data-entity-1="S2" data-entity-2="S021" data-source-line="79" data-uid="lnk27"
           id="link_S2_S021">
            <path d="M332.04,164.2902 C197.805,203.3502 9,286.2552 9,443.7102 C9,443.7102 9,443.7102 9,854.2452 C9,1020.8352 672.0207,1071.3305 761.2707,1077.3905"
                  fill="none" id="S2-to-S021" style="stroke:#0000FF;stroke-width:3;"/>
            <polygon fill="#0000FF"
                     points="770.25,1078.0002,757.1875,1071.0994,762.7672,1077.4921,756.3746,1083.0719,770.25,1078.0002"
                     style="stroke:#0000FF;stroke-width:3;"/>
            <text fill="#000000" font-family="'&#24494;&#36719;&#38597;&#40657;'" font-size="30" lengthAdjust="spacing"
                  textLength="119.9999" x="10.5" y="639.0919">&#22235;&#39118;&#36830;&#25171;
            </text>
            <text fill="#000000" font-family="'&#24494;&#36719;&#38597;&#40657;'" font-size="30" lengthAdjust="spacing"
                  textLength="119.9999" x="10.5" y="674.0138">&#22235;&#26464;&#25955;&#20102;
            </text>
            <text fill="#000000" font-family="'&#24494;&#36719;&#38597;&#40657;'" font-size="30" lengthAdjust="spacing"
                  textLength="119.9999" x="10.5" y="708.9356">&#22235;&#23478;&#31435;&#30452;
            </text>
            <text fill="#000000" font-family="'&#24494;&#36719;&#38597;&#40657;'" font-size="30" lengthAdjust="spacing"
                  textLength="60" x="40.5" y="743.8575">&#33618;&#29260;
            </text>
        </g><!--link S002 to S022-->
        <g class="link" data-entity-1="S002" data-entity-2="S022" data-source-line="80" data-uid="lnk28"
           id="link_S002_S022">
            <path d="M1015.5,862.2252 C1015.5,897.0402 1015.5,1026.4152 1015.5,1061.5002" fill="none" id="S002-to-S022"
                  style="stroke:#0000FF;stroke-width:3;"/>
            <polygon fill="#0000FF"
                     points="1015.5,1070.5002,1021.5,1057.0002,1015.5,1063.0002,1009.5,1057.0002,1015.5,1070.5002"
                     style="stroke:#0000FF;stroke-width:3;"/>
            <text fill="#000000" font-family="'&#24494;&#36719;&#38597;&#40657;'" font-size="30" lengthAdjust="spacing"
                  textLength="119.9999" x="1017" y="953.3419">&#20061;&#31181;&#20061;&#29260;
            </text>
        </g><!--link S6 to S0-->
        <g class="link" data-entity-1="S6" data-entity-2="S0" data-source-line="83" data-uid="lnk29" id="link_S6_S0">
            <path d="M1525.065,1137.1302 C1499.475,1237.3902 1442.04,1454.9952 1381.5,1634.8002 C1376.565,1649.4552 1373.9929,1656.7125 1368.3679,1671.1725"
                  fill="none" id="S6-to-S0" style="stroke:#181818;stroke-width:1.5;stroke-dasharray:10.5,10.5;"/>
            <polygon fill="#181818"
                     points="1365.105,1679.5602,1375.5911,1669.1539,1367.824,1672.5704,1364.4075,1664.8034,1365.105,1679.5602"
                     style="stroke:#181818;stroke-width:1.5;"/>
            <text fill="#000000" font-family="'&#24494;&#36719;&#38597;&#40657;'" font-size="30" lengthAdjust="spacing"
                  textLength="119.9999" x="1449" y="1446.6469">&#36830;&#24196;&#21028;&#26029;
            </text>
        </g><!--link S023 to S0-->
        <g class="link" data-entity-1="S023" data-entity-2="S0" data-source-line="84" data-uid="lnk30"
           id="link_S023_S0">
            <path d="M1024.935,1516.7802 C1059.18,1540.2702 1171.7892,1617.5578 1254.0642,1674.0178" fill="none"
                  id="S023-to-S0" style="stroke:#181818;stroke-width:1.5;stroke-dasharray:10.5,10.5;"/>
            <polygon fill="#181818"
                     points="1261.485,1679.1102,1253.7488,1666.5244,1255.301,1674.8665,1246.9589,1676.4188,1261.485,1679.1102"
                     style="stroke:#181818;stroke-width:1.5;"/>
            <text fill="#000000" font-family="'&#24494;&#36719;&#38597;&#40657;'" font-size="30" lengthAdjust="spacing"
                  textLength="119.9999" x="1219.5" y="1592.1469">&#36830;&#24196;&#21028;&#26029;
            </text>
            <text fill="#000000" font-family="'&#24494;&#36719;&#38597;&#40657;'" font-size="30" lengthAdjust="spacing"
                  textLength="179.9999" x="1189.5" y="1627.0688">&#27969;&#23616;&#28385;&#36143;&#21028;&#26029;
            </text>
        </g><!--link S0 to *end*-->
        <g class="link" data-entity-1="S0" data-entity-2=".end." data-source-line="85" data-uid="lnk32"
           id="link_S0_.end.">
            <path d="M1342.5,1793.2302 C1342.5,1825.3302 1342.5,1854.3252 1342.5,1874.9352" fill="none" id="S0-to-*end*"
                  style="stroke:#181818;stroke-width:1.5;stroke-dasharray:10.5,10.5;"/>
            <polygon fill="#181818"
                     points="1342.5,1883.9352,1348.5,1870.4352,1342.5,1876.4352,1336.5,1870.4352,1342.5,1883.9352"
                     style="stroke:#181818;stroke-width:1.5;"/>
        </g><!--SRC=[VLLRJnH957wlNr4P7aXKXEwHQmW9IDGOGyoEBqPuQEdQeTUcc_JqH5b3WbcKEwiCAye02x89HWNTzP9XHfm_qxVv5tkggcypq-CyTAVhVDyvTRvpcIb59fXCpvYpM2QvIKEPCHLTGxb9IILOkDoDSWyKRKOof6cm_ohbLVCEUMGEgqfMcoQQYIVXGOncr3LTCyUaQO9JzezJx_nZhVYqLdcHYW578s16-PrWiIjcp9YIIV1ZZ33y8aWVcaE8srBsMTKwMtPUbDpbDRUoaC9I3cUwkhfmsoqbEsLUDmZHy6Fc861ydxV_dH_NBe-HXx_eUKtc7C5dN9sLj3YSkmRuA97KEufAE3mT3u3YX8xW3W8U70HTZDdRkgAPGqCSHCyxxhLbAU_IVLsL9pg6m5sYXtGB3-a43qBT9Iu6BaJguf5Yrdb8kW50kJ7TmZWNIEujlhDFlzLAHtMI2o3vNQAg-iDwkPsTRMVleDDUEO0No3YiNPUqxB0iqnVdTeTQIhDrrDKjUsqRE2FI254ujZ-EJH9DQ26xG9CE4-fEFErFr518rB0xJWGCF-rlF0rLSxu-WRQBz1A35iqGoUzI78zUcz-oIYUS1HBSKl8tyvpQwnD7r3o9CxprJQX8o1ZJesxjYrCOfntRIukyW4agYYrK55dht0StKNFq_iJM5qGB9pGncjWYcfWKBQb6OZgfHhtDT41oMr-oBQhNxWVxqv-iP0Ldx-znZUwDurNuSa-t_QZnbH5i5wOgNHSAR4z3ZceWrcsC0FxyZqxtpQTEvzK67u-hKyfjecMZuRY2sqObuu5km0a9QPjhFCgDVE2-9xWC85M4qBqB4v2XBEMcI333QOJQiLkfkkNg07Qs3wnosP_YdGLe6_VjAig8YTCl8BPAcaqYTGahdRdqdHLBzjFFWJzEYus4W0TmV8CW7ZD4N06xLNaPsU4aPXR1x8jcFzzeCDBT2fanBS4ADVlln2gjyDw3G7IKc-3r612e_8PbmpNs5J6872NTGuDi_QWLFeUoDDaXHN0PX4pWxxzZ1OStx3WQroliySAm0VRZDZOekt2nM3lQyAhxpd81KYmMmP7prv5LViQ-G3dt_QfR_3AkyOqGNhBH6TNIEjjpZzVfqy- -iiIYzpGq3qsfkc-N5-obVvoN9uYDt4yXa1lBnAaSUby-XhGw4ZGfGh_bT0qxfr-jytLxj-mKrgtpNNVbcpF_n3l_u1vNlCEt_bzAYZTlQW36CwbzKvSuZ3SaXJMtP83XPQOONkZWd9U1XM3N3yzVx_ZdNdNHAHtwtj3S_m00]-->
    </g>
</svg>