<svg xmlns="http://www.w3.org/2000/svg" xmlns:xlink="http://www.w3.org/1999/xlink" contentStyleType="text/css"
     data-diagram-type="STATE" height="2079px" preserveAspectRatio="none"
     style="width:1818px;height:2079px;background:#FFFFFF;" version="1.1" viewBox="0 0 1818 2079" width="1818px"
     zoomAndPan="magnify">
    <defs/>
    <g>
        <rect fill="#E0FFFF" height="112.7813" rx="18.75" ry="18.75" style="stroke:#181818;stroke-width:0.75;"
              width="225.0009" x="328.5" y="1833.7902"/>
        <text fill="#000000" font-family="'&#24494;&#36719;&#38597;&#40657;'" font-size="42" lengthAdjust="spacing"
              textLength="210.0009" x="336" y="1880.2755">&#26412;&#23567;&#23616;&#32467;&#26463;
        </text>
        <text fill="#000000" font-family="'&#24494;&#36719;&#38597;&#40657;'" font-size="42" lengthAdjust="spacing"
              textLength="168.0007" x="357.0001" y="1929.1662">&#24320;&#22987;&#32467;&#31639;
        </text>
        <rect fill="#E0FFFF" height="112.7813" rx="18.75" ry="18.75" style="stroke:#181818;stroke-width:0.75;"
              width="254.7363" x="790.635" y="352.8252"/>
        <text fill="#000000" font-family="'&#24494;&#36719;&#38597;&#40657;'" font-size="42" lengthAdjust="spacing"
              textLength="84.0004" x="876.003" y="399.3105">&#24320;&#23616;
        </text>
        <text fill="#000000" font-family="'&#24494;&#36719;&#38597;&#40657;'" font-size="42" lengthAdjust="spacing"
              textLength="239.7363" x="798.135" y="448.2012">.NewRound
        </text>
        <rect fill="#90EE90" height="112.7813" rx="18.75" ry="18.75" style="stroke:#181818;stroke-width:0.75;"
              width="261.832" x="787.08" y="557.1102"/>
        <text fill="#000000" font-family="'&#24494;&#36719;&#38597;&#40657;'" font-size="42" lengthAdjust="spacing"
              textLength="84.0004" x="875.9958" y="603.5955">&#20999;&#29260;
        </text>
        <text fill="#000000" font-family="'&#24494;&#36719;&#38597;&#40657;'" font-size="42" lengthAdjust="spacing"
              textLength="246.832" x="794.58" y="652.4862">.DiscardTile
        </text>
        <rect fill="#90EE90" height="112.7813" rx="18.75" ry="18.75" style="stroke:#181818;stroke-width:0.75;"
              width="198.7705" x="959.61" y="1112.9502"/>
        <text fill="#000000" font-family="'&#24494;&#36719;&#38597;&#40657;'" font-size="42" lengthAdjust="spacing"
              textLength="84.0004" x="1016.9951" y="1159.4355">&#25720;&#29260;
        </text>
        <text fill="#000000" font-family="'&#24494;&#36719;&#38597;&#40657;'" font-size="42" lengthAdjust="spacing"
              textLength="183.7705" x="967.11" y="1208.3262">.DealTile
        </text>
        <rect fill="#FF8C00" height="112.7813" rx="18.75" ry="18.75" style="stroke:#181818;stroke-width:0.75;"
              width="311.9736" x="682.515" y="797.3802"/>
        <text fill="#000000" font-family="'&#24494;&#36719;&#38597;&#40657;'" font-size="42" lengthAdjust="spacing"
              textLength="196.3015" x="740.3511" y="843.8655">&#21507;/&#30896;/&#26126;&#26464;
        </text>
        <text fill="#000000" font-family="'&#24494;&#36719;&#38597;&#40657;'" font-size="42" lengthAdjust="spacing"
              textLength="296.9736" x="690.015" y="892.7562">.ChiPengGang
        </text>
        <rect fill="#FFFF00" height="112.7813" rx="18.75" ry="18.75" style="stroke:#181818;stroke-width:0.75;"
              width="388.8779" x="585.555" y="1353.2352"/>
        <text fill="#000000" font-family="'&#24494;&#36719;&#38597;&#40657;'" font-size="42" lengthAdjust="spacing"
              textLength="182.1511" x="688.9184" y="1399.7205">&#26263;&#26464;/&#21152;&#26464;
        </text>
        <text fill="#000000" font-family="'&#24494;&#36719;&#38597;&#40657;'" font-size="42" lengthAdjust="spacing"
              textLength="373.8779" x="593.055" y="1448.6112">.AnGangAddGang
        </text>
        <rect fill="#F08080" height="112.7813" rx="18.75" ry="18.75" style="stroke:#181818;stroke-width:0.75;"
              width="124.0605" x="1131.975" y="1593.5052"/>
        <text fill="#000000" font-family="'&#24494;&#36719;&#38597;&#40657;'" font-size="42" lengthAdjust="spacing"
              textLength="84.0004" x="1152.0051" y="1639.9905">&#21644;&#29260;
        </text>
        <text fill="#000000" font-family="'&#24494;&#36719;&#38597;&#40657;'" font-size="42" lengthAdjust="spacing"
              textLength="109.0605" x="1139.475" y="1688.8812">.Hule
        </text>
        <rect fill="#ADD8E6" height="112.7813" rx="18.75" ry="18.75" style="stroke:#181818;stroke-width:0.75;"
              width="183.0007" x="349.5" y="1353.2352"/>
        <text fill="#000000" font-family="'&#24494;&#36719;&#38597;&#40657;'" font-size="42" lengthAdjust="spacing"
              textLength="168.0007" x="357" y="1399.7205">&#36884;&#20013;&#27969;&#23616;
        </text>
        <text fill="#000000" font-family="'&#24494;&#36719;&#38597;&#40657;'" font-size="42" lengthAdjust="spacing"
              textLength="114.0439" x="383.9784" y="1448.6112">.LiuJu
        </text>
        <rect fill="#ADD8E6" height="112.7813" rx="18.75" ry="18.75" style="stroke:#181818;stroke-width:0.75;"
              width="183.0007" x="106.5" y="955.1652"/>
        <text fill="#000000" font-family="'&#24494;&#36719;&#38597;&#40657;'" font-size="42" lengthAdjust="spacing"
              textLength="168.0007" x="114" y="1001.6505">&#33618;&#29260;&#27969;&#23616;
        </text>
        <text fill="#000000" font-family="'&#24494;&#36719;&#38597;&#40657;'" font-size="42" lengthAdjust="spacing"
              textLength="145.2979" x="125.3514" y="1050.5412">.NoTile
        </text>
        <rect fill="#FFFF00" height="112.7813" rx="18.75" ry="18.75" style="stroke:#181818;stroke-width:0.75;"
              width="149.2236" x="1233.39" y="1353.2352"/>
        <text fill="#000000" font-family="'&#24494;&#36719;&#38597;&#40657;'" font-size="42" lengthAdjust="spacing"
              textLength="84.0004" x="1266.0016" y="1399.7205">&#25300;&#21271;
        </text>
        <text fill="#000000" font-family="'&#24494;&#36719;&#38597;&#40657;'" font-size="42" lengthAdjust="spacing"
              textLength="134.2236" x="1240.89" y="1448.6112">.BaBei
        </text>
        <g class="entity" data-entity=".........." data-source-line="88" data-uid="ent0012" id="entity_..........">
            <rect fill="#F1F1F1" height="245.5313" rx="3.75" ry="3.75" style="stroke:#181818;stroke-width:0.75;"
                  width="320.9998" x="998.25" y="10.8252"/>
            <text fill="#000000" font-family="'&#24494;&#36719;&#38597;&#40657;'" font-size="30" lengthAdjust="spacing"
                  textLength="299.9998" x="1008.75" y="41.6719">&#27573;&#20301;&#22330;&#25805;&#20316;&#29366;&#24577;&#36716;&#31227;&#34920;
            </text>
            <line style="stroke:#181818;stroke-width:1.5;" x1="1073.25" x2="1073.25" y1="51.7471" y2="256.3564"/>
            <line style="stroke:#181818;stroke-width:1.5;" x1="998.25" x2="1319.2498" y1="51.7471" y2="51.7471"/>
            <text fill="#000000" font-family="'&#24494;&#36719;&#38597;&#40657;'" font-size="30" lengthAdjust="spacing"
                  textLength="60" x="1005.75" y="82.5938">&#32511;&#32447;
            </text>
            <text fill="#000000" font-family="'&#24494;&#36719;&#38597;&#40657;'" font-size="30" lengthAdjust="spacing"
                  textLength="209.9998" x="1080.75" y="82.5938">&#26080;&#20154;&#40483;&#29260;&#30340;&#27969;&#31243;
            </text>
            <line style="stroke:#181818;stroke-width:1.5;" x1="998.25" x2="1319.2498" y1="92.6689" y2="92.6689"/>
            <text fill="#000000" font-family="'&#24494;&#36719;&#38597;&#40657;'" font-size="30" lengthAdjust="spacing"
                  textLength="60" x="1005.75" y="123.5156">&#40657;&#32447;
            </text>
            <text fill="#000000" font-family="'&#24494;&#36719;&#38597;&#40657;'" font-size="30" lengthAdjust="spacing"
                  textLength="179.9999" x="1080.75" y="123.5156">&#40483;&#29260;&#30456;&#20851;&#27969;&#31243;
            </text>
            <line style="stroke:#181818;stroke-width:1.5;" x1="998.25" x2="1319.2498" y1="133.5908" y2="133.5908"/>
            <text fill="#000000" font-family="'&#24494;&#36719;&#38597;&#40657;'" font-size="30" lengthAdjust="spacing"
                  textLength="60" x="1005.75" y="164.4375">&#32418;&#32447;
            </text>
            <text fill="#000000" font-family="'&#24494;&#36719;&#38597;&#40657;'" font-size="30" lengthAdjust="spacing"
                  textLength="60" x="1080.75" y="164.4375">&#21644;&#29260;
            </text>
            <line style="stroke:#181818;stroke-width:1.5;" x1="998.25" x2="1319.2498" y1="174.5127" y2="174.5127"/>
            <text fill="#000000" font-family="'&#24494;&#36719;&#38597;&#40657;'" font-size="30" lengthAdjust="spacing"
                  textLength="60" x="1005.75" y="205.3594">&#34013;&#32447;
            </text>
            <text fill="#000000" font-family="'&#24494;&#36719;&#38597;&#40657;'" font-size="30" lengthAdjust="spacing"
                  textLength="60" x="1080.75" y="205.3594">&#27969;&#23616;
            </text>
            <line style="stroke:#181818;stroke-width:1.5;" x1="998.25" x2="1319.2498" y1="215.4346" y2="215.4346"/>
            <text fill="#000000" font-family="'&#24494;&#36719;&#38597;&#40657;'" font-size="30" lengthAdjust="spacing"
                  textLength="60" x="1005.75" y="246.2813">&#34394;&#32447;
            </text>
            <text fill="#000000" font-family="'&#24494;&#36719;&#38597;&#40657;'" font-size="30" lengthAdjust="spacing"
                  textLength="119.9999" x="1080.75" y="246.2813">&#36807;&#28193;&#27969;&#31243;
            </text>
        </g>
        <ellipse cx="918" cy="133.0752" fill="#222222" rx="15" ry="15" style="stroke:#222222;stroke-width:1.5;"/>
        <ellipse cx="441" cy="2054.5752" fill="none" rx="16.5" ry="16.5" style="stroke:#222222;stroke-width:1.5;"/>
        <ellipse cx="441" cy="2054.5752" fill="#222222" rx="9" ry="9"
                 style="stroke:#222222;stroke-width:1.5;"/><!--link *start* to S1-->
        <g class="link" data-entity-1=".start." data-entity-2="S1" data-source-line="48" data-uid="lnk3"
           id="link_.start._S1">
            <path d="M918,148.4952 C918,185.4552 918,278.6352 918,343.1202" fill="none" id="*start*-to-S1"
                  style="stroke:#181818;stroke-width:1.5;stroke-dasharray:10.5,10.5;"/>
            <polygon fill="#181818" points="918,352.1202,924,338.6202,918,344.6202,912,338.6202,918,352.1202"
                     style="stroke:#181818;stroke-width:1.5;"/>
        </g><!--link S1 to S2-->
        <g class="link" data-entity-1="S1" data-entity-2="S2" data-source-line="51" data-uid="lnk4" id="link_S1_S2">
            <path d="M918,466.2552 C918,494.4102 918,519.5052 918,547.6452" fill="none" id="S1-to-S2"
                  style="stroke:#008000;stroke-width:3;"/>
            <polygon fill="#008000" points="918,556.6452,924,543.1452,918,549.1452,912,543.1452,918,556.6452"
                     style="stroke:#008000;stroke-width:3;"/>
        </g><!--link S2 to S3-->
        <g class="link" data-entity-1="S2" data-entity-2="S3" data-source-line="52" data-uid="lnk5" id="link_S2_S3">
            <path d="M960.885,670.4352 C972.585,683.7102 983.91,698.7702 991.5,714.8802 C1053.6,846.7002 1047.8451,1014.7916 1049.4201,1103.4266"
                  fill="none" id="S2-to-S3" style="stroke:#008000;stroke-width:3;"/>
            <polygon fill="#008000"
                     points="1049.58,1112.4252,1055.3392,1098.8207,1049.4467,1104.9264,1043.3411,1099.0339,1049.58,1112.4252"
                     style="stroke:#008000;stroke-width:3;"/>
        </g><!--link S3 to S2-->
        <g class="link" data-entity-1="S3" data-entity-2="S2" data-source-line="53" data-uid="lnk6" id="link_S3_S2">
            <path d="M1082.43,1112.4252 C1100.505,1023.7902 1106.1,846.7002 1044,714.8802 C1036.41,698.7702 1031.3609,690.161 1018.4459,676.886"
                  fill="none" id="S3-to-S2" style="stroke:#008000;stroke-width:3;"/>
            <polygon fill="#008000"
                     points="1012.17,670.4352,1017.2833,684.2954,1017.3999,675.8109,1025.8844,675.9275,1012.17,670.4352"
                     style="stroke:#008000;stroke-width:3;"/>
        </g><!--link S1 to S5-->
        <g class="link" data-entity-1="S1" data-entity-2="S5" data-source-line="56" data-uid="lnk7" id="link_S1_S5">
            <path d="M808.83,466.2402 C698.025,529.4352 532.995,644.0952 462,797.3802 C405.885,918.5502 387.675,1150.0902 513,1308.2352 C532.065,1332.2802 549.5045,1346.5016 577.1795,1360.3766"
                  fill="none" id="S1-to-S5" style="stroke:#181818;stroke-width:3;"/>
            <polygon fill="#181818"
                     points="585.225,1364.4102,575.8459,1352.9961,578.5204,1361.0488,570.4677,1363.7234,585.225,1364.4102"
                     style="stroke:#181818;stroke-width:3;"/>
            <text fill="#000000" font-family="'&#24494;&#36719;&#38597;&#40657;'" font-size="30" lengthAdjust="spacing"
                  textLength="119.9999" x="463.5" y="864.3769">&#33258;&#23478;&#40483;&#29260;
            </text>
        </g><!--link S1 to S9-->
        <g class="link" data-entity-1="S1" data-entity-2="S9" data-source-line="57" data-uid="lnk8" id="link_S1_S9">
            <path d="M1046.01,425.5152 C1229.4,450.3552 1545,508.1802 1545,611.9952 C1545,611.9952 1545,611.9952 1545,1170.8352 C1545,1264.0002 1460.2691,1328.9866 1390.8341,1367.9416"
                  fill="none" id="S1-to-S9" style="stroke:#181818;stroke-width:3;"/>
            <polygon fill="#181818"
                     points="1382.985,1372.3452,1397.6944,1370.9726,1389.5259,1368.6756,1391.823,1360.5071,1382.985,1372.3452"
                     style="stroke:#181818;stroke-width:3;"/>
            <text fill="#000000" font-family="'&#24494;&#36719;&#38597;&#40657;'" font-size="30" lengthAdjust="spacing"
                  textLength="119.9999" x="1546.5" y="864.3769">&#19977;&#40635;&#25300;&#21271;
            </text>
        </g><!--link S2 to S4-->
        <g class="link" data-entity-1="S2" data-entity-2="S4" data-source-line="59" data-uid="lnk9" id="link_S2_S4">
            <path d="M899.355,670.6302 C886.605,708.7152 872.6202,750.4618 859.8852,788.4568" fill="none" id="S2-to-S4"
                  style="stroke:#181818;stroke-width:3;"/>
            <polygon fill="#181818"
                     points="857.025,796.9902,867.0042,786.0969,859.4085,789.879,855.6263,782.2833,857.025,796.9902"
                     style="stroke:#181818;stroke-width:3;"/>
            <text fill="#000000" font-family="'&#24494;&#36719;&#38597;&#40657;'" font-size="30" lengthAdjust="spacing"
                  textLength="119.9999" x="885" y="744.2269">&#20182;&#23478;&#40483;&#29260;
            </text>
        </g><!--link S4 to S2-->
        <g class="link" data-entity-1="S4" data-entity-2="S2" data-source-line="60" data-uid="lnk10" id="link_S4_S2">
            <path d="M778.695,796.9902 C759.015,772.0002 745.56,742.0452 760.5,714.8802 C770.025,697.5852 776.885,688.437 792.575,676.032"
                  fill="none" id="S4-to-S2" style="stroke:#181818;stroke-width:3;"/>
            <polygon fill="#181818"
                     points="799.635,670.4502,785.3238,674.1163,793.7517,675.1017,792.7663,683.5296,799.635,670.4502"
                     style="stroke:#181818;stroke-width:3;"/>
            <text fill="#000000" font-family="'&#24494;&#36719;&#38597;&#40657;'" font-size="30" lengthAdjust="spacing"
                  textLength="100.1074" x="762" y="744.2269">&#21507;/&#30896;&#21518;
            </text>
        </g><!--link S4 to S3-->
        <g class="link" data-entity-1="S4" data-entity-2="S3" data-source-line="61" data-uid="lnk11" id="link_S4_S3">
            <path d="M848.055,910.4952 C858.165,956.3352 877.77,1021.3452 913.5,1067.9502 C926.265,1084.6002 935.4421,1094.0791 952.5421,1106.9641"
                  fill="none" id="S4-to-S3" style="stroke:#181818;stroke-width:3;"/>
            <polygon fill="#181818"
                     points="959.73,1112.3802,952.5589,1099.4641,953.7401,1107.8668,945.3374,1109.0479,959.73,1112.3802"
                     style="stroke:#181818;stroke-width:3;"/>
            <text fill="#000000" font-family="'&#24494;&#36719;&#38597;&#40657;'" font-size="30" lengthAdjust="spacing"
                  textLength="89.9999" x="930" y="1004.9119">&#26126;&#26464;&#21518;
            </text>
            <text fill="#000000" font-family="'&#24494;&#36719;&#38597;&#40657;'" font-size="30" lengthAdjust="spacing"
                  textLength="119.9999" x="915" y="1039.8338">&#23725;&#19978;&#25720;&#29260;
            </text>
        </g><!--link S3 to S5-->
        <g class="link" data-entity-1="S3" data-entity-2="S5" data-source-line="63" data-uid="lnk12" id="link_S3_S5">
            <path d="M959.04,1186.5102 C868.935,1202.9352 746.22,1231.7502 717,1270.7352 C698.43,1295.5002 705.2295,1319.2273 723.4995,1345.5973"
                  fill="none" id="S3-to-S5" style="stroke:#181818;stroke-width:3;"/>
            <polygon fill="#181818"
                     points="728.625,1352.9952,725.8687,1338.4813,724.3537,1346.8303,716.0048,1345.3153,728.625,1352.9952"
                     style="stroke:#181818;stroke-width:3;"/>
            <text fill="#000000" font-family="'&#24494;&#36719;&#38597;&#40657;'" font-size="30" lengthAdjust="spacing"
                  textLength="119.9999" x="718.5" y="1300.0819">&#33258;&#23478;&#40483;&#29260;
            </text>
        </g><!--link S5 to S3-->
        <g class="link" data-entity-1="S5" data-entity-2="S3" data-source-line="64" data-uid="lnk13" id="link_S5_S3">
            <path d="M821.025,1353.1302 C842.415,1326.5052 870.015,1295.1102 898.5,1270.7352 C917.07,1254.8352 930.8518,1244.5852 951.8068,1231.1602"
                  fill="none" id="S5-to-S3" style="stroke:#181818;stroke-width:3;"/>
            <polygon fill="#181818"
                     points="959.385,1226.3052,944.7811,1228.5356,953.0699,1230.351,951.2544,1238.6398,959.385,1226.3052"
                     style="stroke:#181818;stroke-width:3;"/>
            <text fill="#000000" font-family="'&#24494;&#36719;&#38597;&#40657;'" font-size="30" lengthAdjust="spacing"
                  textLength="119.9999" x="900" y="1300.0819">&#23725;&#19978;&#25720;&#29260;
            </text>
        </g><!--link S3 to S9-->
        <g class="link" data-entity-1="S3" data-entity-2="S9" data-source-line="66" data-uid="lnk14" id="link_S3_S9">
            <path d="M1159.11,1198.5852 C1198.305,1214.0202 1240.59,1237.1202 1269,1270.7352 C1288.365,1293.6402 1296.5504,1316.7326 1301.4704,1344.0626"
                  fill="none" id="S3-to-S9" style="stroke:#181818;stroke-width:3;"/>
            <polygon fill="#181818"
                     points="1303.065,1352.9202,1306.5782,1338.5707,1301.7362,1345.5388,1294.7681,1340.6968,1303.065,1352.9202"
                     style="stroke:#181818;stroke-width:3;"/>
            <text fill="#000000" font-family="'&#24494;&#36719;&#38597;&#40657;'" font-size="30" lengthAdjust="spacing"
                  textLength="119.9999" x="1291.5" y="1300.0819">&#19977;&#40635;&#25300;&#21271;
            </text>
        </g><!--link S9 to S3-->
        <g class="link" data-entity-1="S9" data-entity-2="S3" data-source-line="67" data-uid="lnk15" id="link_S9_S3">
            <path d="M1232.76,1375.7652 C1200.06,1359.0402 1163.04,1336.2402 1135.5,1308.2352 C1112.535,1284.8652 1098.1546,1261.3534 1085.2546,1234.3084"
                  fill="none" id="S9-to-S3" style="stroke:#181818;stroke-width:3;"/>
            <polygon fill="#181818"
                     points="1081.38,1226.1852,1081.7765,1240.9532,1084.6089,1232.9546,1092.6075,1235.787,1081.38,1226.1852"
                     style="stroke:#181818;stroke-width:3;"/>
            <text fill="#000000" font-family="'&#24494;&#36719;&#38597;&#40657;'" font-size="30" lengthAdjust="spacing"
                  textLength="119.9999" x="1137" y="1300.0819">&#23725;&#19978;&#25720;&#29260;
            </text>
        </g><!--link S1 to S6-->
        <g class="link" data-entity-1="S1" data-entity-2="S6" data-source-line="70" data-uid="lnk16" id="link_S1_S6">
            <path d="M1046.01,415.4652 C1278.435,427.6002 1746,469.7052 1746,611.9952 C1746,611.9952 1746,611.9952 1746,1411.1202 C1746,1622.3502 1409.6096,1647.7904 1265.2496,1649.2304"
                  fill="none" id="S1-to-S6" style="stroke:#FF0000;stroke-width:3;"/>
            <polygon fill="#FF0000"
                     points="1256.25,1649.3202,1269.8092,1655.1852,1263.7496,1649.2454,1269.6895,1643.1858,1256.25,1649.3202"
                     style="stroke:#FF0000;stroke-width:3;"/>
            <text fill="#000000" font-family="'&#24494;&#36719;&#38597;&#40657;'" font-size="30" lengthAdjust="spacing"
                  textLength="60" x="1747.5" y="1022.1619">&#22825;&#21644;
            </text>
        </g><!--link S2 to S6-->
        <g class="link" data-entity-1="S2" data-entity-2="S6" data-source-line="71" data-uid="lnk17" id="link_S2_S6">
            <path d="M1030.365,670.4952 C1050.705,683.4252 1070.745,698.3202 1087.5,714.8802 C1292.76,917.8602 1345.98,992.6652 1423.5,1270.7352 C1436.97,1319.0502 1443.84,1388.1402 1408.5,1466.0052 C1377.885,1533.4452 1316.1191,1580.3292 1264.4741,1611.1392"
                  fill="none" id="S2-to-S6" style="stroke:#FF0000;stroke-width:3;"/>
            <polygon fill="#FF0000"
                     points="1256.745,1615.7502,1271.4126,1613.9865,1263.1859,1611.9077,1265.2647,1603.681,1256.745,1615.7502"
                     style="stroke:#FF0000;stroke-width:3;"/>
            <text fill="#000000" font-family="'&#24494;&#36719;&#38597;&#40657;'" font-size="30" lengthAdjust="spacing"
                  textLength="60" x="1411.5" y="1179.9319">&#25918;&#38131;
            </text>
        </g><!--link S3 to S6-->
        <g class="link" data-entity-1="S3" data-entity-2="S6" data-source-line="72" data-uid="lnk18" id="link_S3_S6">
            <path d="M1072.41,1226.4552 C1078.59,1251.5052 1086.18,1281.4302 1093.5,1308.2352 C1121.085,1409.2152 1153.7119,1517.4905 1174.2919,1584.6155"
                  fill="none" id="S3-to-S6" style="stroke:#FF0000;stroke-width:3;"/>
            <polygon fill="#FF0000"
                     points="1176.93,1593.2202,1178.7093,1578.5544,1174.7316,1586.0496,1167.2364,1582.0719,1176.93,1593.2202"
                     style="stroke:#FF0000;stroke-width:3;"/>
            <text fill="#000000" font-family="'&#24494;&#36719;&#38597;&#40657;'" font-size="30" lengthAdjust="spacing"
                  textLength="60" x="1138.5" y="1420.2169">&#33258;&#25720;
            </text>
        </g><!--link S5 to S6-->
        <g class="link" data-entity-1="S5" data-entity-2="S6" data-source-line="73" data-uid="lnk19" id="link_S5_S6">
            <path d="M854.325,1466.7102 C891.06,1493.0202 936.6,1523.9802 979.5,1548.5052 C1029.075,1576.8552 1079.7743,1600.3095 1123.3343,1619.0745"
                  fill="none" id="S5-to-S6" style="stroke:#FF0000;stroke-width:3;"/>
            <polygon fill="#FF0000"
                     points="1131.6,1622.6352,1121.5753,1611.7837,1124.7119,1619.6679,1116.8277,1622.8046,1131.6,1622.6352"
                     style="stroke:#FF0000;stroke-width:3;"/>
            <text fill="#000000" font-family="'&#24494;&#36719;&#38597;&#40657;'" font-size="30" lengthAdjust="spacing"
                  textLength="60" x="981" y="1540.3519">&#26538;&#26464;
            </text>
        </g><!--link S9 to S6-->
        <g class="link" data-entity-1="S9" data-entity-2="S6" data-source-line="74" data-uid="lnk20" id="link_S9_S6">
            <path d="M1281.27,1466.7552 C1262.97,1504.8402 1242.7176,1547.0079 1224.4626,1585.0029" fill="none"
                  id="S9-to-S6" style="stroke:#FF0000;stroke-width:3;"/>
            <polygon fill="#FF0000"
                     points="1220.565,1593.1152,1231.8196,1583.5452,1223.813,1586.355,1221.0032,1578.3484,1220.565,1593.1152"
                     style="stroke:#FF0000;stroke-width:3;"/>
            <text fill="#000000" font-family="'&#24494;&#36719;&#38597;&#40657;'" font-size="30" lengthAdjust="spacing"
                  textLength="60" x="1258.5" y="1540.3519">&#26538;&#21271;
            </text>
        </g><!--link S2 to S8-->
        <g class="link" data-entity-1="S2" data-entity-2="S8" data-source-line="77" data-uid="lnk21" id="link_S2_S8">
            <path d="M786.405,625.4802 C657.765,642.1602 463.395,685.4052 337.5,797.3802 C287.685,841.7052 252.2253,899.7363 228.1353,946.4463"
                  fill="none" id="S2-to-S8" style="stroke:#0000FF;stroke-width:3;"/>
            <polygon fill="#0000FF"
                     points="224.01,954.4452,235.5305,945.1971,227.4477,947.7795,224.8654,939.6967,224.01,954.4452"
                     style="stroke:#0000FF;stroke-width:3;"/>
            <text fill="#000000" font-family="'&#24494;&#36719;&#38597;&#40657;'" font-size="30" lengthAdjust="spacing"
                  textLength="60" x="456" y="744.2269">&#33618;&#29260;
            </text>
        </g><!--link S2 to S7-->
        <g class="link" data-entity-1="S2" data-entity-2="S7" data-source-line="78" data-uid="lnk22" id="link_S2_S7">
            <path d="M800.325,670.5852 C748.53,700.9452 691.695,743.4552 657,797.3802 C538.05,982.3152 476.6404,1232.1633 453.3904,1344.0933"
                  fill="none" id="S2-to-S7" style="stroke:#0000FF;stroke-width:3;"/>
            <polygon fill="#0000FF"
                     points="451.56,1352.9052,460.1802,1340.9076,453.0853,1345.5619,448.431,1338.4671,451.56,1352.9052"
                     style="stroke:#0000FF;stroke-width:3;"/>
            <text fill="#000000" font-family="'&#24494;&#36719;&#38597;&#40657;'" font-size="30" lengthAdjust="spacing"
                  textLength="119.9999" x="574.5" y="987.6619">&#22235;&#39118;&#36830;&#25171;
            </text>
            <text fill="#000000" font-family="'&#24494;&#36719;&#38597;&#40657;'" font-size="30" lengthAdjust="spacing"
                  textLength="119.9999" x="574.5" y="1022.5838">&#22235;&#26464;&#25955;&#20102;
            </text>
            <text fill="#000000" font-family="'&#24494;&#36719;&#38597;&#40657;'" font-size="30" lengthAdjust="spacing"
                  textLength="119.9999" x="574.5" y="1057.5056">&#22235;&#23478;&#31435;&#30452;
            </text>
        </g><!--link S1 to S7-->
        <g class="link" data-entity-1="S1" data-entity-2="S7" data-source-line="79" data-uid="lnk23" id="link_S1_S7">
            <path d="M790.17,412.6452 C539.805,419.8902 9,453.8952 9,611.9952 C9,611.9952 9,611.9952 9,1170.8352 C9,1209.2952 213.7759,1307.036 340.6459,1364.051"
                  fill="none" id="S1-to-S7" style="stroke:#0000FF;stroke-width:3;"/>
            <polygon fill="#0000FF"
                     points="348.855,1367.7402,339.0007,1356.7337,342.014,1364.6659,334.0818,1367.6792,348.855,1367.7402"
                     style="stroke:#0000FF;stroke-width:3;"/>
            <text fill="#000000" font-family="'&#24494;&#36719;&#38597;&#40657;'" font-size="30" lengthAdjust="spacing"
                  textLength="119.9999" x="10.5" y="864.3769">&#20061;&#31181;&#20061;&#29260;
            </text>
        </g><!--link S3 to S7-->
        <g class="link" data-entity-1="S3" data-entity-2="S7" data-source-line="80" data-uid="lnk24" id="link_S3_S7">
            <path d="M958.92,1174.4052 C856.62,1181.8152 695.925,1204.1502 574.5,1270.7352 C538.05,1290.7152 511.1174,1317.0185 487.2074,1345.7885"
                  fill="none" id="S3-to-S7" style="stroke:#0000FF;stroke-width:3;"/>
            <polygon fill="#0000FF"
                     points="481.455,1352.7102,494.6981,1346.1626,486.2487,1346.9421,485.4692,1338.4927,481.455,1352.7102"
                     style="stroke:#0000FF;stroke-width:3;"/>
            <text fill="#000000" font-family="'&#24494;&#36719;&#38597;&#40657;'" font-size="30" lengthAdjust="spacing"
                  textLength="119.9999" x="576" y="1300.0819">&#20061;&#31181;&#20061;&#29260;
            </text>
        </g><!--link S6 to S0-->
        <g class="link" data-entity-1="S6" data-entity-2="S0" data-source-line="83" data-uid="lnk25" id="link_S6_S0">
            <path d="M1131.735,1671.0252 C1004.895,1711.0002 723.5139,1799.6601 562.5339,1850.3901" fill="none"
                  id="S6-to-S0" style="stroke:#181818;stroke-width:1.5;stroke-dasharray:10.5,10.5;"/>
            <polygon fill="#181818"
                     points="553.95,1853.0952,568.6292,1854.7602,561.1032,1850.841,565.0224,1843.315,553.95,1853.0952"
                     style="stroke:#181818;stroke-width:1.5;"/>
            <text fill="#000000" font-family="'&#24494;&#36719;&#38597;&#40657;'" font-size="30" lengthAdjust="spacing"
                  textLength="119.9999" x="865.5" y="1780.6369">&#36830;&#24196;&#21028;&#26029;
            </text>
        </g><!--link S8 to S0-->
        <g class="link" data-entity-1="S8" data-entity-2="S0" data-source-line="84" data-uid="lnk26" id="link_S8_S0">
            <path d="M170.985,1068.4602 C146.925,1122.9702 115.5,1209.2502 115.5,1287.9852 C115.5,1287.9852 115.5,1287.9852 115.5,1651.4052 C115.5,1759.4502 225.5911,1820.4543 319.5961,1854.2643"
                  fill="none" id="S8-to-S0" style="stroke:#181818;stroke-width:1.5;stroke-dasharray:10.5,10.5;"/>
            <polygon fill="#181818"
                     points="328.065,1857.3102,317.3923,1847.0954,321.0076,1854.7719,313.331,1858.3872,328.065,1857.3102"
                     style="stroke:#181818;stroke-width:1.5;"/>
            <text fill="#000000" font-family="'&#24494;&#36719;&#38597;&#40657;'" font-size="30" lengthAdjust="spacing"
                  textLength="119.9999" x="147" y="1402.9669">&#36830;&#24196;&#21028;&#26029;
            </text>
            <text fill="#000000" font-family="'&#24494;&#36719;&#38597;&#40657;'" font-size="30" lengthAdjust="spacing"
                  textLength="179.9999" x="117" y="1437.8888">&#27969;&#23616;&#28385;&#36143;&#21028;&#26029;
            </text>
        </g><!--link S7 to S0-->
        <g class="link" data-entity-1="S7" data-entity-2="S0" data-source-line="85" data-uid="lnk27" id="link_S7_S0">
            <path d="M441,1466.3652 C441,1558.1952 441,1732.2102 441,1824.1902" fill="none" id="S7-to-S0"
                  style="stroke:#181818;stroke-width:1.5;stroke-dasharray:10.5,10.5;"/>
            <polygon fill="#181818" points="441,1833.1902,447,1819.6902,441,1825.6902,435,1819.6902,441,1833.1902"
                     style="stroke:#181818;stroke-width:1.5;"/>
            <text fill="#000000" font-family="'&#24494;&#36719;&#38597;&#40657;'" font-size="30" lengthAdjust="spacing"
                  textLength="60" x="442.5" y="1660.5019">&#36830;&#24196;
            </text>
        </g><!--link S0 to *end*-->
        <g class="link" data-entity-1="S0" data-entity-2=".end." data-source-line="86" data-uid="lnk29"
           id="link_S0_.end.">
            <path d="M441,1947.2202 C441,1979.3202 441,2008.3152 441,2028.9252" fill="none" id="S0-to-*end*"
                  style="stroke:#181818;stroke-width:1.5;stroke-dasharray:10.5,10.5;"/>
            <polygon fill="#181818" points="441,2037.9252,447,2024.4252,441,2030.4252,435,2024.4252,441,2037.9252"
                     style="stroke:#181818;stroke-width:1.5;"/>
        </g><!--SRC=[ZPLRJnD15CVVvrDCoeE9aVkT1nCkYZ58362YWWzBTomZoovfjo8IaX9HxeWMGIaWjmIyW1VGr5Rib-dERh-5PtQcsq8hiG_DpFn_PyvrsW6g4ao6XirHh9AGFqY7JMheAEHND88hosfHQ93gmqfG6GBzeHBMp1xon6pMQ40V8hg9_V15WeNKTKCtEvKXWdtMdoFdz4iczZoJVENB0zjoO3TzId1LHPxORIecmMCOOVZaa0OqZYxXJZBIPOHr5PPj528DgZrK8tn754qkMmVeRQ87sXKz0BjcdI-QLLNkRuHTg8E6RuRvXOPh1QiMfOLGvDe3IUHbtKGZVhDT6KRIzcwOt0VW5bNF7bo3eE24U-aY8SZkp4QgNUHnBiuEmpyebtVqnuHgsKWWoLR8Z2-lKqrh7b6eIVK0bqC8YVhusFfdw-jBwrl4JaRPnli-tVeTiVRdO6SVhVgm4iBT5RYaWmO6pDPHHS-QSUfRf4ylorPIe9N5qEafUsOUqBnA2xfAqkr1GZoSlOfBNAOesEfYhBNqhDpU-LhEtYwoZIsmoUkPCAl19MrASD08ybvuBjPM0I-tPhU4rPdU2hjQN7AFQ9enuhbwFI_2uhqIJ5qsMRXTotAPo78wViX-J8ZokFCXy7g9jsXXBn9duJNSwj5YYWJUK0HdSylM_2g0xf09hj6B5FLUVe1BUrKbD43K1wLNeHsyztOoPITIJPYjRgKJYKny5ppQQvFWr3wOGz2oqjwI0A_gbNv34tPL27fJU5oDe0t5QF02JzFr8k-FnQtdn_akFBeMDs5dwgDrz5EWv-H6aDFncKmYAP958XHFh-5wSYNFl2PVhW9PJeMrj7XEh0PHZ0feCEdV3zFnMJ5lIAHsGPIrvs-woBmW2pYvq1pQbDXn2oW6JVObIDHSdUkurTu706Hx2bIs_2SJFPPTAb0X7t0dCYbYk_aH2YC2BQgwpRY4dUY662TtQ6Ka_J2aEOC6xioTxA9oFSyZ5iliBZgfJJOJXKx4Ok2RlTbD9rwuEwYx_MdEZft8EXHUaFwrOUyly6_kfVe_8FSfJBinrvrz9XKytjIcbPYqflVOoY6232u4-dIHFKjkEoTViaRr_p92iCwNu9qYz2Xaw9WT_KYVBbZh2HPTI9-ksxC_MMJ2EVrixoUTxGCyvlvv-SGBzZN13q2nD-ox8Z3n13bM-0YpZ9WopeWvovwBhhektCoyytThyjn9JR7ujhmDZVy5]-->
    </g>
</svg>