<svg xmlns="http://www.w3.org/2000/svg" xmlns:xlink="http://www.w3.org/1999/xlink" contentStyleType="text/css" data-diagram-type="STATE" height="2962.5px" preserveAspectRatio="none" style="width:2233px;height:2962px;background:#FFFFFF;" version="1.1" viewBox="0 0 2233 2962" width="2233.5px" zoomAndPan="magnify"><defs/><g><!--cluster S000--><g class="cluster" data-entity="S000" data-source-line="10" data-uid="ent0002" id="cluster_S000"><path d="M1307.25,748.6159 L1938.75,748.6159 A18.75,18.75 0 0 1 1957.5,767.3659 L1957.5,805.0065 L1288.5,805.0065 L1288.5,767.3659 A18.75,18.75 0 0 1 1307.25,748.6159" fill="#90EE90"/><rect fill="none" height="1224.795" rx="18.75" ry="18.75" style="stroke:#181818;stroke-width:0.75;" width="669" x="1288.5" y="748.6159"/><line style="stroke:#181818;stroke-width:0.75;" x1="1288.5" x2="1957.5" y1="805.0065" y2="805.0065"/><text fill="#000000" font-family="'&#24494;&#36719;&#38597;&#40657;'" font-size="42" lengthAdjust="spacing" textLength="210.0009" x="1517.9995" y="795.1013">&#24191;&#20041;&#25720;&#29260;&#32452;</text></g><!--cluster S040--><g class="cluster" data-entity="S040" data-source-line="37" data-uid="ent0012" id="cluster_S040"><path d="M29.25,92.5459 L716.25,92.5459 A18.75,18.75 0 0 1 735,111.2959 L735,148.9365 L10.5,148.9365 L10.5,111.2959 A18.75,18.75 0 0 1 29.25,92.5459" fill="#87CEFA"/><rect fill="none" height="1640.58" rx="18.75" ry="18.75" style="stroke:#181818;stroke-width:0.75;" width="724.5" x="10.5" y="92.5459"/><line style="stroke:#181818;stroke-width:0.75;" x1="10.5" x2="735" y1="148.9365" y2="148.9365"/><text fill="#000000" font-family="'&#24494;&#36719;&#38597;&#40657;'" font-size="42" lengthAdjust="spacing" textLength="210.0009" x="267.7495" y="139.0313">&#24191;&#20041;&#20999;&#29260;&#32452;</text></g><!--cluster S050--><g class="cluster" data-entity="S050" data-source-line="69" data-uid="ent0024" id="cluster_S050"><path d="M1122.75,2200.7959 L1551.75,2200.7959 A18.75,18.75 0 0 1 1570.5,2219.5459 L1570.5,2257.1865 L1104,2257.1865 L1104,2219.5459 A18.75,18.75 0 0 1 1122.75,2200.7959" fill="#20B2AA"/><rect fill="none" height="415.785" rx="18.75" ry="18.75" style="stroke:#181818;stroke-width:0.75;" width="466.5" x="1104" y="2200.7959"/><line style="stroke:#181818;stroke-width:0.75;" x1="1104" x2="1570.5" y1="2257.1865" y2="2257.1865"/><text fill="#000000" font-family="'&#24494;&#36719;&#38597;&#40657;'" font-size="42" lengthAdjust="spacing" textLength="126.0005" x="1274.2497" y="2247.2813">&#27969;&#23616;&#32452;</text></g><rect fill="#E0FFFF" height="112.7813" rx="18.75" ry="18.75" style="stroke:#181818;stroke-width:0.75;" width="288.082" x="1475.955" y="916.6159"/><text fill="#000000" font-family="'&#24494;&#36719;&#38597;&#40657;'" font-size="42" lengthAdjust="spacing" textLength="84.0004" x="1577.9958" y="963.1013">&#24320;&#23616;</text><text fill="#000000" font-family="'&#24494;&#36719;&#38597;&#40657;'" font-size="42" lengthAdjust="spacing" textLength="273.082" x="1483.455" y="1011.9919">roundbegin()</text><rect fill="#90EE90" height="112.7813" rx="18.75" ry="18.75" style="stroke:#181818;stroke-width:0.75;" width="178.4473" x="1317.78" y="1472.4559"/><text fill="#000000" font-family="'&#24494;&#36719;&#38597;&#40657;'" font-size="42" lengthAdjust="spacing" textLength="84.0004" x="1365.0034" y="1518.9413">&#25720;&#29260;</text><text fill="#000000" font-family="'&#24494;&#36719;&#38597;&#40657;'" font-size="42" lengthAdjust="spacing" textLength="163.4473" x="1325.28" y="1567.8319">mopai()</text><rect fill="#FFB6C1" height="112.7813" rx="18.75" ry="18.75" style="stroke:#181818;stroke-width:0.75;" width="299.7726" x="1633.62" y="1314.6709"/><text fill="#000000" font-family="'&#24494;&#36719;&#38597;&#40657;'" font-size="42" lengthAdjust="spacing" textLength="284.7726" x="1641.12" y="1361.1563">&#30446;&#29577;&#20301;&#32622;(&#21487;&#36873;)</text><text fill="#000000" font-family="'&#24494;&#36719;&#38597;&#40657;'" font-size="42" lengthAdjust="spacing" textLength="230.8154" x="1668.0986" y="1410.0469">muyuseats</text><rect fill="#FFA07A" height="112.7813" rx="18.75" ry="18.75" style="stroke:#181818;stroke-width:0.75;" width="355.2861" x="1449.855" y="1156.9009"/><text fill="#000000" font-family="'&#24494;&#36719;&#38597;&#40657;'" font-size="42" lengthAdjust="spacing" textLength="126.0005" x="1564.4978" y="1203.3863">&#25442;&#19977;&#24352;</text><text fill="#000000" font-family="'&#24494;&#36719;&#38597;&#40657;'" font-size="42" lengthAdjust="spacing" textLength="340.2861" x="1457.355" y="1252.2769">huansanzhang()</text><rect fill="#F1F1F1" height="112.7813" rx="18.75" ry="18.75" style="stroke:#181818;stroke-width:0.75;" width="218.499" x="1659.255" y="1472.4559"/><text fill="#000000" font-family="'&#24494;&#36719;&#38597;&#40657;'" font-size="42" lengthAdjust="spacing" textLength="84.0004" x="1726.5043" y="1518.9413">&#23450;&#32570;</text><text fill="#000000" font-family="'&#24494;&#36719;&#38597;&#40657;'" font-size="42" lengthAdjust="spacing" textLength="203.499" x="1666.755" y="1567.8319">dingque()</text><text fill="#000000" font-family="'&#24494;&#36719;&#38597;&#40657;'" font-size="42" lengthAdjust="spacing" textLength="15.1553" x="1612.4224" y="711.7106">-</text><ellipse cx="1620" cy="748.6159" fill="#F1F1F1" rx="9" ry="9" style="stroke:#181818;stroke-width:2.25;"/><text fill="#000000" font-family="'&#24494;&#36719;&#38597;&#40657;'" font-size="42" lengthAdjust="spacing" textLength="15.1553" x="1307.9224" y="711.7106">-</text><ellipse cx="1315.5" cy="748.6159" fill="#F1F1F1" rx="9" ry="9" style="stroke:#181818;stroke-width:2.25;"/><rect fill="#555555" height="12" style="stroke:none;stroke-width:1.5;" width="120" x="1545" y="1727.1259"/><text fill="#000000" font-family="'&#24494;&#36719;&#38597;&#40657;'" font-size="42" lengthAdjust="spacing" textLength="35.1914" x="1587.4043" y="2021.3963">+</text><ellipse cx="1605" cy="1973.4109" fill="#F1F1F1" rx="9" ry="9" style="stroke:#181818;stroke-width:2.25;"/><line style="stroke:#181818;stroke-width:2.25;" x1="1611.5836" x2="1599.9164" y1="1979.9945" y2="1968.3273"/><line style="stroke:#181818;stroke-width:2.25;" x1="1611.5836" x2="1599.9164" y1="1968.3273" y2="1979.9945"/><rect fill="#87CEFA" height="112.7813" rx="18.75" ry="18.75" style="stroke:#181818;stroke-width:0.75;" width="176.0068" x="528.495" y="224.5459"/><text fill="#000000" font-family="'&#24494;&#36719;&#38597;&#40657;'" font-size="42" lengthAdjust="spacing" textLength="84.0004" x="574.4982" y="271.0313">&#20999;&#29260;</text><text fill="#000000" font-family="'&#24494;&#36719;&#38597;&#40657;'" font-size="42" lengthAdjust="spacing" textLength="161.0068" x="535.995" y="319.9219">qiepai()</text><rect fill="#FFA07A" height="112.7813" rx="18.75" ry="18.75" style="stroke:#181818;stroke-width:0.75;" width="225.0009" x="424.5" y="916.6159"/><text fill="#000000" font-family="'&#24494;&#36719;&#38597;&#40657;'" font-size="42" lengthAdjust="spacing" textLength="210.0009" x="432" y="963.1013">&#24320;&#29260;&#24182;&#25104;&#21151;</text><text fill="#000000" font-family="'&#24494;&#36719;&#38597;&#40657;'" font-size="42" lengthAdjust="spacing" textLength="160.043" x="456.979" y="1011.9919">unveil()</text><rect fill="#8FBC8F" height="112.7813" rx="18.75" ry="18.75" style="stroke:#181818;stroke-width:0.75;" width="280.8223" x="90.585" y="916.6159"/><text fill="#000000" font-family="'&#24494;&#36719;&#38597;&#40657;'" font-size="42" lengthAdjust="spacing" textLength="210.0009" x="125.9957" y="963.1013">&#24320;&#29260;&#21518;&#38145;&#23450;</text><text fill="#000000" font-family="'&#24494;&#36719;&#38597;&#40657;'" font-size="42" lengthAdjust="spacing" textLength="265.8223" x="98.085" y="1011.9919">unveil_lock()</text><rect fill="#555555" height="12" style="stroke:none;stroke-width:1.5;" width="120" x="343.5" y="515.2309"/><rect fill="#555555" height="12" style="stroke:none;stroke-width:1.5;" width="120" x="343.5" y="742.6159"/><rect fill="#555555" height="12" style="stroke:none;stroke-width:1.5;" width="120" x="568.5" y="1207.2859"/><rect fill="#555555" height="12" style="stroke:none;stroke-width:1.5;" width="120" x="171" y="1207.2859"/><rect fill="#555555" height="12" style="stroke:none;stroke-width:1.5;" width="120" x="526.5" y="1522.8559"/><text fill="#000000" font-family="'&#24494;&#36719;&#38597;&#40657;'" font-size="42" lengthAdjust="spacing" textLength="15.1553" x="700.4224" y="55.6406">-</text><ellipse cx="708" cy="92.5459" fill="#F1F1F1" rx="9" ry="9" style="stroke:#181818;stroke-width:2.25;"/><text fill="#000000" font-family="'&#24494;&#36719;&#38597;&#40657;'" font-size="42" lengthAdjust="spacing" textLength="35.1914" x="690.4043" y="1781.1113">+</text><ellipse cx="708" cy="1733.1259" fill="#F1F1F1" rx="9" ry="9" style="stroke:#181818;stroke-width:2.25;"/><line style="stroke:#181818;stroke-width:2.25;" x1="714.5836" x2="702.9164" y1="1739.7095" y2="1728.0423"/><line style="stroke:#181818;stroke-width:2.25;" x1="714.5836" x2="702.9164" y1="1728.0423" y2="1739.7095"/><text fill="#000000" font-family="'&#24494;&#36719;&#38597;&#40657;'" font-size="42" lengthAdjust="spacing" textLength="35.1914" x="619.9043" y="1781.1113">+</text><ellipse cx="637.5" cy="1733.1259" fill="#F1F1F1" rx="9" ry="9" style="stroke:#181818;stroke-width:2.25;"/><line style="stroke:#181818;stroke-width:2.25;" x1="644.0836" x2="632.4164" y1="1739.7095" y2="1728.0423"/><line style="stroke:#181818;stroke-width:2.25;" x1="644.0836" x2="632.4164" y1="1728.0423" y2="1739.7095"/><rect fill="#ADD8E6" height="112.7813" rx="18.75" ry="18.75" style="stroke:#181818;stroke-width:0.75;" width="183.0007" x="1128" y="2403.2959"/><text fill="#000000" font-family="'&#24494;&#36719;&#38597;&#40657;'" font-size="42" lengthAdjust="spacing" textLength="168.0007" x="1135.5" y="2449.7813">&#36884;&#20013;&#27969;&#23616;</text><text fill="#000000" font-family="'&#24494;&#36719;&#38597;&#40657;'" font-size="42" lengthAdjust="spacing" textLength="114.0439" x="1162.4784" y="2498.6719">.LiuJu</text><rect fill="#ADD8E6" height="112.7813" rx="18.75" ry="18.75" style="stroke:#181818;stroke-width:0.75;" width="183.0007" x="1363.5" y="2403.2959"/><text fill="#000000" font-family="'&#24494;&#36719;&#38597;&#40657;'" font-size="42" lengthAdjust="spacing" textLength="168.0007" x="1371" y="2449.7813">&#33618;&#29260;&#27969;&#23616;</text><text fill="#000000" font-family="'&#24494;&#36719;&#38597;&#40657;'" font-size="42" lengthAdjust="spacing" textLength="145.2979" x="1382.3514" y="2498.6719">.NoTile</text><text fill="#000000" font-family="'&#24494;&#36719;&#38597;&#40657;'" font-size="42" lengthAdjust="spacing" textLength="15.1553" x="1148.9224" y="2163.8906">-</text><ellipse cx="1156.5" cy="2200.7959" fill="#F1F1F1" rx="9" ry="9" style="stroke:#181818;stroke-width:2.25;"/><text fill="#000000" font-family="'&#24494;&#36719;&#38597;&#40657;'" font-size="42" lengthAdjust="spacing" textLength="15.1553" x="1352.9224" y="2163.8906">-</text><ellipse cx="1360.5" cy="2200.7959" fill="#F1F1F1" rx="9" ry="9" style="stroke:#181818;stroke-width:2.25;"/><text fill="#000000" font-family="'&#24494;&#36719;&#38597;&#40657;'" font-size="42" lengthAdjust="spacing" textLength="35.1914" x="1437.4043" y="2664.5663">+</text><ellipse cx="1455" cy="2616.5809" fill="#F1F1F1" rx="9" ry="9" style="stroke:#181818;stroke-width:2.25;"/><line style="stroke:#181818;stroke-width:2.25;" x1="1461.5836" x2="1449.9164" y1="2623.1645" y2="2611.4973"/><line style="stroke:#181818;stroke-width:2.25;" x1="1461.5836" x2="1449.9164" y1="2611.4973" y2="2623.1645"/><rect fill="#E0FFFF" height="112.7813" rx="18.75" ry="18.75" style="stroke:#181818;stroke-width:0.75;" width="225.0009" x="1470" y="2717.0809"/><text fill="#000000" font-family="'&#24494;&#36719;&#38597;&#40657;'" font-size="42" lengthAdjust="spacing" textLength="210.0009" x="1477.5" y="2763.5663">&#26412;&#23567;&#23616;&#32467;&#26463;</text><text fill="#000000" font-family="'&#24494;&#36719;&#38597;&#40657;'" font-size="42" lengthAdjust="spacing" textLength="168.0007" x="1498.5001" y="2812.4569">&#24320;&#22987;&#32467;&#31639;</text><rect fill="#FFFF00" height="112.7813" rx="18.75" ry="18.75" style="stroke:#181818;stroke-width:0.75;" width="217.6992" x="1017.645" y="464.8309"/><text fill="#000000" font-family="'&#24494;&#36719;&#38597;&#40657;'" font-size="42" lengthAdjust="spacing" textLength="196.3015" x="1028.3439" y="511.3163">&#21507;/&#30896;/&#26126;&#26464;</text><text fill="#000000" font-family="'&#24494;&#36719;&#38597;&#40657;'" font-size="42" lengthAdjust="spacing" textLength="202.6992" x="1025.145" y="560.2069">mingpai()</text><rect fill="#FFFF00" height="112.7813" rx="18.75" ry="18.75" style="stroke:#181818;stroke-width:0.75;" width="295.3019" x="987.855" y="1676.7409"/><text fill="#000000" font-family="'&#24494;&#36719;&#38597;&#40657;'" font-size="42" lengthAdjust="spacing" textLength="280.3019" x="995.355" y="1723.2263">&#26263;&#26464;/&#21152;&#26464;/&#25300;&#21271;</text><text fill="#000000" font-family="'&#24494;&#36719;&#38597;&#40657;'" font-size="42" lengthAdjust="spacing" textLength="251.877" x="1009.5675" y="1772.1169">leimingpai()</text><rect fill="#F08080" height="112.7813" rx="18.75" ry="18.75" style="stroke:#181818;stroke-width:0.75;" width="165.0762" x="1060.455" y="1917.0259"/><text fill="#000000" font-family="'&#24494;&#36719;&#38597;&#40657;'" font-size="42" lengthAdjust="spacing" textLength="84.0004" x="1100.9929" y="1963.5113">&#21644;&#29260;</text><text fill="#000000" font-family="'&#24494;&#36719;&#38597;&#40657;'" font-size="42" lengthAdjust="spacing" textLength="150.0762" x="1067.955" y="2012.4019">hupai()</text><ellipse cx="1620" cy="521.2309" fill="#222222" rx="15" ry="15" style="stroke:#222222;stroke-width:1.5;"/><ellipse cx="1582.5" cy="2937.8659" fill="none" rx="16.5" ry="16.5" style="stroke:#222222;stroke-width:1.5;"/><ellipse cx="1582.5" cy="2937.8659" fill="#222222" rx="9" ry="9" style="stroke:#222222;stroke-width:1.5;"/><!--link S1 to S9--><g class="link" data-entity-1="S1" data-entity-2="S9" data-source-line="17" data-uid="lnk2" id="link_S1_S9"><path d="M1719.675,1030.0159 C1763.76,1060.8259 1810.35,1103.7409 1831.5,1156.9009 C1850.025,1203.4759 1842.63,1220.8009 1831.5,1269.6709 C1828.08,1284.6859 1825.9283,1291.926 1819.3433,1305.981" fill="none" id="S1-to-S9" style="stroke:#181818;stroke-width:3;"/><polygon fill="#181818" points="1815.525,1314.1309,1826.6858,1304.4517,1818.707,1307.3393,1815.8193,1299.3605,1815.525,1314.1309" style="stroke:#181818;stroke-width:3;"/><text fill="#000000" font-family="'&#24494;&#36719;&#38597;&#40657;'" font-size="30" lengthAdjust="spacing" textLength="119.9999" x="1806" y="1103.7476">&#40857;&#20043;&#30446;&#29577;</text></g><!--link S1 to S10--><g class="link" data-entity-1="S1" data-entity-2="S10" data-source-line="18" data-uid="lnk3" id="link_S1_S10"><path d="M1615.845,1030.0159 C1614.57,1055.0509 1613.895,1084.9759 1615.5,1111.9009 C1616.37,1126.3759 1616.8639,1133.0243 1618.5889,1147.4843" fill="none" id="S1-to-S10" style="stroke:#181818;stroke-width:3;"/><polygon fill="#181818" points="1619.655,1156.4209,1624.0136,1142.3052,1618.7666,1148.9737,1612.0981,1143.7267,1619.655,1156.4209" style="stroke:#181818;stroke-width:3;"/><text fill="#000000" font-family="'&#24494;&#36719;&#38597;&#40657;'" font-size="30" lengthAdjust="spacing" textLength="130.1073" x="1617" y="1103.7476">&#20462;&#32599;/&#24029;&#40635;</text></g><!--link S10 to S11--><g class="link" data-entity-1="S10" data-entity-2="S11" data-source-line="19" data-uid="lnk4" id="link_S10_S11"><path d="M1571.67,1270.3159 C1561.365,1283.7859 1552.095,1298.8909 1546.5,1314.6709 C1529.745,1361.9209 1519.29,1385.3659 1546.5,1427.4559 C1553.64,1438.5109 1598.0362,1458.9891 1650.2812,1480.6491" fill="none" id="S10-to-S11" style="stroke:#181818;stroke-width:3;"/><polygon fill="#181818" points="1658.595,1484.0959,1648.4221,1473.3832,1651.6668,1481.2236,1643.8264,1484.4683,1658.595,1484.0959" style="stroke:#181818;stroke-width:3;"/><text fill="#000000" font-family="'&#24494;&#36719;&#38597;&#40657;'" font-size="30" lengthAdjust="spacing" textLength="60" x="1548" y="1381.6676">&#24029;&#40635;</text></g><!--link S003 to S1--><g class="link" data-entity-1="S003" data-entity-2="S1" data-source-line="22" data-uid="lnk5" id="link_S003_S1"><path d="M1620,757.9909 C1620,782.8759 1620,852.3409 1620,906.8809" fill="none" id="S003-to-S1" style="stroke:#181818;stroke-width:3;"/><polygon fill="#181818" points="1620,915.8809,1626,902.3809,1620,908.3809,1614,902.3809,1620,915.8809" style="stroke:#181818;stroke-width:3;"/></g><!--link S001 to S3--><g class="link" data-entity-1="S001" data-entity-2="S3" data-source-line="25" data-uid="lnk6" id="link_S001_S3"><path d="M1316.46,758.3209 C1324.545,826.9459 1380.0126,1298.1426 1399.4226,1462.9926" fill="none" id="S001-to-S3" style="stroke:#181818;stroke-width:3;"/><polygon fill="#181818" points="1400.475,1471.9309,1404.8552,1457.8219,1399.598,1464.4824,1392.9375,1459.2251,1400.475,1471.9309" style="stroke:#181818;stroke-width:3;"/></g><!--link S1 to S009--><g class="link" data-entity-1="S1" data-entity-2="S009" data-source-line="28" data-uid="lnk7" id="link_S1_S009"><path d="M1532.49,1030.1059 C1491.15,1061.7109 1446.015,1105.2709 1423.5,1156.9009 C1403.46,1202.8459 1413.63,1220.5309 1423.5,1269.6709 C1430.985,1306.9459 1470.795,1394.3659 1489.5,1427.4559 C1501.71,1449.0559 1511.385,1450.2859 1522.5,1472.4559 C1545.99,1519.3159 1541.16,1535.2759 1557,1585.2409 C1574.61,1640.8309 1594.1725,1699.3632 1600.4425,1718.0532" fill="none" id="S1-to-S009" style="stroke:#181818;stroke-width:3;"/><polygon fill="#181818" points="1603.305,1726.5859,1604.6997,1711.8786,1600.9196,1719.4754,1593.3228,1715.6952,1603.305,1726.5859" style="stroke:#181818;stroke-width:3;"/></g><!--link S3 to S009--><g class="link" data-entity-1="S3" data-entity-2="S009" data-source-line="29" data-uid="lnk8" id="link_S3_S009"><path d="M1461.63,1585.8859 C1512,1637.0809 1575.3622,1701.5112 1593.9622,1720.4112" fill="none" id="S3-to-S009" style="stroke:#181818;stroke-width:3;"/><polygon fill="#181818" points="1600.275,1726.8259,1595.0822,1712.9953,1595.0143,1721.4803,1586.5293,1721.4125,1600.275,1726.8259" style="stroke:#181818;stroke-width:3;"/></g><!--link S9 to S009--><g class="link" data-entity-1="S9" data-entity-2="S009" data-source-line="30" data-uid="lnk9" id="link_S9_S009"><path d="M1869.945,1428.0559 C1883.55,1440.8959 1895.67,1455.7759 1903.5,1472.4559 C1924.77,1517.8459 1930.02,1542.7009 1903.5,1585.2409 C1844.88,1679.2909 1715.1382,1713.0095 1649.5132,1724.7995" fill="none" id="S9-to-S009" style="stroke:#181818;stroke-width:3;"/><polygon fill="#181818" points="1640.655,1726.3909,1655.0032,1729.9092,1648.0368,1725.0647,1652.8813,1718.0983,1640.655,1726.3909" style="stroke:#181818;stroke-width:3;"/></g><!--link S10 to S009--><g class="link" data-entity-1="S10" data-entity-2="S009" data-source-line="31" data-uid="lnk10" id="link_S10_S009"><path d="M1548.555,1270.1059 C1535.535,1283.1259 1523.88,1298.0959 1516.5,1314.6709 C1496.1,1360.4659 1496.94,1381.3159 1516.5,1427.4559 C1527.72,1453.9459 1549.695,1446.9709 1563,1472.4559 C1611.525,1565.3959 1607.2534,1691.5447 1605.7834,1718.0497" fill="none" id="S10-to-S009" style="stroke:#181818;stroke-width:3;"/><polygon fill="#181818" points="1605.285,1727.0359,1612.0234,1713.8889,1605.7003,1719.5474,1600.0418,1713.2244,1605.285,1727.0359" style="stroke:#181818;stroke-width:3;"/></g><!--link S11 to S009--><g class="link" data-entity-1="S11" data-entity-2="S009" data-source-line="32" data-uid="lnk11" id="link_S11_S009"><path d="M1723.395,1585.8859 C1681.8,1637.0809 1629.9362,1700.9416 1614.5762,1719.8416" fill="none" id="S11-to-S009" style="stroke:#181818;stroke-width:3;"/><polygon fill="#181818" points="1608.9,1726.8259,1622.0705,1720.1335,1613.6301,1721.0056,1612.758,1712.5653,1608.9,1726.8259" style="stroke:#181818;stroke-width:3;"/></g><!--link S009 to S002--><g class="link" data-entity-1="S009" data-entity-2="S002" data-source-line="35" data-uid="lnk12" id="link_S009_S002"><path d="M1605,1739.5909 C1605,1769.5309 1605,1917.3109 1605,1954.8409" fill="none" id="S009-to-S002" style="stroke:#181818;stroke-width:3;"/><polygon fill="#181818" points="1605,1963.8409,1611,1950.3409,1605,1956.3409,1599,1950.3409,1605,1963.8409" style="stroke:#181818;stroke-width:3;"/></g><!--link S2 to S049--><g class="link" data-entity-1="S2" data-entity-2="S049" data-source-line="43" data-uid="lnk13" id="link_S2_S049"><path d="M553.05,337.7359 C537.96,351.8059 522.255,367.2259 508.5,382.3309 C464.445,430.7359 424.3185,488.8734 411.8835,507.2784" fill="none" id="S2-to-S049" style="stroke:#181818;stroke-width:3;"/><polygon fill="#181818" points="406.845,514.7359,419.3744,506.9087,411.0437,508.5214,409.4311,500.1907,406.845,514.7359" style="stroke:#181818;stroke-width:3;"/><text fill="#000000" font-family="'&#24494;&#36719;&#38597;&#40657;'" font-size="30" lengthAdjust="spacing" textLength="179.9999" x="510" y="411.6776">&#26263;&#22812;&#20043;&#25112;&#26263;&#29260;</text></g><!--link S049 to S048--><g class="link" data-entity-1="S049" data-entity-2="S048" data-source-line="45" data-uid="lnk14" id="link_S049_S048"><path d="M403.5,527.8309 C403.5,557.9659 403.5,703.2709 403.5,733.1059" fill="none" id="S049-to-S048" style="stroke:#181818;stroke-width:3;"/><polygon fill="#181818" points="403.5,742.1059,409.5,728.6059,403.5,734.6059,397.5,728.6059,403.5,742.1059" style="stroke:#181818;stroke-width:3;"/><text fill="#000000" font-family="'&#24494;&#36719;&#38597;&#40657;'" font-size="30" lengthAdjust="spacing" textLength="119.9999" x="405" y="669.2126">&#26377;&#20154;&#24320;&#29260;</text></g><!--link S048 to S12--><g class="link" data-entity-1="S048" data-entity-2="S12" data-source-line="46" data-uid="lnk15" id="link_S048_S12"><path d="M406.545,755.1559 C419.265,776.2609 464.5828,851.4135 498.8428,908.2335" fill="none" id="S048-to-S12" style="stroke:#181818;stroke-width:3;"/><polygon fill="#181818" points="503.49,915.9409,501.6574,901.2817,499.6173,909.5181,491.3809,907.478,503.49,915.9409" style="stroke:#181818;stroke-width:3;"/><text fill="#000000" font-family="'&#24494;&#36719;&#38597;&#40657;'" font-size="30" lengthAdjust="spacing" textLength="60" x="454.5" y="831.9626">&#25104;&#21151;</text></g><!--link S048 to S13--><g class="link" data-entity-1="S048" data-entity-2="S13" data-source-line="47" data-uid="lnk16" id="link_S048_S13"><path d="M399.54,755.0209 C392.055,764.2759 375.345,784.9909 361.5,802.6159 C331.845,840.3409 304.2866,875.9867 278.8616,909.0467" fill="none" id="S048-to-S13" style="stroke:#181818;stroke-width:3;"/><polygon fill="#181818" points="273.375,916.1809,286.3611,909.1373,277.9472,910.2357,276.8488,901.8218,273.375,916.1809" style="stroke:#181818;stroke-width:3;"/><text fill="#000000" font-family="'&#24494;&#36719;&#38597;&#40657;'" font-size="30" lengthAdjust="spacing" textLength="60" x="363" y="831.9626">&#38145;&#23450;</text></g><!--link S2 to S047--><g class="link" data-entity-1="S2" data-entity-2="S047" data-source-line="49" data-uid="lnk17" id="link_S2_S047"><path d="M670.26,337.7959 C680.58,351.3859 690.015,366.5959 696,382.3309 C717.735,439.4959 703.5,458.5759 703.5,519.7309 C703.5,519.7309 703.5,519.7309 703.5,974.5009 C703.5,1072.1509 649.4391,1174.4565 635.7441,1198.9365" fill="none" id="S2-to-S047" style="stroke:#181818;stroke-width:3;"/><polygon fill="#181818" points="631.35,1206.7909,643.1774,1197.9386,635.0117,1200.2455,632.7048,1192.0799,631.35,1206.7909" style="stroke:#181818;stroke-width:3;"/></g><!--link S12 to S047--><g class="link" data-entity-1="S12" data-entity-2="S047" data-source-line="50" data-uid="lnk18" id="link_S12_S047"><path d="M558.45,1030.1359 C582.12,1091.5009 614.7639,1176.1628 623.3589,1198.4678" fill="none" id="S12-to-S047" style="stroke:#181818;stroke-width:3;"/><polygon fill="#181818" points="626.595,1206.8659,627.3395,1192.1114,623.8982,1199.8675,616.1421,1196.4262,626.595,1206.8659" style="stroke:#181818;stroke-width:3;"/></g><!--link S13 to S046--><g class="link" data-entity-1="S13" data-entity-2="S046" data-source-line="52" data-uid="lnk19" id="link_S13_S046"><path d="M231,1030.1359 C231,1091.5009 231,1175.5609 231,1197.8659" fill="none" id="S13-to-S046" style="stroke:#181818;stroke-width:3;"/><polygon fill="#181818" points="231,1206.8659,237,1193.3659,231,1199.3659,225,1193.3659,231,1206.8659" style="stroke:#181818;stroke-width:3;"/></g><!--link S049 to S046--><g class="link" data-entity-1="S049" data-entity-2="S046" data-source-line="53" data-uid="lnk20" id="link_S049_S046"><path d="M394.23,527.8459 C347.475,554.2459 137.025,680.5309 64.5,852.1159 C33.825,924.6859 36.015,955.9309 64.5,1029.4009 C98.295,1116.5359 187.8377,1182.4554 215.8877,1201.6104" fill="none" id="S049-to-S046" style="stroke:#181818;stroke-width:3;"/><polygon fill="#181818" points="223.32,1206.6859,215.5551,1194.1178,217.1264,1202.4564,208.7878,1204.0276,223.32,1206.6859" style="stroke:#181818;stroke-width:3;"/><text fill="#000000" font-family="'&#24494;&#36719;&#38597;&#40657;'" font-size="30" lengthAdjust="spacing" textLength="119.9999" x="91.5" y="831.9626">&#26080;&#20154;&#24320;&#29260;</text></g><!--link S047 to S045--><g class="link" data-entity-1="S047" data-entity-2="S045" data-source-line="55" data-uid="lnk21" id="link_S047_S045"><path d="M627.84,1219.6909 C622.935,1256.2009 593.3989,1476.0161 588.3889,1513.2911" fill="none" id="S047-to-S045" style="stroke:#181818;stroke-width:3;"/><polygon fill="#181818" points="587.19,1522.2109,594.9348,1509.6305,588.1891,1514.7777,583.0418,1508.032,587.19,1522.2109" style="stroke:#181818;stroke-width:3;"/></g><!--link S046 to S045--><g class="link" data-entity-1="S046" data-entity-2="S045" data-source-line="56" data-uid="lnk22" id="link_S046_S045"><path d="M236.58,1219.6909 C278.1,1256.2009 531.5003,1478.994 573.9053,1516.269" fill="none" id="S046-to-S045" style="stroke:#181818;stroke-width:3;"/><polygon fill="#181818" points="580.665,1522.2109,574.4867,1508.7915,575.0319,1517.2593,566.5642,1517.8045,580.665,1522.2109" style="stroke:#181818;stroke-width:3;"/></g><!--link S041 to S2--><g class="link" data-entity-1="S041" data-entity-2="S2" data-source-line="59" data-uid="lnk23" id="link_S041_S2"><path d="M704.07,102.0259 C693.81,122.8159 669.488,172.0752 647.813,215.9952" fill="none" id="S041-to-S2" style="stroke:#181818;stroke-width:3;"/><polygon fill="#181818" points="643.83,224.0659,655.1849,214.6152,647.1491,217.3403,644.424,209.3046,643.83,224.0659" style="stroke:#181818;stroke-width:3;"/></g><!--link S047 to S042--><g class="link" data-entity-1="S047" data-entity-2="S042" data-source-line="63" data-uid="lnk24" id="link_S047_S042"><path d="M629.385,1219.6909 C634.05,1245.7009 656.28,1370.2309 672,1472.4559 C687.195,1571.2309 701.7051,1682.7247 705.8151,1714.6297" fill="none" id="S047-to-S042" style="stroke:#181818;stroke-width:3;"/><polygon fill="#181818" points="706.965,1723.5559,711.191,1709.4,706.0068,1716.1174,699.2894,1710.9331,706.965,1723.5559" style="stroke:#181818;stroke-width:3;"/></g><!--link S045 to S043--><g class="link" data-entity-1="S045" data-entity-2="S043" data-source-line="67" data-uid="lnk25" id="link_S045_S043"><path d="M587.76,1535.3209 C594.57,1562.2009 624.7587,1681.3668 633.2487,1714.8618" fill="none" id="S045-to-S043" style="stroke:#181818;stroke-width:3;"/><polygon fill="#181818" points="635.46,1723.5859,637.9591,1709.0255,633.6172,1716.3158,626.327,1711.9739,635.46,1723.5859" style="stroke:#181818;stroke-width:3;"/></g><!--link S051 to S7--><g class="link" data-entity-1="S051" data-entity-2="S7" data-source-line="75" data-uid="lnk26" id="link_S051_S7"><path d="M1158.45,2210.2459 C1165.515,2238.9259 1187.9631,2330.1169 1203.6981,2394.0169" fill="none" id="S051-to-S7" style="stroke:#181818;stroke-width:3;"/><polygon fill="#181818" points="1205.85,2402.7559,1208.4481,2388.2129,1204.0567,2395.4734,1196.7962,2391.0821,1205.85,2402.7559" style="stroke:#181818;stroke-width:3;"/></g><!--link S051 to S8--><g class="link" data-entity-1="S051" data-entity-2="S8" data-source-line="76" data-uid="lnk27" id="link_S051_S8"><path d="M1165.95,2208.6559 C1193.505,2227.3309 1275.765,2284.1959 1338,2338.7959 C1360.695,2358.7159 1378.0086,2375.6569 1398.0036,2396.4619" fill="none" id="S051-to-S8" style="stroke:#181818;stroke-width:3;"/><polygon fill="#181818" points="1404.24,2402.9509,1399.2114,2389.0598,1399.043,2397.5434,1390.5594,2397.375,1404.24,2402.9509" style="stroke:#181818;stroke-width:3;"/></g><!--link S052 to S7--><g class="link" data-entity-1="S052" data-entity-2="S7" data-source-line="80" data-uid="lnk28" id="link_S052_S7"><path d="M1356.12,2210.2459 C1340.325,2238.9259 1289.6044,2330.9739 1254.3844,2394.8739" fill="none" id="S052-to-S7" style="stroke:#181818;stroke-width:3;"/><polygon fill="#181818" points="1250.04,2402.7559,1261.8112,2393.8291,1253.6603,2396.1875,1251.3019,2388.0366,1250.04,2402.7559" style="stroke:#181818;stroke-width:3;"/></g><!--link S7 to S053--><g class="link" data-entity-1="S7" data-entity-2="S053" data-source-line="83" data-uid="lnk29" id="link_S7_S053"><path d="M1304.52,2516.7559 C1358.28,2551.8709 1414.3763,2588.5422 1438.0163,2603.9922" fill="none" id="S7-to-S053" style="stroke:#181818;stroke-width:3;"/><polygon fill="#181818" points="1445.55,2608.9159,1437.5319,2596.5079,1439.2719,2604.8128,1430.9669,2606.5528,1445.55,2608.9159" style="stroke:#181818;stroke-width:3;"/></g><!--link S8 to S053--><g class="link" data-entity-1="S8" data-entity-2="S053" data-source-line="84" data-uid="lnk30" id="link_S8_S053"><path d="M1455,2516.7559 C1455,2550.5059 1455,2581.2109 1455,2597.9809" fill="none" id="S8-to-S053" style="stroke:#181818;stroke-width:3;"/><polygon fill="#181818" points="1455,2606.9809,1461,2593.4809,1455,2599.4809,1449,2593.4809,1455,2606.9809" style="stroke:#181818;stroke-width:3;"/></g><!--link *start* to S003--><g class="link" data-entity-1=".start." data-entity-2="S003" data-source-line="91" data-uid="lnk32" id="link_.start._S003"><path d="M1620,536.7559 C1620,579.3559 1620,697.2709 1620,730.2259" fill="none" id="*start*-to-S003" style="stroke:#181818;stroke-width:1.5;stroke-dasharray:10.5,10.5;"/><polygon fill="#181818" points="1620,739.2259,1626,725.7259,1620,731.7259,1614,725.7259,1620,739.2259" style="stroke:#181818;stroke-width:1.5;"/></g><!--link S002 to S041--><g class="link" data-entity-1="S002" data-entity-2="S041" data-source-line="94" data-uid="lnk33" id="link_S002_S041"><path d="M1614.705,1970.4409 C1693.335,1958.2159 2223,1870.8259 2223,1734.6259 C2223,279.4459 2223,279.4459 2223,279.4459 C2223,117.8059 855.7042,95.9952 726.6742,94.2852" fill="none" id="S002-to-S041" style="stroke:#008000;stroke-width:3;"/><polygon fill="#008000" points="717.675,94.1659,731.0943,100.3443,725.1743,94.2653,731.2533,88.3453,717.675,94.1659" style="stroke:#008000;stroke-width:3;"/></g><!--link S002 to S5--><g class="link" data-entity-1="S002" data-entity-2="S5" data-source-line="95" data-uid="lnk34" id="link_S002_S5"><path d="M1595.835,1967.2759 C1552.755,1945.5109 1375.5824,1855.9706 1253.6024,1794.3206" fill="none" id="S002-to-S5" style="stroke:#181818;stroke-width:3;"/><polygon fill="#181818" points="1245.57,1790.2609,1254.9121,1801.7053,1252.2637,1793.6439,1260.325,1790.9955,1245.57,1790.2609" style="stroke:#181818;stroke-width:3;"/><text fill="#000000" font-family="'&#24494;&#36719;&#38597;&#40657;'" font-size="30" lengthAdjust="spacing" textLength="119.9999" x="1399.5" y="1863.8726">&#33258;&#23478;&#40483;&#29260;</text></g><!--link S002 to S6--><g class="link" data-entity-1="S002" data-entity-2="S6" data-source-line="96" data-uid="lnk35" id="link_S002_S6"><path d="M1595.37,1973.4109 C1472.25,1973.4109 1358.13,1973.4109 1235.01,1973.4109" fill="none" id="S002-to-S6" style="stroke:#FF0000;stroke-width:3;"/><polygon fill="#FF0000" points="1226.01,1973.4109,1239.51,1979.4109,1233.51,1973.4109,1239.51,1967.4109,1226.01,1973.4109" style="stroke:#FF0000;stroke-width:3;"/></g><!--link S002 to S052--><g class="link" data-entity-1="S002" data-entity-2="S052" data-source-line="97" data-uid="lnk36" id="link_S002_S052"><path d="M1596.3,1982.9059 C1558.365,2017.7209 1414.215,2149.9945 1375.98,2185.0945" fill="none" id="S002-to-S052" style="stroke:#0000FF;stroke-width:3;"/><polygon fill="#0000FF" points="1369.35,2191.1809,1383.3525,2186.4713,1374.875,2186.1089,1375.2374,2177.6314,1369.35,2191.1809" style="stroke:#0000FF;stroke-width:3;"/></g><!--link S042 to S4--><g class="link" data-entity-1="S042" data-entity-2="S4" data-source-line="100" data-uid="lnk37" id="link_S042_S4"><path d="M709.29,1723.7209 C712.83,1701.7759 722.865,1638.2959 729,1585.2409 C755.19,1358.8309 700.53,1290.1459 774,1074.4009 C842.325,873.7459 992.3885,679.5365 1071.9785,585.1415" fill="none" id="S042-to-S4" style="stroke:#181818;stroke-width:3;"/><polygon fill="#181818" points="1077.78,578.2609,1064.4907,584.7142,1072.9454,583.9948,1073.6649,592.4495,1077.78,578.2609" style="stroke:#181818;stroke-width:3;"/><text fill="#000000" font-family="'&#24494;&#36719;&#38597;&#40657;'" font-size="30" lengthAdjust="spacing" textLength="119.9999" x="775.5" y="1103.7476">&#20182;&#23478;&#40483;&#29260;</text></g><!--link S042 to S6--><g class="link" data-entity-1="S042" data-entity-2="S6" data-source-line="101" data-uid="lnk38" id="link_S042_S6"><path d="M715.335,1742.5759 C736.935,1765.5709 803.07,1833.0709 870,1872.0259 C929.97,1906.9309 995.6604,1930.562 1051.5954,1947.362" fill="none" id="S042-to-S6" style="stroke:#FF0000;stroke-width:3;"/><polygon fill="#FF0000" points="1060.215,1949.9509,1049.0115,1940.3212,1053.032,1947.7935,1045.5597,1951.814,1060.215,1949.9509" style="stroke:#FF0000;stroke-width:3;"/></g><!--link S043 to S001--><g class="link" data-entity-1="S043" data-entity-2="S001" data-source-line="103" data-uid="lnk39" id="link_S043_S001"><path d="M642.645,1723.4509 C660.705,1694.6659 720.615,1599.1759 729,1585.2409 C770.82,1515.8059 788.46,1501.9159 820.5,1427.4559 C834.81,1394.2159 977.925,826.6309 1005,802.6159 C1051.425,761.4409 1250.6603,752.3159 1297.2353,750.7109" fill="none" id="S043-to-S001" style="stroke:#008000;stroke-width:3;"/><polygon fill="#008000" points="1306.23,750.4009,1292.5314,744.8694,1298.7344,750.6592,1292.9446,756.8623,1306.23,750.4009" style="stroke:#008000;stroke-width:3;"/></g><!--link S043 to S051--><g class="link" data-entity-1="S043" data-entity-2="S051" data-source-line="104" data-uid="lnk40" id="link_S043_S051"><path d="M641.31,1742.2309 C647.055,1753.3009 658.725,1774.2259 672,1789.5259 C837.39,1980.0259 1087.1179,2152.5792 1139.5279,2187.9192" fill="none" id="S043-to-S051" style="stroke:#0000FF;stroke-width:3;"/><polygon fill="#0000FF" points="1146.99,2192.9509,1139.1513,2180.4287,1140.7716,2188.7578,1132.4425,2190.3781,1146.99,2192.9509" style="stroke:#0000FF;stroke-width:3;"/></g><!--link S053 to S0--><g class="link" data-entity-1="S053" data-entity-2="S0" data-source-line="107" data-uid="lnk41" id="link_S053_S0"><path d="M1461.495,2625.9259 C1475.25,2642.5309 1502.5967,2675.5466 1530.7067,2709.4616" fill="none" id="S053-to-S0" style="stroke:#181818;stroke-width:1.5;stroke-dasharray:10.5,10.5;"/><polygon fill="#181818" points="1536.45,2716.3909,1532.4547,2702.1681,1531.664,2710.6165,1523.2156,2709.8258,1536.45,2716.3909" style="stroke:#181818;stroke-width:1.5;"/></g><!--link S4 to S041--><g class="link" data-entity-1="S4" data-entity-2="S041" data-source-line="110" data-uid="lnk42" id="link_S4_S041"><path d="M1072.08,464.3659 C970.785,361.3309 765.9095,152.9639 722.2895,108.5939" fill="none" id="S4-to-S041" style="stroke:#181818;stroke-width:3;"/><polygon fill="#181818" points="715.98,102.1759,721.1656,116.0092,721.2379,107.5242,729.7229,107.5965,715.98,102.1759" style="stroke:#181818;stroke-width:3;"/><text fill="#000000" font-family="'&#24494;&#36719;&#38597;&#40657;'" font-size="30" lengthAdjust="spacing" textLength="100.1074" x="946.5" y="291.5426">&#21507;/&#30896;&#21518;</text></g><!--link S4 to S001--><g class="link" data-entity-1="S4" data-entity-2="S001" data-source-line="111" data-uid="lnk43" id="link_S4_S001"><path d="M1173.225,578.1859 C1220.01,633.7459 1282.1902,707.5788 1303.2502,732.5688" fill="none" id="S4-to-S001" style="stroke:#181818;stroke-width:3;"/><polygon fill="#181818" points="1309.05,739.4509,1304.9384,725.2613,1304.2169,733.7159,1295.7623,732.9943,1309.05,739.4509" style="stroke:#181818;stroke-width:3;"/><text fill="#000000" font-family="'&#24494;&#36719;&#38597;&#40657;'" font-size="30" lengthAdjust="spacing" textLength="89.9999" x="1285.5" y="651.9626">&#26126;&#26464;&#21518;</text><text fill="#000000" font-family="'&#24494;&#36719;&#38597;&#40657;'" font-size="30" lengthAdjust="spacing" textLength="119.9999" x="1270.5" y="686.8845">&#23725;&#19978;&#25720;&#29260;</text></g><!--link S4 to S0--><g class="link" data-entity-1="S4" data-entity-2="S0" data-source-line="112" data-uid="lnk44" id="link_S4_S0"><path d="M1235.865,538.6609 C1474.74,574.9759 2022,666.9259 2022,747.1159 C2022,747.1159 2022,747.1159 2022,2618.0809 C2022,2687.2009 1834.7729,2731.1147 1704.5429,2753.6747" fill="none" id="S4-to-S0" style="stroke:#008B8B;stroke-width:3;"/><polygon fill="#008B8B" points="1695.675,2755.2109,1710.001,2758.8185,1703.0649,2753.9307,1707.9527,2746.9946,1695.675,2755.2109" style="stroke:#008B8B;stroke-width:3;"/><text fill="#000000" font-family="'&#24494;&#36719;&#38597;&#40657;'" font-size="30" lengthAdjust="spacing" textLength="119.9999" x="2023.5" y="1726.4726">&#24029;&#40635;&#21038;&#39118;</text><text fill="#000000" font-family="'&#24494;&#36719;&#38597;&#40657;'" font-size="30" lengthAdjust="spacing" textLength="119.9999" x="2023.5" y="1761.3945">&#19979;&#38632;&#20987;&#39134;</text></g><!--link S5 to S001--><g class="link" data-entity-1="S5" data-entity-2="S001" data-source-line="115" data-uid="lnk45" id="link_S5_S001"><path d="M1148.31,1676.0059 C1156.47,1635.7759 1165.5,1579.9909 1165.5,1530.3559 C1165.5,971.5009 1165.5,971.5009 1165.5,971.5009 C1165.5,870.7609 1266.0912,787.1574 1298.9262,762.3774" fill="none" id="S5-to-S001" style="stroke:#181818;stroke-width:3;"/><polygon fill="#181818" points="1306.11,756.9559,1291.7199,760.2989,1300.1235,761.4738,1298.9486,769.8774,1306.11,756.9559" style="stroke:#181818;stroke-width:3;"/><text fill="#000000" font-family="'&#24494;&#36719;&#38597;&#40657;'" font-size="30" lengthAdjust="spacing" textLength="119.9999" x="1167" y="1223.8826">&#23725;&#19978;&#25720;&#29260;</text></g><!--link S5 to S6--><g class="link" data-entity-1="S5" data-entity-2="S6" data-source-line="116" data-uid="lnk46" id="link_S5_S6"><path d="M1137.255,1790.2609 C1138.455,1828.3459 1139.7575,1869.6305 1140.9725,1907.6405" fill="none" id="S5-to-S6" style="stroke:#FF0000;stroke-width:3;"/><polygon fill="#FF0000" points="1141.26,1916.6359,1146.8256,1902.9511,1141.0204,1909.1397,1134.8318,1903.3345,1141.26,1916.6359" style="stroke:#FF0000;stroke-width:3;"/></g><!--link S5 to S0--><g class="link" data-entity-1="S5" data-entity-2="S0" data-source-line="117" data-uid="lnk47" id="link_S5_S0"><path d="M1067.91,1790.1109 C1022.34,1834.0759 970.5,1899.9109 970.5,1971.9109 C970.5,1971.9109 970.5,1971.9109 970.5,2618.0809 C970.5,2719.8409 1283.7193,2754.3513 1460.5543,2765.9613" fill="none" id="S5-to-S0" style="stroke:#008B8B;stroke-width:3;"/><polygon fill="#008B8B" points="1469.535,2766.5509,1456.4571,2759.6794,1462.0511,2766.0595,1455.6709,2771.6536,1469.535,2766.5509" style="stroke:#008B8B;stroke-width:3;"/><text fill="#000000" font-family="'&#24494;&#36719;&#38597;&#40657;'" font-size="30" lengthAdjust="spacing" textLength="119.9999" x="972" y="2284.1426">&#24029;&#40635;&#21038;&#39118;</text><text fill="#000000" font-family="'&#24494;&#36719;&#38597;&#40657;'" font-size="30" lengthAdjust="spacing" textLength="119.9999" x="972" y="2319.0645">&#19979;&#38632;&#20987;&#39134;</text></g><!--link S6 to S001--><g class="link" data-entity-1="S6" data-entity-2="S001" data-source-line="120" data-uid="lnk48" id="link_S6_S001"><path d="M1063.905,1916.5009 C1025.19,1884.4009 982.47,1840.3159 961.5,1789.5259 C880.785,1593.9709 950.19,1521.5359 994.5,1314.6709 C1040.025,1102.1059 1031.94,1032.3409 1153.5,852.1159 C1192.71,793.9759 1268.784,765.1779 1297.329,755.8629" fill="none" id="S6-to-S001" style="stroke:#181818;stroke-width:3;"/><polygon fill="#181818" points="1305.885,753.0709,1291.1897,751.555,1298.755,755.3976,1294.9124,762.9629,1305.885,753.0709" style="stroke:#181818;stroke-width:3;"/><text fill="#000000" font-family="'&#24494;&#36719;&#38597;&#40657;'" font-size="30" lengthAdjust="spacing" textLength="130.1073" x="996" y="1364.4176">&#20462;&#32599;/&#24029;&#40635;</text><text fill="#000000" font-family="'&#24494;&#36719;&#38597;&#40657;'" font-size="30" lengthAdjust="spacing" textLength="119.9999" x="1001.0537" y="1399.3395">&#36884;&#20013;&#21644;&#29260;</text></g><!--link S6 to S051--><g class="link" data-entity-1="S6" data-entity-2="S051" data-source-line="121" data-uid="lnk49" id="link_S6_S051"><path d="M1146.33,2030.3809 C1149.675,2085.9259 1153.9958,2157.6721 1155.4958,2182.6621" fill="none" id="S6-to-S051" style="stroke:#181818;stroke-width:3;"/><polygon fill="#181818" points="1156.035,2191.6459,1161.2154,2177.8107,1155.5856,2184.1594,1149.2369,2178.5296,1156.035,2191.6459" style="stroke:#181818;stroke-width:3;"/><text fill="#000000" font-family="'&#24494;&#36719;&#38597;&#40657;'" font-size="30" lengthAdjust="spacing" textLength="130.1073" x="1153.5" y="2104.1426">&#20462;&#32599;/&#24029;&#40635;</text><text fill="#000000" font-family="'&#24494;&#36719;&#38597;&#40657;'" font-size="30" lengthAdjust="spacing" textLength="119.9999" x="1158.5537" y="2139.0645">&#36884;&#20013;&#21644;&#29260;</text></g><!--link S6 to S0--><g class="link" data-entity-1="S6" data-entity-2="S0" data-source-line="122" data-uid="lnk50" id="link_S6_S0"><path d="M1226.025,2008.9459 C1364.13,2066.1559 1626,2177.5159 1626,2199.2959 C1626,2199.2959 1626,2199.2959 1626,2618.0809 C1626,2651.6809 1619.2908,2679.4095 1609.0458,2708.2695" fill="none" id="S6-to-S0" style="stroke:#181818;stroke-width:1.5;stroke-dasharray:10.5,10.5;"/><polygon fill="#181818" points="1606.035,2716.7509,1616.2055,2706.0359,1608.544,2709.683,1604.8969,2702.0215,1606.035,2716.7509" style="stroke:#181818;stroke-width:1.5;"/></g><!--link S0 to *end*--><g class="link" data-entity-1="S0" data-entity-2=".end." data-source-line="125" data-uid="lnk52" id="link_S0_.end."><path d="M1582.5,2830.5109 C1582.5,2862.6109 1582.5,2891.6059 1582.5,2912.2159" fill="none" id="S0-to-*end*" style="stroke:#181818;stroke-width:1.5;stroke-dasharray:10.5,10.5;"/><polygon fill="#181818" points="1582.5,2921.2159,1588.5,2907.7159,1582.5,2913.7159,1576.5,2907.7159,1582.5,2921.2159" style="stroke:#181818;stroke-width:1.5;"/></g><!--SRC=[dLPjRzjK5FxkNt7LVc03kYQEdQJJL0cOG4BJD2dxWke9kSrTOiMvxXnxB9kGEWtKf6_hHaLANw1QaK28PGF4I9Es-pEnNVyBhdrjn_VcPaBaGzAUSvxpSizpxhbLhGm1h2zRJL26ZILJMxOq0mcD9LM787j55Xer3Ishfbh7-hkghLktuGFh8rshe3f45bZ2Nz0Sj_hKGDPDjGx1b7FUlJXxvUz_wm-UJQKChuyCIzf32CHCIbcoL0k2Hq00-3CoAGfV2mBHJJadRuSdRVTPpsjlU8Dlfe3Q0ALC9WEcRsYLglMP2I42Zq87CU9qnVbZHK6cOQFo8gnewD9b0ij6e4-QAaeZY7S5rOrbLOkDS-a8QMjll-jjjOTdczvPzvBpz9M_qhwCiNRJRa3LQX3qN8I-fQ4Q5MhpnR3NTawF55IrLTHGqSEgYYf9Xd5T9LMl6rHOfxlddVOLLDPGvPuD4qHM85PPCBEmQEZbEpFpGVYhm3__ONYoJhBbcE1GLy7mRTSxwymw_npw_K5abA6iijWgKgUpcOaRaGFNhc5ocCrRXeQi-NbY5CZJNlZOx0GibMUEZvt3sBk6MOjH50QhYJJ7bSvnfNJX8_6OvtG-7yJvY44j3pIBAOK99M9cKyHsMgiKiQM40BNcnxeD6Mg7rWgwfy4KKqKQmim21ZWdRzpMjhFsau9iT1zgUa8USJBT279xozzvZAaN8x_KZQLQ0iSpSbqrQoMeaYdXTKfYEoLIHo85L7NtEixF1vYjRciN_uq3SpqL6Ky1cF9L37mTj8VzFaa_DYjIP1G3g_0y-FfSC3nXrTmi2k-kfn3HXYzcVELP5jE4bV8J2iq79NIEc48Pv_BOSHLeBt8ipxDohhy9uofH0oA6ql3hFU3kdZF9nVCYyUU5pL0K8a-u7vCyvVYUPDfJRZHvxj-FyO8OpPoSp5p4Othe_9MTOUyb0IdeoWtD_jmco4A4OwVkOlCvJZP1t3HkQpeaa68Q4jKMtG5_3NYdBayuTPawzG9NMemZHEjpGWHnGWIHZi0xV9bx-7GJvHoH5bdfg247lpklduOz-SuznBTKiC9_MSV_UTrE52czkkChQll9hFVYzQoxk-KUueLQnvinTIrAOFeBgEl6LqcOlGwsctNMZe8VTtt7sUWeI8SQ0vHPeFDy8xnsgtRAAXzdP9YgBWWBxz_1zPNLHXN6bptUNBYvzFi5EAjz8LmNCmlJbO1i7wP8cerLYKp6Wtwn-flJVUFtZeC9YB4cB8-G-KIyY7cLyYYBenoILHFb8561fE0rCFW-7KZY1HB2YUCadyacAZQ9R914CdLHU3d7d5UOATLIOYdHWnm-I8WPtawiEXEe2HfhCPF-V3dihP7Z9xRXnWfebCemUUCuhQv_Z673thg__wkpEl2FVmoJvr27P2UFXwTZohnkoVyt4K954Ze_7ffwpoc8N5q4mzhB_ycURP0tQE4kulPHEap-Vm40]--></g></svg>