<svg xmlns="http://www.w3.org/2000/svg" xmlns:xlink="http://www.w3.org/1999/xlink" contentStyleType="text/css" data-diagram-type="STATE" height="2962.5px" preserveAspectRatio="none" style="width:2214px;height:2962px;background:#FFFFFF;" version="1.1" viewBox="0 0 2214 2962" width="2214px" zoomAndPan="magnify"><defs/><g><!--cluster S000--><g class="cluster" data-entity="S000" data-source-line="10" data-uid="ent0002" id="cluster_S000"><path d="M1287.75,748.6159 L1919.25,748.6159 A18.75,18.75 0 0 1 1938,767.3659 L1938,805.0065 L1269,805.0065 L1269,767.3659 A18.75,18.75 0 0 1 1287.75,748.6159" fill="#90EE90"/><rect fill="none" height="1224.795" rx="18.75" ry="18.75" style="stroke:#181818;stroke-width:0.75;" width="669" x="1269" y="748.6159"/><line style="stroke:#181818;stroke-width:0.75;" x1="1269" x2="1938" y1="805.0065" y2="805.0065"/><text fill="#000000" font-family="'&#24494;&#36719;&#38597;&#40657;'" font-size="42" lengthAdjust="spacing" textLength="210.0009" x="1498.4995" y="795.1013">&#24191;&#20041;&#25720;&#29260;&#32452;</text></g><!--cluster S040--><g class="cluster" data-entity="S040" data-source-line="37" data-uid="ent0012" id="cluster_S040"><path d="M29.25,92.5459 L704.25,92.5459 A18.75,18.75 0 0 1 723,111.2959 L723,148.9365 L10.5,148.9365 L10.5,111.2959 A18.75,18.75 0 0 1 29.25,92.5459" fill="#87CEFA"/><rect fill="none" height="1640.58" rx="18.75" ry="18.75" style="stroke:#181818;stroke-width:0.75;" width="712.5" x="10.5" y="92.5459"/><line style="stroke:#181818;stroke-width:0.75;" x1="10.5" x2="723" y1="148.9365" y2="148.9365"/><text fill="#000000" font-family="'&#24494;&#36719;&#38597;&#40657;'" font-size="42" lengthAdjust="spacing" textLength="210.0009" x="261.7495" y="139.0313">&#24191;&#20041;&#20999;&#29260;&#32452;</text></g><!--cluster S050--><g class="cluster" data-entity="S050" data-source-line="69" data-uid="ent0024" id="cluster_S050"><path d="M1103.25,2200.7959 L1592.25,2200.7959 A18.75,18.75 0 0 1 1611,2219.5459 L1611,2257.1865 L1084.5,2257.1865 L1084.5,2219.5459 A18.75,18.75 0 0 1 1103.25,2200.7959" fill="#20B2AA"/><rect fill="none" height="415.785" rx="18.75" ry="18.75" style="stroke:#181818;stroke-width:0.75;" width="526.5" x="1084.5" y="2200.7959"/><line style="stroke:#181818;stroke-width:0.75;" x1="1084.5" x2="1611" y1="2257.1865" y2="2257.1865"/><text fill="#000000" font-family="'&#24494;&#36719;&#38597;&#40657;'" font-size="42" lengthAdjust="spacing" textLength="126.0005" x="1284.7497" y="2247.2813">&#27969;&#23616;&#32452;</text></g><rect fill="#E0FFFF" height="112.7813" rx="18.75" ry="18.75" style="stroke:#181818;stroke-width:0.75;" width="290.2354" x="1417.875" y="916.6159"/><text fill="#000000" font-family="'&#24494;&#36719;&#38597;&#40657;'" font-size="42" lengthAdjust="spacing" textLength="84.0004" x="1520.9925" y="963.1013">&#24320;&#23616;</text><text fill="#000000" font-family="'&#24494;&#36719;&#38597;&#40657;'" font-size="42" lengthAdjust="spacing" textLength="275.2354" x="1425.375" y="1011.9919">roundBegin()</text><rect fill="#90EE90" height="112.7813" rx="18.75" ry="18.75" style="stroke:#181818;stroke-width:0.75;" width="178.4473" x="1298.28" y="1472.4559"/><text fill="#000000" font-family="'&#24494;&#36719;&#38597;&#40657;'" font-size="42" lengthAdjust="spacing" textLength="84.0004" x="1345.5034" y="1518.9413">&#25720;&#29260;</text><text fill="#000000" font-family="'&#24494;&#36719;&#38597;&#40657;'" font-size="42" lengthAdjust="spacing" textLength="163.4473" x="1305.78" y="1567.8319">mopai()</text><rect fill="#FFB6C1" height="112.7813" rx="18.75" ry="18.75" style="stroke:#181818;stroke-width:0.75;" width="342.8789" x="1571.565" y="1314.6709"/><text fill="#000000" font-family="'&#24494;&#36719;&#38597;&#40657;'" font-size="42" lengthAdjust="spacing" textLength="284.7726" x="1600.6182" y="1361.1563">&#30446;&#29577;&#20301;&#32622;(&#21487;&#36873;)</text><text fill="#000000" font-family="'&#24494;&#36719;&#38597;&#40657;'" font-size="42" lengthAdjust="spacing" textLength="327.8789" x="1579.065" y="1410.0469">setMuyuSeats()</text><rect fill="#FFA07A" height="112.7813" rx="18.75" ry="18.75" style="stroke:#181818;stroke-width:0.75;" width="217.4326" x="1484.28" y="1156.9009"/><text fill="#000000" font-family="'&#24494;&#36719;&#38597;&#40657;'" font-size="42" lengthAdjust="spacing" textLength="126.0005" x="1529.996" y="1203.3863">&#25442;&#19977;&#24352;</text><text fill="#000000" font-family="'&#24494;&#36719;&#38597;&#40657;'" font-size="42" lengthAdjust="spacing" textLength="202.4326" x="1491.78" y="1252.2769">huanpai()</text><rect fill="#F1F1F1" height="112.7813" rx="18.75" ry="18.75" style="stroke:#181818;stroke-width:0.75;" width="218.499" x="1639.755" y="1472.4559"/><text fill="#000000" font-family="'&#24494;&#36719;&#38597;&#40657;'" font-size="42" lengthAdjust="spacing" textLength="84.0004" x="1707.0043" y="1518.9413">&#23450;&#32570;</text><text fill="#000000" font-family="'&#24494;&#36719;&#38597;&#40657;'" font-size="42" lengthAdjust="spacing" textLength="203.499" x="1647.255" y="1567.8319">dingque()</text><text fill="#000000" font-family="'&#24494;&#36719;&#38597;&#40657;'" font-size="42" lengthAdjust="spacing" textLength="15.1553" x="1555.4224" y="711.7106">-</text><ellipse cx="1563" cy="748.6159" fill="#F1F1F1" rx="9" ry="9" style="stroke:#181818;stroke-width:2.25;"/><text fill="#000000" font-family="'&#24494;&#36719;&#38597;&#40657;'" font-size="42" lengthAdjust="spacing" textLength="15.1553" x="1288.4224" y="711.7106">-</text><ellipse cx="1296" cy="748.6159" fill="#F1F1F1" rx="9" ry="9" style="stroke:#181818;stroke-width:2.25;"/><rect fill="#555555" height="12" style="stroke:none;stroke-width:1.5;" width="120" x="1525.5" y="1727.1259"/><text fill="#000000" font-family="'&#24494;&#36719;&#38597;&#40657;'" font-size="42" lengthAdjust="spacing" textLength="35.1914" x="1567.9043" y="2021.3963">+</text><ellipse cx="1585.5" cy="1973.4109" fill="#F1F1F1" rx="9" ry="9" style="stroke:#181818;stroke-width:2.25;"/><line style="stroke:#181818;stroke-width:2.25;" x1="1592.0836" x2="1580.4164" y1="1979.9945" y2="1968.3273"/><line style="stroke:#181818;stroke-width:2.25;" x1="1592.0836" x2="1580.4164" y1="1968.3273" y2="1979.9945"/><rect fill="#87CEFA" height="112.7813" rx="18.75" ry="18.75" style="stroke:#181818;stroke-width:0.75;" width="176.0068" x="516.495" y="224.5459"/><text fill="#000000" font-family="'&#24494;&#36719;&#38597;&#40657;'" font-size="42" lengthAdjust="spacing" textLength="84.0004" x="562.4982" y="271.0313">&#20999;&#29260;</text><text fill="#000000" font-family="'&#24494;&#36719;&#38597;&#40657;'" font-size="42" lengthAdjust="spacing" textLength="161.0068" x="523.995" y="319.9219">qiepai()</text><rect fill="#FFA07A" height="112.7813" rx="18.75" ry="18.75" style="stroke:#181818;stroke-width:0.75;" width="225.0009" x="412.5" y="916.6159"/><text fill="#000000" font-family="'&#24494;&#36719;&#38597;&#40657;'" font-size="42" lengthAdjust="spacing" textLength="210.0009" x="420" y="963.1013">&#24320;&#29260;&#24182;&#25104;&#21151;</text><text fill="#000000" font-family="'&#24494;&#36719;&#38597;&#40657;'" font-size="42" lengthAdjust="spacing" textLength="158.5664" x="445.7173" y="1011.9919">kaipai()</text><rect fill="#8FBC8F" height="112.7813" rx="18.75" ry="18.75" style="stroke:#181818;stroke-width:0.75;" width="270.0762" x="89.955" y="916.6159"/><text fill="#000000" font-family="'&#24494;&#36719;&#38597;&#40657;'" font-size="42" lengthAdjust="spacing" textLength="210.0009" x="119.9926" y="963.1013">&#24320;&#29260;&#21518;&#38145;&#23450;</text><text fill="#000000" font-family="'&#24494;&#36719;&#38597;&#40657;'" font-size="42" lengthAdjust="spacing" textLength="255.0762" x="97.455" y="1011.9919">kaipaiLock()</text><rect fill="#555555" height="12" style="stroke:none;stroke-width:1.5;" width="120" x="337.5" y="515.2309"/><rect fill="#555555" height="12" style="stroke:none;stroke-width:1.5;" width="120" x="337.5" y="742.6159"/><rect fill="#555555" height="12" style="stroke:none;stroke-width:1.5;" width="120" x="556.5" y="1207.2859"/><rect fill="#555555" height="12" style="stroke:none;stroke-width:1.5;" width="120" x="165" y="1207.2859"/><rect fill="#555555" height="12" style="stroke:none;stroke-width:1.5;" width="120" x="514.5" y="1522.8559"/><text fill="#000000" font-family="'&#24494;&#36719;&#38597;&#40657;'" font-size="42" lengthAdjust="spacing" textLength="15.1553" x="688.4224" y="55.6406">-</text><ellipse cx="696" cy="92.5459" fill="#F1F1F1" rx="9" ry="9" style="stroke:#181818;stroke-width:2.25;"/><text fill="#000000" font-family="'&#24494;&#36719;&#38597;&#40657;'" font-size="42" lengthAdjust="spacing" textLength="35.1914" x="678.4043" y="1781.1113">+</text><ellipse cx="696" cy="1733.1259" fill="#F1F1F1" rx="9" ry="9" style="stroke:#181818;stroke-width:2.25;"/><line style="stroke:#181818;stroke-width:2.25;" x1="702.5836" x2="690.9164" y1="1739.7095" y2="1728.0423"/><line style="stroke:#181818;stroke-width:2.25;" x1="702.5836" x2="690.9164" y1="1728.0423" y2="1739.7095"/><text fill="#000000" font-family="'&#24494;&#36719;&#38597;&#40657;'" font-size="42" lengthAdjust="spacing" textLength="35.1914" x="607.9043" y="1781.1113">+</text><ellipse cx="625.5" cy="1733.1259" fill="#F1F1F1" rx="9" ry="9" style="stroke:#181818;stroke-width:2.25;"/><line style="stroke:#181818;stroke-width:2.25;" x1="632.0836" x2="620.4164" y1="1739.7095" y2="1728.0423"/><line style="stroke:#181818;stroke-width:2.25;" x1="632.0836" x2="620.4164" y1="1728.0423" y2="1739.7095"/><rect fill="#ADD8E6" height="112.7813" rx="18.75" ry="18.75" style="stroke:#181818;stroke-width:0.75;" width="183.0007" x="1108.5" y="2403.2959"/><text fill="#000000" font-family="'&#24494;&#36719;&#38597;&#40657;'" font-size="42" lengthAdjust="spacing" textLength="168.0007" x="1116" y="2449.7813">&#36884;&#20013;&#27969;&#23616;</text><text fill="#000000" font-family="'&#24494;&#36719;&#38597;&#40657;'" font-size="42" lengthAdjust="spacing" textLength="121.0166" x="1139.4921" y="2498.6719">liuju()</text><rect fill="#ADD8E6" height="112.7813" rx="18.75" ry="18.75" style="stroke:#181818;stroke-width:0.75;" width="244.0928" x="1343.46" y="2403.2959"/><text fill="#000000" font-family="'&#24494;&#36719;&#38597;&#40657;'" font-size="42" lengthAdjust="spacing" textLength="168.0007" x="1381.506" y="2449.7813">&#33618;&#29260;&#27969;&#23616;</text><text fill="#000000" font-family="'&#24494;&#36719;&#38597;&#40657;'" font-size="42" lengthAdjust="spacing" textLength="229.0928" x="1350.96" y="2498.6719">huangpai()</text><text fill="#000000" font-family="'&#24494;&#36719;&#38597;&#40657;'" font-size="42" lengthAdjust="spacing" textLength="15.1553" x="1129.4224" y="2163.8906">-</text><ellipse cx="1137" cy="2200.7959" fill="#F1F1F1" rx="9" ry="9" style="stroke:#181818;stroke-width:2.25;"/><text fill="#000000" font-family="'&#24494;&#36719;&#38597;&#40657;'" font-size="42" lengthAdjust="spacing" textLength="15.1553" x="1363.4224" y="2163.8906">-</text><ellipse cx="1371" cy="2200.7959" fill="#F1F1F1" rx="9" ry="9" style="stroke:#181818;stroke-width:2.25;"/><text fill="#000000" font-family="'&#24494;&#36719;&#38597;&#40657;'" font-size="42" lengthAdjust="spacing" textLength="35.1914" x="1447.9043" y="2664.5663">+</text><ellipse cx="1465.5" cy="2616.5809" fill="#F1F1F1" rx="9" ry="9" style="stroke:#181818;stroke-width:2.25;"/><line style="stroke:#181818;stroke-width:2.25;" x1="1472.0836" x2="1460.4164" y1="2623.1645" y2="2611.4973"/><line style="stroke:#181818;stroke-width:2.25;" x1="1472.0836" x2="1460.4164" y1="2611.4973" y2="2623.1645"/><rect fill="#E0FFFF" height="112.7813" rx="18.75" ry="18.75" style="stroke:#181818;stroke-width:0.75;" width="225.0009" x="1503" y="2717.0809"/><text fill="#000000" font-family="'&#24494;&#36719;&#38597;&#40657;'" font-size="42" lengthAdjust="spacing" textLength="210.0009" x="1510.5" y="2763.5663">&#26412;&#23567;&#23616;&#32467;&#26463;</text><text fill="#000000" font-family="'&#24494;&#36719;&#38597;&#40657;'" font-size="42" lengthAdjust="spacing" textLength="168.0007" x="1531.5001" y="2812.4569">&#24320;&#22987;&#32467;&#31639;</text><rect fill="#FFFF00" height="112.7813" rx="18.75" ry="18.75" style="stroke:#181818;stroke-width:0.75;" width="217.6992" x="999.645" y="464.8309"/><text fill="#000000" font-family="'&#24494;&#36719;&#38597;&#40657;'" font-size="42" lengthAdjust="spacing" textLength="196.3015" x="1010.3439" y="511.3163">&#21507;/&#30896;/&#26126;&#26464;</text><text fill="#000000" font-family="'&#24494;&#36719;&#38597;&#40657;'" font-size="42" lengthAdjust="spacing" textLength="202.6992" x="1007.145" y="560.2069">mingpai()</text><rect fill="#FFFF00" height="112.7813" rx="18.75" ry="18.75" style="stroke:#181818;stroke-width:0.75;" width="295.3019" x="968.355" y="1676.7409"/><text fill="#000000" font-family="'&#24494;&#36719;&#38597;&#40657;'" font-size="42" lengthAdjust="spacing" textLength="280.3019" x="975.855" y="1723.2263">&#26263;&#26464;/&#21152;&#26464;/&#25300;&#21271;</text><text fill="#000000" font-family="'&#24494;&#36719;&#38597;&#40657;'" font-size="42" lengthAdjust="spacing" textLength="236.4141" x="997.7989" y="1772.1169">zimingpai()</text><rect fill="#F08080" height="112.7813" rx="18.75" ry="18.75" style="stroke:#181818;stroke-width:0.75;" width="165.0762" x="1040.955" y="1917.0259"/><text fill="#000000" font-family="'&#24494;&#36719;&#38597;&#40657;'" font-size="42" lengthAdjust="spacing" textLength="84.0004" x="1081.4929" y="1963.5113">&#21644;&#29260;</text><text fill="#000000" font-family="'&#24494;&#36719;&#38597;&#40657;'" font-size="42" lengthAdjust="spacing" textLength="150.0762" x="1048.455" y="2012.4019">hupai()</text><ellipse cx="1563" cy="521.2309" fill="#222222" rx="15" ry="15" style="stroke:#222222;stroke-width:1.5;"/><ellipse cx="1615.5" cy="2937.8659" fill="none" rx="16.5" ry="16.5" style="stroke:#222222;stroke-width:1.5;"/><ellipse cx="1615.5" cy="2937.8659" fill="#222222" rx="9" ry="9" style="stroke:#222222;stroke-width:1.5;"/><!--link S1 to S9--><g class="link" data-entity-1="S1" data-entity-2="S9" data-source-line="17" data-uid="lnk2" id="link_S1_S9"><path d="M1651.995,1029.9109 C1668.33,1043.0059 1684.125,1057.9909 1696.5,1074.4009 C1749.165,1144.1659 1753.172,1240.9763 1749.407,1305.1613" fill="none" id="S1-to-S9" style="stroke:#181818;stroke-width:3;"/><polygon fill="#181818" points="1748.88,1314.1459,1755.6602,1301.0204,1749.3192,1306.6588,1743.6808,1300.3177,1748.88,1314.1459" style="stroke:#181818;stroke-width:3;"/><text fill="#000000" font-family="'&#24494;&#36719;&#38597;&#40657;'" font-size="30" lengthAdjust="spacing" textLength="119.9999" x="1717.5" y="1103.7476">&#40857;&#20043;&#30446;&#29577;</text></g><!--link S1 to S10--><g class="link" data-entity-1="S1" data-entity-2="S10" data-source-line="18" data-uid="lnk3" id="link_S1_S10"><path d="M1556.22,1029.6559 C1554.39,1054.8859 1554,1085.0659 1558.5,1111.9009 C1560.99,1126.7359 1562.5305,1133.8008 1567.4055,1148.1258" fill="none" id="S1-to-S10" style="stroke:#181818;stroke-width:3;"/><polygon fill="#181818" points="1570.305,1156.6459,1571.6358,1141.9327,1567.8887,1149.5458,1560.2756,1145.7987,1570.305,1156.6459" style="stroke:#181818;stroke-width:3;"/><text fill="#000000" font-family="'&#24494;&#36719;&#38597;&#40657;'" font-size="30" lengthAdjust="spacing" textLength="130.1073" x="1560" y="1103.7476">&#20462;&#32599;/&#24029;&#40635;</text></g><!--link S10 to S11--><g class="link" data-entity-1="S10" data-entity-2="S11" data-source-line="19" data-uid="lnk4" id="link_S10_S11"><path d="M1515.105,1270.2559 C1502.25,1283.2609 1490.775,1298.2009 1483.5,1314.6709 C1463.265,1360.5409 1454.97,1386.2509 1483.5,1427.4559 C1484.745,1429.2559 1558.1466,1456.7714 1630.6266,1483.6514" fill="none" id="S10-to-S11" style="stroke:#181818;stroke-width:3;"/><polygon fill="#181818" points="1639.065,1486.7809,1628.4937,1476.4611,1632.033,1484.173,1624.3211,1487.7123,1639.065,1486.7809" style="stroke:#181818;stroke-width:3;"/><text fill="#000000" font-family="'&#24494;&#36719;&#38597;&#40657;'" font-size="30" lengthAdjust="spacing" textLength="60" x="1485" y="1381.6676">&#24029;&#40635;</text></g><!--link S003 to S1--><g class="link" data-entity-1="S003" data-entity-2="S1" data-source-line="22" data-uid="lnk5" id="link_S003_S1"><path d="M1563,757.9909 C1563,782.8759 1563,852.3409 1563,906.8809" fill="none" id="S003-to-S1" style="stroke:#181818;stroke-width:3;"/><polygon fill="#181818" points="1563,915.8809,1569,902.3809,1563,908.3809,1557,902.3809,1563,915.8809" style="stroke:#181818;stroke-width:3;"/></g><!--link S001 to S3--><g class="link" data-entity-1="S001" data-entity-2="S3" data-source-line="25" data-uid="lnk6" id="link_S001_S3"><path d="M1296.96,758.3209 C1305.045,826.9459 1360.5126,1298.1426 1379.9226,1462.9926" fill="none" id="S001-to-S3" style="stroke:#181818;stroke-width:3;"/><polygon fill="#181818" points="1380.975,1471.9309,1385.3552,1457.8219,1380.098,1464.4824,1373.4375,1459.2251,1380.975,1471.9309" style="stroke:#181818;stroke-width:3;"/></g><!--link S1 to S009--><g class="link" data-entity-1="S1" data-entity-2="S009" data-source-line="28" data-uid="lnk7" id="link_S1_S009"><path d="M1523.205,1030.0309 C1500.315,1064.8009 1473.18,1111.4959 1458,1156.9009 C1438.89,1214.0659 1410.615,1374.0109 1438.5,1427.4559 C1454.67,1458.4459 1482.435,1444.1959 1503,1472.4559 C1533.855,1514.8309 1521.66,1535.2759 1537.5,1585.2409 C1555.11,1640.8309 1574.6725,1699.3632 1580.9425,1718.0532" fill="none" id="S1-to-S009" style="stroke:#181818;stroke-width:3;"/><polygon fill="#181818" points="1583.805,1726.5859,1585.1997,1711.8786,1581.4196,1719.4754,1573.8228,1715.6952,1583.805,1726.5859" style="stroke:#181818;stroke-width:3;"/></g><!--link S3 to S009--><g class="link" data-entity-1="S3" data-entity-2="S009" data-source-line="29" data-uid="lnk8" id="link_S3_S009"><path d="M1442.13,1585.8859 C1492.5,1637.0809 1555.8622,1701.5112 1574.4622,1720.4112" fill="none" id="S3-to-S009" style="stroke:#181818;stroke-width:3;"/><polygon fill="#181818" points="1580.775,1726.8259,1575.5822,1712.9953,1575.5143,1721.4803,1567.0293,1721.4125,1580.775,1726.8259" style="stroke:#181818;stroke-width:3;"/></g><!--link S9 to S009--><g class="link" data-entity-1="S9" data-entity-2="S009" data-source-line="30" data-uid="lnk9" id="link_S9_S009"><path d="M1847.085,1428.0709 C1861.965,1440.6409 1875.18,1455.4009 1884,1472.4559 C1907.025,1516.9909 1910.52,1542.7009 1884,1585.2409 C1825.38,1679.2909 1695.6382,1713.0095 1630.0132,1724.7995" fill="none" id="S9-to-S009" style="stroke:#181818;stroke-width:3;"/><polygon fill="#181818" points="1621.155,1726.3909,1635.5032,1729.9092,1628.5368,1725.0647,1633.3813,1718.0983,1621.155,1726.3909" style="stroke:#181818;stroke-width:3;"/></g><!--link S10 to S009--><g class="link" data-entity-1="S10" data-entity-2="S009" data-source-line="31" data-uid="lnk10" id="link_S10_S009"><path d="M1488.915,1270.2859 C1474.035,1282.8559 1460.82,1297.6309 1452,1314.6709 C1440.495,1336.9459 1438.755,1406.1859 1452,1427.4559 C1475.955,1465.9309 1516.545,1436.0359 1543.5,1472.4559 C1605.6,1556.3659 1591.4295,1688.6289 1587.4845,1717.4739" fill="none" id="S10-to-S009" style="stroke:#181818;stroke-width:3;"/><polygon fill="#181818" points="1586.265,1726.3909,1594.039,1713.8284,1587.2813,1718.9601,1582.1496,1712.2024,1586.265,1726.3909" style="stroke:#181818;stroke-width:3;"/></g><!--link S11 to S009--><g class="link" data-entity-1="S11" data-entity-2="S009" data-source-line="32" data-uid="lnk11" id="link_S11_S009"><path d="M1703.895,1585.8859 C1662.3,1637.0809 1610.4362,1700.9416 1595.0762,1719.8416" fill="none" id="S11-to-S009" style="stroke:#181818;stroke-width:3;"/><polygon fill="#181818" points="1589.4,1726.8259,1602.5705,1720.1335,1594.1301,1721.0056,1593.258,1712.5653,1589.4,1726.8259" style="stroke:#181818;stroke-width:3;"/></g><!--link S009 to S002--><g class="link" data-entity-1="S009" data-entity-2="S002" data-source-line="35" data-uid="lnk12" id="link_S009_S002"><path d="M1585.5,1739.5909 C1585.5,1769.5309 1585.5,1917.3109 1585.5,1954.8409" fill="none" id="S009-to-S002" style="stroke:#181818;stroke-width:3;"/><polygon fill="#181818" points="1585.5,1963.8409,1591.5,1950.3409,1585.5,1956.3409,1579.5,1950.3409,1585.5,1963.8409" style="stroke:#181818;stroke-width:3;"/></g><!--link S2 to S049--><g class="link" data-entity-1="S2" data-entity-2="S049" data-source-line="43" data-uid="lnk13" id="link_S2_S049"><path d="M540.18,337.9909 C525.27,351.9259 509.865,367.2259 496.5,382.3309 C454.035,430.3309 416.846,488.5671 405.341,507.0771" fill="none" id="S2-to-S049" style="stroke:#181818;stroke-width:3;"/><polygon fill="#181818" points="400.59,514.7209,412.8124,506.4226,404.5492,508.3511,402.6207,500.0878,400.59,514.7209" style="stroke:#181818;stroke-width:3;"/><text fill="#000000" font-family="'&#24494;&#36719;&#38597;&#40657;'" font-size="30" lengthAdjust="spacing" textLength="179.9999" x="498" y="411.6776">&#26263;&#22812;&#20043;&#25112;&#26263;&#29260;</text></g><!--link S049 to S048--><g class="link" data-entity-1="S049" data-entity-2="S048" data-source-line="45" data-uid="lnk14" id="link_S049_S048"><path d="M397.5,527.8309 C397.5,557.9659 397.5,703.2709 397.5,733.1059" fill="none" id="S049-to-S048" style="stroke:#181818;stroke-width:3;"/><polygon fill="#181818" points="397.5,742.1059,403.5,728.6059,397.5,734.6059,391.5,728.6059,397.5,742.1059" style="stroke:#181818;stroke-width:3;"/><text fill="#000000" font-family="'&#24494;&#36719;&#38597;&#40657;'" font-size="30" lengthAdjust="spacing" textLength="119.9999" x="399" y="669.2126">&#26377;&#20154;&#24320;&#29260;</text></g><!--link S048 to S12--><g class="link" data-entity-1="S048" data-entity-2="S12" data-source-line="46" data-uid="lnk15" id="link_S048_S12"><path d="M400.41,755.1559 C412.56,776.2609 455.7827,851.3222 488.5127,908.1422" fill="none" id="S048-to-S12" style="stroke:#181818;stroke-width:3;"/><polygon fill="#181818" points="493.005,915.9409,491.4657,901.248,489.2614,909.442,481.0675,907.2377,493.005,915.9409" style="stroke:#181818;stroke-width:3;"/><text fill="#000000" font-family="'&#24494;&#36719;&#38597;&#40657;'" font-size="30" lengthAdjust="spacing" textLength="60" x="447" y="831.9626">&#25104;&#21151;</text></g><!--link S048 to S13--><g class="link" data-entity-1="S048" data-entity-2="S13" data-source-line="47" data-uid="lnk16" id="link_S048_S13"><path d="M393.36,754.9909 C385.545,764.1859 368.145,784.8259 354,802.6159 C324.255,840.0109 297.0047,875.6058 271.9997,908.7558" fill="none" id="S048-to-S13" style="stroke:#181818;stroke-width:3;"/><polygon fill="#181818" points="266.58,915.9409,279.4997,908.7763,271.0965,909.9533,269.9195,901.55,266.58,915.9409" style="stroke:#181818;stroke-width:3;"/><text fill="#000000" font-family="'&#24494;&#36719;&#38597;&#40657;'" font-size="30" lengthAdjust="spacing" textLength="60" x="355.5" y="831.9626">&#38145;&#23450;</text></g><!--link S2 to S047--><g class="link" data-entity-1="S2" data-entity-2="S047" data-source-line="49" data-uid="lnk17" id="link_S2_S047"><path d="M658.26,337.7959 C668.58,351.3859 678.015,366.5959 684,382.3309 C705.735,439.4959 691.5,458.5759 691.5,519.7309 C691.5,519.7309 691.5,519.7309 691.5,974.5009 C691.5,1072.1509 637.4391,1174.4565 623.7441,1198.9365" fill="none" id="S2-to-S047" style="stroke:#181818;stroke-width:3;"/><polygon fill="#181818" points="619.35,1206.7909,631.1774,1197.9386,623.0117,1200.2455,620.7048,1192.0799,619.35,1206.7909" style="stroke:#181818;stroke-width:3;"/></g><!--link S12 to S047--><g class="link" data-entity-1="S12" data-entity-2="S047" data-source-line="50" data-uid="lnk18" id="link_S12_S047"><path d="M546.45,1030.1359 C570.12,1091.5009 602.7639,1176.1628 611.3589,1198.4678" fill="none" id="S12-to-S047" style="stroke:#181818;stroke-width:3;"/><polygon fill="#181818" points="614.595,1206.8659,615.3395,1192.1114,611.8982,1199.8675,604.1421,1196.4262,614.595,1206.8659" style="stroke:#181818;stroke-width:3;"/></g><!--link S13 to S046--><g class="link" data-entity-1="S13" data-entity-2="S046" data-source-line="52" data-uid="lnk19" id="link_S13_S046"><path d="M225,1030.1359 C225,1091.5009 225,1175.5609 225,1197.8659" fill="none" id="S13-to-S046" style="stroke:#181818;stroke-width:3;"/><polygon fill="#181818" points="225,1206.8659,231,1193.3659,225,1199.3659,219,1193.3659,225,1206.8659" style="stroke:#181818;stroke-width:3;"/></g><!--link S049 to S046--><g class="link" data-entity-1="S049" data-entity-2="S046" data-source-line="53" data-uid="lnk20" id="link_S049_S046"><path d="M388.35,527.8759 C342.195,554.4559 134.46,681.4609 63,852.1159 C32.565,924.7909 35.01,955.7359 63,1029.4009 C95.79,1115.7109 182.8724,1182.0715 210.1724,1201.4215" fill="none" id="S049-to-S046" style="stroke:#181818;stroke-width:3;"/><polygon fill="#181818" points="217.515,1206.6259,209.9706,1193.9242,211.3961,1202.2889,203.0315,1203.7144,217.515,1206.6259" style="stroke:#181818;stroke-width:3;"/><text fill="#000000" font-family="'&#24494;&#36719;&#38597;&#40657;'" font-size="30" lengthAdjust="spacing" textLength="119.9999" x="88.5" y="831.9626">&#26080;&#20154;&#24320;&#29260;</text></g><!--link S047 to S045--><g class="link" data-entity-1="S047" data-entity-2="S045" data-source-line="55" data-uid="lnk21" id="link_S047_S045"><path d="M615.84,1219.6909 C610.935,1256.2009 581.3989,1476.0161 576.3889,1513.2911" fill="none" id="S047-to-S045" style="stroke:#181818;stroke-width:3;"/><polygon fill="#181818" points="575.19,1522.2109,582.9348,1509.6305,576.1891,1514.7777,571.0418,1508.032,575.19,1522.2109" style="stroke:#181818;stroke-width:3;"/></g><!--link S046 to S045--><g class="link" data-entity-1="S046" data-entity-2="S045" data-source-line="56" data-uid="lnk22" id="link_S046_S045"><path d="M230.49,1219.6909 C271.305,1256.2009 520.3611,1478.9367 562.0461,1516.2117" fill="none" id="S046-to-S045" style="stroke:#181818;stroke-width:3;"/><polygon fill="#181818" points="568.755,1522.2109,562.691,1508.7395,563.1642,1517.2116,554.6921,1517.6848,568.755,1522.2109" style="stroke:#181818;stroke-width:3;"/></g><!--link S041 to S2--><g class="link" data-entity-1="S041" data-entity-2="S2" data-source-line="59" data-uid="lnk23" id="link_S041_S2"><path d="M692.07,102.0259 C681.81,122.8159 657.488,172.0752 635.813,215.9952" fill="none" id="S041-to-S2" style="stroke:#181818;stroke-width:3;"/><polygon fill="#181818" points="631.83,224.0659,643.1849,214.6152,635.1491,217.3403,632.424,209.3046,631.83,224.0659" style="stroke:#181818;stroke-width:3;"/></g><!--link S047 to S042--><g class="link" data-entity-1="S047" data-entity-2="S042" data-source-line="63" data-uid="lnk24" id="link_S047_S042"><path d="M617.385,1219.6909 C622.05,1245.7009 644.28,1370.2309 660,1472.4559 C675.195,1571.2309 689.7051,1682.7247 693.8151,1714.6297" fill="none" id="S047-to-S042" style="stroke:#181818;stroke-width:3;"/><polygon fill="#181818" points="694.965,1723.5559,699.191,1709.4,694.0068,1716.1174,687.2894,1710.9331,694.965,1723.5559" style="stroke:#181818;stroke-width:3;"/></g><!--link S045 to S043--><g class="link" data-entity-1="S045" data-entity-2="S043" data-source-line="67" data-uid="lnk25" id="link_S045_S043"><path d="M575.76,1535.3209 C582.57,1562.2009 612.7587,1681.3668 621.2487,1714.8618" fill="none" id="S045-to-S043" style="stroke:#181818;stroke-width:3;"/><polygon fill="#181818" points="623.46,1723.5859,625.9591,1709.0255,621.6172,1716.3158,614.327,1711.9739,623.46,1723.5859" style="stroke:#181818;stroke-width:3;"/></g><!--link S051 to S7--><g class="link" data-entity-1="S051" data-entity-2="S7" data-source-line="75" data-uid="lnk26" id="link_S051_S7"><path d="M1138.95,2210.2459 C1146.015,2238.9259 1168.4631,2330.1169 1184.1981,2394.0169" fill="none" id="S051-to-S7" style="stroke:#181818;stroke-width:3;"/><polygon fill="#181818" points="1186.35,2402.7559,1188.9481,2388.2129,1184.5567,2395.4734,1177.2962,2391.0821,1186.35,2402.7559" style="stroke:#181818;stroke-width:3;"/></g><!--link S051 to S8--><g class="link" data-entity-1="S051" data-entity-2="S8" data-source-line="76" data-uid="lnk27" id="link_S051_S8"><path d="M1146.54,2209.2859 C1173.69,2229.1909 1253.58,2288.0509 1318.5,2338.7959 C1344.915,2359.4509 1366.6506,2376.9225 1391.6256,2397.2925" fill="none" id="S051-to-S8" style="stroke:#181818;stroke-width:3;"/><polygon fill="#181818" points="1398.6,2402.9809,1391.9307,2389.7987,1392.788,2398.2406,1384.3462,2399.0979,1398.6,2402.9809" style="stroke:#181818;stroke-width:3;"/></g><!--link S052 to S7--><g class="link" data-entity-1="S052" data-entity-2="S7" data-source-line="80" data-uid="lnk28" id="link_S052_S7"><path d="M1365.69,2210.2459 C1346.535,2238.9259 1284.7558,2331.3731 1242.0508,2395.2731" fill="none" id="S052-to-S7" style="stroke:#181818;stroke-width:3;"/><polygon fill="#181818" points="1237.05,2402.7559,1249.5397,2394.8656,1241.2173,2396.5203,1239.5627,2388.1979,1237.05,2402.7559" style="stroke:#181818;stroke-width:3;"/></g><!--link S7 to S053--><g class="link" data-entity-1="S7" data-entity-2="S053" data-source-line="83" data-uid="lnk29" id="link_S7_S053"><path d="M1292.115,2514.5809 C1354.425,2550.7009 1422.149,2589.9566 1448.279,2605.1066" fill="none" id="S7-to-S053" style="stroke:#181818;stroke-width:3;"/><polygon fill="#181818" points="1456.065,2609.6209,1447.3955,2597.6589,1449.5767,2605.859,1441.3765,2608.0402,1456.065,2609.6209" style="stroke:#181818;stroke-width:3;"/></g><!--link S8 to S053--><g class="link" data-entity-1="S8" data-entity-2="S053" data-source-line="84" data-uid="lnk30" id="link_S8_S053"><path d="M1465.5,2516.7559 C1465.5,2550.5059 1465.5,2581.2109 1465.5,2597.9809" fill="none" id="S8-to-S053" style="stroke:#181818;stroke-width:3;"/><polygon fill="#181818" points="1465.5,2606.9809,1471.5,2593.4809,1465.5,2599.4809,1459.5,2593.4809,1465.5,2606.9809" style="stroke:#181818;stroke-width:3;"/></g><!--link *start* to S003--><g class="link" data-entity-1=".start." data-entity-2="S003" data-source-line="91" data-uid="lnk32" id="link_.start._S003"><path d="M1563,536.7559 C1563,579.3559 1563,697.2709 1563,730.2259" fill="none" id="*start*-to-S003" style="stroke:#181818;stroke-width:1.5;stroke-dasharray:10.5,10.5;"/><polygon fill="#181818" points="1563,739.2259,1569,725.7259,1563,731.7259,1557,725.7259,1563,739.2259" style="stroke:#181818;stroke-width:1.5;"/></g><!--link S002 to S041--><g class="link" data-entity-1="S002" data-entity-2="S041" data-source-line="94" data-uid="lnk33" id="link_S002_S041"><path d="M1595.205,1970.4409 C1673.835,1958.2159 2203.5,1870.8259 2203.5,1734.6259 C2203.5,279.4459 2203.5,279.4459 2203.5,279.4459 C2203.5,118.5859 843.0141,96.075 714.6291,94.305" fill="none" id="S002-to-S041" style="stroke:#008000;stroke-width:3;"/><polygon fill="#008000" points="705.63,94.1809,719.046,100.3664,713.1293,94.2843,719.2114,88.3676,705.63,94.1809" style="stroke:#008000;stroke-width:3;"/></g><!--link S002 to S5--><g class="link" data-entity-1="S002" data-entity-2="S5" data-source-line="95" data-uid="lnk34" id="link_S002_S5"><path d="M1576.335,1967.2759 C1533.255,1945.5109 1356.0824,1855.9706 1234.1024,1794.3206" fill="none" id="S002-to-S5" style="stroke:#181818;stroke-width:3;"/><polygon fill="#181818" points="1226.07,1790.2609,1235.4121,1801.7053,1232.7637,1793.6439,1240.825,1790.9955,1226.07,1790.2609" style="stroke:#181818;stroke-width:3;"/><text fill="#000000" font-family="'&#24494;&#36719;&#38597;&#40657;'" font-size="30" lengthAdjust="spacing" textLength="119.9999" x="1380" y="1863.8726">&#33258;&#23478;&#40483;&#29260;</text></g><!--link S002 to S6--><g class="link" data-entity-1="S002" data-entity-2="S6" data-source-line="96" data-uid="lnk35" id="link_S002_S6"><path d="M1575.87,1973.4109 C1452.75,1973.4109 1338.63,1973.4109 1215.51,1973.4109" fill="none" id="S002-to-S6" style="stroke:#FF0000;stroke-width:3;"/><polygon fill="#FF0000" points="1206.51,1973.4109,1220.01,1979.4109,1214.01,1973.4109,1220.01,1967.4109,1206.51,1973.4109" style="stroke:#FF0000;stroke-width:3;"/></g><!--link S002 to S052--><g class="link" data-entity-1="S002" data-entity-2="S052" data-source-line="97" data-uid="lnk36" id="link_S002_S052"><path d="M1577.865,1982.9059 C1544.58,2017.7209 1418.5277,2149.574 1384.9877,2184.674" fill="none" id="S002-to-S052" style="stroke:#0000FF;stroke-width:3;"/><polygon fill="#0000FF" points="1378.77,2191.1809,1392.4345,2185.5657,1383.9514,2185.7585,1383.7586,2177.2754,1378.77,2191.1809" style="stroke:#0000FF;stroke-width:3;"/></g><!--link S042 to S4--><g class="link" data-entity-1="S042" data-entity-2="S4" data-source-line="100" data-uid="lnk37" id="link_S042_S4"><path d="M697.29,1723.7209 C700.83,1701.7759 710.865,1638.2959 717,1585.2409 C743.19,1358.8309 689.37,1290.4309 762,1074.4009 C829.305,874.1959 977.0796,679.4417 1055.1996,584.9717" fill="none" id="S042-to-S4" style="stroke:#181818;stroke-width:3;"/><polygon fill="#181818" points="1060.935,578.0359,1047.708,584.616,1056.1555,583.8157,1056.9558,592.2632,1060.935,578.0359" style="stroke:#181818;stroke-width:3;"/><text fill="#000000" font-family="'&#24494;&#36719;&#38597;&#40657;'" font-size="30" lengthAdjust="spacing" textLength="119.9999" x="763.5" y="1103.7476">&#20182;&#23478;&#40483;&#29260;</text></g><!--link S042 to S6--><g class="link" data-entity-1="S042" data-entity-2="S6" data-source-line="101" data-uid="lnk38" id="link_S042_S6"><path d="M702.9,1742.6059 C723.285,1765.6759 785.805,1833.3409 850.5,1872.0259 C910.065,1907.6359 975.775,1931.2568 1031.83,1947.8468" fill="none" id="S042-to-S6" style="stroke:#FF0000;stroke-width:3;"/><polygon fill="#FF0000" points="1040.46,1950.4009,1029.2178,1940.8164,1033.2684,1948.2725,1025.8123,1952.323,1040.46,1950.4009" style="stroke:#FF0000;stroke-width:3;"/></g><!--link S043 to S001--><g class="link" data-entity-1="S043" data-entity-2="S001" data-source-line="103" data-uid="lnk39" id="link_S043_S001"><path d="M630.645,1723.4509 C648.705,1694.6659 708.615,1599.1759 717,1585.2409 C758.82,1515.8059 776.46,1501.9159 808.5,1427.4559 C822.81,1394.2159 965.97,826.6909 993,802.6159 C1038.045,762.4909 1230.7119,752.6437 1277.3619,750.8137" fill="none" id="S043-to-S001" style="stroke:#008000;stroke-width:3;"/><polygon fill="#008000" points="1286.355,750.4609,1272.6302,744.9947,1278.8608,750.7549,1273.1006,756.9855,1286.355,750.4609" style="stroke:#008000;stroke-width:3;"/></g><!--link S043 to S051--><g class="link" data-entity-1="S043" data-entity-2="S051" data-source-line="104" data-uid="lnk40" id="link_S043_S051"><path d="M629.325,1742.2159 C635.1,1753.2709 646.77,1774.1659 660,1789.5259 C823.17,1978.9459 1068.7051,2152.2777 1120.2301,2187.7977" fill="none" id="S043-to-S051" style="stroke:#0000FF;stroke-width:3;"/><polygon fill="#0000FF" points="1127.64,2192.9059,1119.9306,2180.3037,1121.4651,2188.6491,1113.1197,2190.1835,1127.64,2192.9059" style="stroke:#0000FF;stroke-width:3;"/></g><!--link S053 to S0--><g class="link" data-entity-1="S053" data-entity-2="S0" data-source-line="107" data-uid="lnk41" id="link_S053_S0"><path d="M1473.15,2625.9259 C1489.32,2642.5309 1521.9778,2676.0312 1555.0378,2709.9462" fill="none" id="S053-to-S0" style="stroke:#181818;stroke-width:1.5;stroke-dasharray:10.5,10.5;"/><polygon fill="#181818" points="1561.32,2716.3909,1556.1931,2702.5357,1556.0848,2711.0203,1547.6002,2710.912,1561.32,2716.3909" style="stroke:#181818;stroke-width:1.5;"/></g><!--link S4 to S041--><g class="link" data-entity-1="S4" data-entity-2="S041" data-source-line="110" data-uid="lnk42" id="link_S4_S041"><path d="M1054.86,464.3659 C955.02,361.3309 753.1277,153.0096 710.1377,108.6396" fill="none" id="S4-to-S041" style="stroke:#181818;stroke-width:3;"/><polygon fill="#181818" points="703.875,102.1759,708.9599,116.0465,709.0939,107.5623,717.5781,107.6963,703.875,102.1759" style="stroke:#181818;stroke-width:3;"/><text fill="#000000" font-family="'&#24494;&#36719;&#38597;&#40657;'" font-size="30" lengthAdjust="spacing" textLength="100.1074" x="930" y="291.5426">&#21507;/&#30896;&#21518;</text></g><!--link S4 to S001--><g class="link" data-entity-1="S4" data-entity-2="S001" data-source-line="111" data-uid="lnk43" id="link_S4_S001"><path d="M1154.85,578.1859 C1201.26,633.7459 1262.9444,707.5544 1283.8244,732.5444" fill="none" id="S4-to-S001" style="stroke:#181818;stroke-width:3;"/><polygon fill="#181818" points="1289.595,739.4509,1285.5434,725.244,1284.7861,733.6955,1276.3347,732.9382,1289.595,739.4509" style="stroke:#181818;stroke-width:3;"/><text fill="#000000" font-family="'&#24494;&#36719;&#38597;&#40657;'" font-size="30" lengthAdjust="spacing" textLength="89.9999" x="1266" y="651.9626">&#26126;&#26464;&#21518;</text><text fill="#000000" font-family="'&#24494;&#36719;&#38597;&#40657;'" font-size="30" lengthAdjust="spacing" textLength="119.9999" x="1251" y="686.8845">&#23725;&#19978;&#25720;&#29260;</text></g><!--link S4 to S0--><g class="link" data-entity-1="S4" data-entity-2="S0" data-source-line="112" data-uid="lnk44" id="link_S4_S0"><path d="M1217.67,538.6909 C1456.17,575.0359 2002.5,667.0609 2002.5,747.1159 C2002.5,747.1159 2002.5,747.1159 2002.5,2618.0809 C2002.5,2677.5559 1851.4856,2722.1707 1737.2606,2747.8657" fill="none" id="S4-to-S0" style="stroke:#008B8B;stroke-width:3;"/><polygon fill="#008B8B" points="1728.48,2749.8409,1742.9677,2752.7318,1735.7972,2748.1949,1740.3341,2741.0244,1728.48,2749.8409" style="stroke:#008B8B;stroke-width:3;"/><text fill="#000000" font-family="'&#24494;&#36719;&#38597;&#40657;'" font-size="30" lengthAdjust="spacing" textLength="119.9999" x="2004" y="1726.4726">&#24029;&#40635;&#21038;&#39118;</text><text fill="#000000" font-family="'&#24494;&#36719;&#38597;&#40657;'" font-size="30" lengthAdjust="spacing" textLength="119.9999" x="2004" y="1761.3945">&#19979;&#38632;&#20987;&#39134;</text></g><!--link S5 to S001--><g class="link" data-entity-1="S5" data-entity-2="S001" data-source-line="115" data-uid="lnk45" id="link_S5_S001"><path d="M1132.005,1676.1859 C1142.205,1636.0459 1153.5,1580.2909 1153.5,1530.3559 C1153.5,971.5009 1153.5,971.5009 1153.5,971.5009 C1153.5,872.7709 1247.946,788.699 1279.656,763.064" fill="none" id="S5-to-S001" style="stroke:#181818;stroke-width:3;"/><polygon fill="#181818" points="1286.655,757.4059,1272.3845,761.2271,1280.8225,762.121,1279.9286,770.5591,1286.655,757.4059" style="stroke:#181818;stroke-width:3;"/><text fill="#000000" font-family="'&#24494;&#36719;&#38597;&#40657;'" font-size="30" lengthAdjust="spacing" textLength="119.9999" x="1155" y="1223.8826">&#23725;&#19978;&#25720;&#29260;</text></g><!--link S5 to S6--><g class="link" data-entity-1="S5" data-entity-2="S6" data-source-line="116" data-uid="lnk46" id="link_S5_S6"><path d="M1117.755,1790.2609 C1118.955,1828.3459 1120.2575,1869.6305 1121.4725,1907.6405" fill="none" id="S5-to-S6" style="stroke:#FF0000;stroke-width:3;"/><polygon fill="#FF0000" points="1121.76,1916.6359,1127.3256,1902.9511,1121.5204,1909.1397,1115.3318,1903.3345,1121.76,1916.6359" style="stroke:#FF0000;stroke-width:3;"/></g><!--link S5 to S0--><g class="link" data-entity-1="S5" data-entity-2="S0" data-source-line="117" data-uid="lnk47" id="link_S5_S0"><path d="M1048.41,1790.1109 C1002.84,1834.0759 951,1899.9109 951,1971.9109 C951,1971.9109 951,1971.9109 951,2618.0809 C951,2729.9209 1303.7187,2760.1106 1493.4087,2768.4506" fill="none" id="S5-to-S0" style="stroke:#008B8B;stroke-width:3;"/><polygon fill="#008B8B" points="1502.4,2768.8459,1489.1766,2762.2587,1494.9072,2768.5165,1488.6495,2774.2471,1502.4,2768.8459" style="stroke:#008B8B;stroke-width:3;"/><text fill="#000000" font-family="'&#24494;&#36719;&#38597;&#40657;'" font-size="30" lengthAdjust="spacing" textLength="119.9999" x="952.5" y="2284.1426">&#24029;&#40635;&#21038;&#39118;</text><text fill="#000000" font-family="'&#24494;&#36719;&#38597;&#40657;'" font-size="30" lengthAdjust="spacing" textLength="119.9999" x="952.5" y="2319.0645">&#19979;&#38632;&#20987;&#39134;</text></g><!--link S6 to S001--><g class="link" data-entity-1="S6" data-entity-2="S001" data-source-line="120" data-uid="lnk48" id="link_S6_S001"><path d="M1044.405,1916.5009 C1005.69,1884.4009 962.97,1840.3159 942,1789.5259 C861.18,1593.7309 936.015,1521.3259 982.5,1314.6709 C1030.2,1102.5859 1022.37,1033.9609 1141.5,852.1159 C1178.49,795.6559 1250.277,766.2165 1277.937,756.3615" fill="none" id="S6-to-S001" style="stroke:#181818;stroke-width:3;"/><polygon fill="#181818" points="1286.415,753.3409,1271.6843,752.2199,1279.35,755.8581,1275.7118,763.5238,1286.415,753.3409" style="stroke:#181818;stroke-width:3;"/><text fill="#000000" font-family="'&#24494;&#36719;&#38597;&#40657;'" font-size="30" lengthAdjust="spacing" textLength="130.1073" x="984" y="1364.4176">&#20462;&#32599;/&#24029;&#40635;</text><text fill="#000000" font-family="'&#24494;&#36719;&#38597;&#40657;'" font-size="30" lengthAdjust="spacing" textLength="119.9999" x="989.0537" y="1399.3395">&#36884;&#20013;&#21644;&#29260;</text></g><!--link S6 to S051--><g class="link" data-entity-1="S6" data-entity-2="S051" data-source-line="121" data-uid="lnk49" id="link_S6_S051"><path d="M1126.83,2030.3809 C1130.175,2085.9259 1134.4958,2157.6721 1135.9958,2182.6621" fill="none" id="S6-to-S051" style="stroke:#181818;stroke-width:3;"/><polygon fill="#181818" points="1136.535,2191.6459,1141.7154,2177.8107,1136.0856,2184.1594,1129.7369,2178.5296,1136.535,2191.6459" style="stroke:#181818;stroke-width:3;"/><text fill="#000000" font-family="'&#24494;&#36719;&#38597;&#40657;'" font-size="30" lengthAdjust="spacing" textLength="130.1073" x="1134" y="2104.1426">&#20462;&#32599;/&#24029;&#40635;</text><text fill="#000000" font-family="'&#24494;&#36719;&#38597;&#40657;'" font-size="30" lengthAdjust="spacing" textLength="119.9999" x="1139.0537" y="2139.0645">&#36884;&#20013;&#21644;&#29260;</text></g><!--link S6 to S0--><g class="link" data-entity-1="S6" data-entity-2="S0" data-source-line="122" data-uid="lnk50" id="link_S6_S0"><path d="M1206.555,2008.1059 C1358.67,2069.0659 1666.5,2193.1609 1666.5,2199.2959 C1666.5,2199.2959 1666.5,2199.2959 1666.5,2618.0809 C1666.5,2651.8609 1658.7513,2679.476 1646.8413,2708.111" fill="none" id="S6-to-S0" style="stroke:#181818;stroke-width:1.5;stroke-dasharray:10.5,10.5;"/><polygon fill="#181818" points="1643.385,2716.4209,1654.1093,2706.2603,1646.2652,2709.496,1643.0295,2701.6519,1643.385,2716.4209" style="stroke:#181818;stroke-width:1.5;"/></g><!--link S0 to *end*--><g class="link" data-entity-1="S0" data-entity-2=".end." data-source-line="125" data-uid="lnk52" id="link_S0_.end."><path d="M1615.5,2830.5109 C1615.5,2862.6109 1615.5,2891.6059 1615.5,2912.2159" fill="none" id="S0-to-*end*" style="stroke:#181818;stroke-width:1.5;stroke-dasharray:10.5,10.5;"/><polygon fill="#181818" points="1615.5,2921.2159,1621.5,2907.7159,1615.5,2913.7159,1609.5,2907.7159,1615.5,2921.2159" style="stroke:#181818;stroke-width:1.5;"/></g><!--SRC=[dLRVRzjK57xtNt7LFh01fR5Z9-aqLM9Cy3BGfF22wZrupLrYubntZYsMJKYT03NfhtMZ8gK_e5gHG8Xb0yH8axRxPsAx_Y-uzhKTtviRXCX3qfxpVUUSUyztxhqrlG81RApOBL21pMLBNx5r4mdDPSs0G7nF4Pfr7QrebjR0_dkQOzYVmWVs-uPUHGs8RB2Clw0rYVhGHFOdMWE26VUYTtd-CZZu9XW-dSa0Ruw1PVqX158kuopRcWt18o00_1b3IiANWa1yC-xfcz5fntlQzpkR_l3h6Q0rGJcNou7PMtgrPdzaGOZ0eoX0mZXRTNzVLP5bEgXo0rPrTEKgeOanwOEMXh8C4br53ND5qnDmFfiXY_OFUlvsPtI-vP_thhXFNWQhdQigQaBxOwVbbA5cDvCG2t68spggK_csde_w7VViM4KrHqEPf6Aohh9cD4mghTlRzyy6Agheg7hVWIb350XA17DBTqsZScTkCSny3GGNtuzEDqYr70XETGsCtlJyy-wy-_THC1Z6e1o54Z4gTcUhcKiQaGVNhsDnMAtRfexinKK22ktPA7okE8LBrPddSnSmzvvfrHCMnS5kOirphGjSAxtmiNaYShQUTv9wf70j3tIRMGgJIiBAfeJjjjSeOSkf0Egj6uO36Mb7Q1NTrs56D19DOMO14zpJrrvxnrt_KKLrJS_AJPekDyBSsGvs7sFf9SnRvd8zPUCHkQbPTQnvCYIyHibieoHgH-HGgTv-r_tf48lLQ-_Xlt5URgGI4oaaKx5AOQp3pcWm8DKdi1AbHIb4HTl1z-V3sOaMpQsY-E_hASQguPkPM0LMnBHUvSAKXHR29NIFcOKomPM9xIhIKPJ4Nc3jt7XJfbMcvaEAhD7NMy3Rks2AIyP5veyBMw4an95mFwP5olCZANIa_7ZmlByUu_jXF79AEdAnZkcP2rPtH_qNXAGYGtS-Tv81ACP4TkekjvxXQXDAUCHNCqDNohBYzSN7m9z3tiuhKtPUeNQ-oBMMaWpn3JebWpGbWqHdu3L0uJQ0RgII9zOIQnqtvV0tzzMJg2_VUaVue0flyPyty7z-hnjdojxUoIcryzMy__pLlBUtxHtXwxIXKrijWzdFe66ONwHfzhiOD- -k7uS_tiQkkzbLqKETuIaiptss6HsyDIU3AYG5cPPc2CBIstVmyYfQimQJunxVNRYtz0i6k6i38RemvfPcgw7UtiteL4nSgKt1itwvzglRUntqJy8XIBWMh8oPXTHy5yig4r6HnZMabqrSWqmbaiFtmF2xR2APbqY8XevJV4vCNMmHObX4EdXnUYNFx5TKATLHWfJfMOwU90I6xoVMdGlTX8szM4X_l1Zrryds4snqQOKgobIOldBSTYyumRHHVoCu-CLT6mOdFqJ5SvH3gbCcqzCv5LwtbFzR294YILsOJ4szw5H4JY_2OV7AVyAp3VA7RTn5t3xAXyN_3m00]--></g></svg>