<svg xmlns="http://www.w3.org/2000/svg" xmlns:xlink="http://www.w3.org/1999/xlink" contentStyleType="text/css" data-diagram-type="STATE" height="2646px" preserveAspectRatio="none" style="width:2239px;height:2646px;background:#FFFFFF;" version="1.1" viewBox="0 0 2239 2646" width="2239.5px" zoomAndPan="magnify"><defs/><g><!--cluster S000--><g class="cluster" data-entity="S000" data-source-line="11" data-uid="ent0003" id="cluster_S000"><path d="M413.25,544.3309 L1038.75,544.3309 A18.75,18.75 0 0 1 1057.5,563.0809 L1057.5,600.7215 L394.5,600.7215 L394.5,563.0809 A18.75,18.75 0 0 1 413.25,544.3309" fill="#90EE90"/><rect fill="none" height="1088.01" rx="18.75" ry="18.75" style="stroke:#181818;stroke-width:0.75;" width="663" x="394.5" y="544.3309"/><line style="stroke:#181818;stroke-width:0.75;" x1="394.5" x2="1057.5" y1="600.7215" y2="600.7215"/><text fill="#000000" font-family="'&#24494;&#36719;&#38597;&#40657;'" font-size="42" lengthAdjust="spacing" textLength="210.0009" x="620.9995" y="590.8163">&#24191;&#20041;&#25720;&#29260;&#32452;</text></g><!--cluster S040--><g class="cluster" data-entity="S040" data-source-line="38" data-uid="ent0013" id="cluster_S040"><path d="M1514.25,92.5459 L2201.25,92.5459 A18.75,18.75 0 0 1 2220,111.2959 L2220,148.9365 L1495.5,148.9365 L1495.5,111.2959 A18.75,18.75 0 0 1 1514.25,92.5459" fill="#87CEFA"/><rect fill="none" height="1539.795" rx="18.75" ry="18.75" style="stroke:#181818;stroke-width:0.75;" width="724.5" x="1495.5" y="92.5459"/><line style="stroke:#181818;stroke-width:0.75;" x1="1495.5" x2="2220" y1="148.9365" y2="148.9365"/><text fill="#000000" font-family="'&#24494;&#36719;&#38597;&#40657;'" font-size="42" lengthAdjust="spacing" textLength="210.0009" x="1752.7495" y="139.0313">&#24191;&#20041;&#20999;&#29260;&#32452;</text></g><!--cluster S050--><g class="cluster" data-entity="S050" data-source-line="70" data-uid="ent0025" id="cluster_S050"><path d="M401.25,1907.1259 L830.25,1907.1259 A18.75,18.75 0 0 1 849,1925.8759 L849,1963.5165 L382.5,1963.5165 L382.5,1925.8759 A18.75,18.75 0 0 1 401.25,1907.1259" fill="#20B2AA"/><rect fill="none" height="392.67" rx="18.75" ry="18.75" style="stroke:#181818;stroke-width:0.75;" width="466.5" x="382.5" y="1907.1259"/><line style="stroke:#181818;stroke-width:0.75;" x1="382.5" x2="849" y1="1963.5165" y2="1963.5165"/><text fill="#000000" font-family="'&#24494;&#36719;&#38597;&#40657;'" font-size="42" lengthAdjust="spacing" textLength="126.0005" x="552.7497" y="1953.6113">&#27969;&#23616;&#32452;</text></g><rect fill="#E0FFFF" height="112.7813" rx="18.75" ry="18.75" style="stroke:#181818;stroke-width:0.75;" width="288.082" x="481.455" y="712.3309"/><text fill="#000000" font-family="'&#24494;&#36719;&#38597;&#40657;'" font-size="42" lengthAdjust="spacing" textLength="84.0004" x="583.4958" y="758.8163">&#24320;&#23616;</text><text fill="#000000" font-family="'&#24494;&#36719;&#38597;&#40657;'" font-size="42" lengthAdjust="spacing" textLength="273.082" x="488.955" y="807.7069">roundbegin()</text><rect fill="#90EE90" height="112.7813" rx="18.75" ry="18.75" style="stroke:#181818;stroke-width:0.75;" width="178.4473" x="417.78" y="1268.1709"/><text fill="#000000" font-family="'&#24494;&#36719;&#38597;&#40657;'" font-size="42" lengthAdjust="spacing" textLength="84.0004" x="465.0034" y="1314.6563">&#25720;&#29260;</text><text fill="#000000" font-family="'&#24494;&#36719;&#38597;&#40657;'" font-size="42" lengthAdjust="spacing" textLength="163.4473" x="425.28" y="1363.5469">mopai()</text><rect fill="#FFB6C1" height="112.7813" rx="18.75" ry="18.75" style="stroke:#181818;stroke-width:0.75;" width="299.7726" x="418.62" y="1110.3859"/><text fill="#000000" font-family="'&#24494;&#36719;&#38597;&#40657;'" font-size="42" lengthAdjust="spacing" textLength="284.7726" x="426.12" y="1156.8713">&#30446;&#29577;&#20301;&#32622;(&#21487;&#36873;)</text><text fill="#000000" font-family="'&#24494;&#36719;&#38597;&#40657;'" font-size="42" lengthAdjust="spacing" textLength="230.8154" x="453.0986" y="1205.7619">muyuseats</text><rect fill="#FFA07A" height="112.7813" rx="18.75" ry="18.75" style="stroke:#181818;stroke-width:0.75;" width="355.2861" x="678.855" y="952.6159"/><text fill="#000000" font-family="'&#24494;&#36719;&#38597;&#40657;'" font-size="42" lengthAdjust="spacing" textLength="126.0005" x="793.4978" y="999.1013">&#25442;&#19977;&#24352;</text><text fill="#000000" font-family="'&#24494;&#36719;&#38597;&#40657;'" font-size="42" lengthAdjust="spacing" textLength="340.2861" x="686.355" y="1047.9919">huansanzhang()</text><rect fill="#F1F1F1" height="112.7813" rx="18.75" ry="18.75" style="stroke:#181818;stroke-width:0.75;" width="218.499" x="759.255" y="1268.1709"/><text fill="#000000" font-family="'&#24494;&#36719;&#38597;&#40657;'" font-size="42" lengthAdjust="spacing" textLength="84.0004" x="826.5043" y="1314.6563">&#23450;&#32570;</text><text fill="#000000" font-family="'&#24494;&#36719;&#38597;&#40657;'" font-size="42" lengthAdjust="spacing" textLength="203.499" x="766.755" y="1363.5469">dingque()</text><text fill="#000000" font-family="'&#24494;&#36719;&#38597;&#40657;'" font-size="42" lengthAdjust="spacing" textLength="15.1553" x="617.9224" y="507.4256">-</text><ellipse cx="625.5" cy="544.3309" fill="#F1F1F1" rx="9" ry="9" style="stroke:#181818;stroke-width:2.25;"/><text fill="#000000" font-family="'&#24494;&#36719;&#38597;&#40657;'" font-size="42" lengthAdjust="spacing" textLength="15.1553" x="415.4224" y="507.4256">-</text><ellipse cx="423" cy="544.3309" fill="#F1F1F1" rx="9" ry="9" style="stroke:#181818;stroke-width:2.25;"/><rect fill="#555555" height="12" style="stroke:none;stroke-width:1.5;" width="120" x="645" y="1472.4559"/><text fill="#000000" font-family="'&#24494;&#36719;&#38597;&#40657;'" font-size="42" lengthAdjust="spacing" textLength="35.1914" x="687.4043" y="1680.3263">+</text><ellipse cx="705" cy="1632.3409" fill="#F1F1F1" rx="9" ry="9" style="stroke:#181818;stroke-width:2.25;"/><line style="stroke:#181818;stroke-width:2.25;" x1="711.5836" x2="699.9164" y1="1638.9245" y2="1627.2573"/><line style="stroke:#181818;stroke-width:2.25;" x1="711.5836" x2="699.9164" y1="1627.2573" y2="1638.9245"/><rect fill="#87CEFA" height="112.7813" rx="18.75" ry="18.75" style="stroke:#181818;stroke-width:0.75;" width="176.0068" x="1563.495" y="260.5459"/><text fill="#000000" font-family="'&#24494;&#36719;&#38597;&#40657;'" font-size="42" lengthAdjust="spacing" textLength="84.0004" x="1609.4982" y="307.0313">&#20999;&#29260;</text><text fill="#000000" font-family="'&#24494;&#36719;&#38597;&#40657;'" font-size="42" lengthAdjust="spacing" textLength="161.0068" x="1570.995" y="355.9219">qiepai()</text><rect fill="#FFA07A" height="112.7813" rx="18.75" ry="18.75" style="stroke:#181818;stroke-width:0.75;" width="225.0009" x="1915.5" y="952.6159"/><text fill="#000000" font-family="'&#24494;&#36719;&#38597;&#40657;'" font-size="42" lengthAdjust="spacing" textLength="210.0009" x="1923" y="999.1013">&#24320;&#29260;&#24182;&#25104;&#21151;</text><text fill="#000000" font-family="'&#24494;&#36719;&#38597;&#40657;'" font-size="42" lengthAdjust="spacing" textLength="160.043" x="1947.979" y="1047.9919">unveil()</text><rect fill="#8FBC8F" height="112.7813" rx="18.75" ry="18.75" style="stroke:#181818;stroke-width:0.75;" width="280.8223" x="1581.585" y="952.6159"/><text fill="#000000" font-family="'&#24494;&#36719;&#38597;&#40657;'" font-size="42" lengthAdjust="spacing" textLength="210.0009" x="1616.9957" y="999.1013">&#24320;&#29260;&#21518;&#38145;&#23450;</text><text fill="#000000" font-family="'&#24494;&#36719;&#38597;&#40657;'" font-size="42" lengthAdjust="spacing" textLength="265.8223" x="1589.085" y="1047.9919">unveil_lock()</text><rect fill="#555555" height="12" style="stroke:none;stroke-width:1.5;" width="120" x="1591.5" y="538.3309"/><rect fill="#555555" height="12" style="stroke:none;stroke-width:1.5;" width="120" x="1699.5" y="762.7159"/><rect fill="#555555" height="12" style="stroke:none;stroke-width:1.5;" width="120" x="1900.5" y="1318.5709"/><rect fill="#555555" height="12" style="stroke:none;stroke-width:1.5;" width="120" x="1593" y="1318.5709"/><rect fill="#555555" height="12" style="stroke:none;stroke-width:1.5;" width="120" x="1593" y="1472.4559"/><text fill="#000000" font-family="'&#24494;&#36719;&#38597;&#40657;'" font-size="42" lengthAdjust="spacing" textLength="15.1553" x="1514.9224" y="55.6406">-</text><ellipse cx="1522.5" cy="92.5459" fill="#F1F1F1" rx="9" ry="9" style="stroke:#181818;stroke-width:2.25;"/><text fill="#000000" font-family="'&#24494;&#36719;&#38597;&#40657;'" font-size="42" lengthAdjust="spacing" textLength="35.1914" x="1575.4043" y="1680.3263">+</text><ellipse cx="1593" cy="1632.3409" fill="#F1F1F1" rx="9" ry="9" style="stroke:#181818;stroke-width:2.25;"/><line style="stroke:#181818;stroke-width:2.25;" x1="1599.5836" x2="1587.9164" y1="1638.9245" y2="1627.2573"/><line style="stroke:#181818;stroke-width:2.25;" x1="1599.5836" x2="1587.9164" y1="1627.2573" y2="1638.9245"/><text fill="#000000" font-family="'&#24494;&#36719;&#38597;&#40657;'" font-size="42" lengthAdjust="spacing" textLength="35.1914" x="1504.9043" y="1680.3263">+</text><ellipse cx="1522.5" cy="1632.3409" fill="#F1F1F1" rx="9" ry="9" style="stroke:#181818;stroke-width:2.25;"/><line style="stroke:#181818;stroke-width:2.25;" x1="1529.0836" x2="1517.4164" y1="1638.9245" y2="1627.2573"/><line style="stroke:#181818;stroke-width:2.25;" x1="1529.0836" x2="1517.4164" y1="1627.2573" y2="1638.9245"/><rect fill="#ADD8E6" height="112.7813" rx="18.75" ry="18.75" style="stroke:#181818;stroke-width:0.75;" width="183.0007" x="406.5" y="2086.5109"/><text fill="#000000" font-family="'&#24494;&#36719;&#38597;&#40657;'" font-size="42" lengthAdjust="spacing" textLength="168.0007" x="414" y="2132.9963">&#36884;&#20013;&#27969;&#23616;</text><text fill="#000000" font-family="'&#24494;&#36719;&#38597;&#40657;'" font-size="42" lengthAdjust="spacing" textLength="114.0439" x="440.9784" y="2181.8869">.LiuJu</text><rect fill="#ADD8E6" height="112.7813" rx="18.75" ry="18.75" style="stroke:#181818;stroke-width:0.75;" width="183.0007" x="642" y="2086.5109"/><text fill="#000000" font-family="'&#24494;&#36719;&#38597;&#40657;'" font-size="42" lengthAdjust="spacing" textLength="168.0007" x="649.5" y="2132.9963">&#33618;&#29260;&#27969;&#23616;</text><text fill="#000000" font-family="'&#24494;&#36719;&#38597;&#40657;'" font-size="42" lengthAdjust="spacing" textLength="145.2979" x="660.8514" y="2181.8869">.NoTile</text><text fill="#000000" font-family="'&#24494;&#36719;&#38597;&#40657;'" font-size="42" lengthAdjust="spacing" textLength="15.1553" x="725.9224" y="1870.2206">-</text><ellipse cx="733.5" cy="1907.1259" fill="#F1F1F1" rx="9" ry="9" style="stroke:#181818;stroke-width:2.25;"/><text fill="#000000" font-family="'&#24494;&#36719;&#38597;&#40657;'" font-size="42" lengthAdjust="spacing" textLength="15.1553" x="563.9224" y="1870.2206">-</text><ellipse cx="571.5" cy="1907.1259" fill="#F1F1F1" rx="9" ry="9" style="stroke:#181818;stroke-width:2.25;"/><text fill="#000000" font-family="'&#24494;&#36719;&#38597;&#40657;'" font-size="42" lengthAdjust="spacing" textLength="35.1914" x="540.4043" y="2347.7813">+</text><ellipse cx="558" cy="2299.7959" fill="#F1F1F1" rx="9" ry="9" style="stroke:#181818;stroke-width:2.25;"/><line style="stroke:#181818;stroke-width:2.25;" x1="564.5836" x2="552.9164" y1="2306.3795" y2="2294.7123"/><line style="stroke:#181818;stroke-width:2.25;" x1="564.5836" x2="552.9164" y1="2294.7123" y2="2306.3795"/><rect fill="#E0FFFF" height="112.7813" rx="18.75" ry="18.75" style="stroke:#181818;stroke-width:0.75;" width="225.0009" x="445.5" y="2400.2959"/><text fill="#000000" font-family="'&#24494;&#36719;&#38597;&#40657;'" font-size="42" lengthAdjust="spacing" textLength="210.0009" x="453" y="2446.7813">&#26412;&#23567;&#23616;&#32467;&#26463;</text><text fill="#000000" font-family="'&#24494;&#36719;&#38597;&#40657;'" font-size="42" lengthAdjust="spacing" textLength="168.0007" x="474.0001" y="2495.6719">&#24320;&#22987;&#32467;&#31639;</text><rect fill="#FFFF00" height="112.7813" rx="18.75" ry="18.75" style="stroke:#181818;stroke-width:0.75;" width="217.6992" x="323.145" y="260.5459"/><text fill="#000000" font-family="'&#24494;&#36719;&#38597;&#40657;'" font-size="42" lengthAdjust="spacing" textLength="196.3015" x="333.8439" y="307.0313">&#21507;/&#30896;/&#26126;&#26464;</text><text fill="#000000" font-family="'&#24494;&#36719;&#38597;&#40657;'" font-size="42" lengthAdjust="spacing" textLength="202.6992" x="330.645" y="355.9219">mingpai()</text><rect fill="#FFFF00" height="112.7813" rx="18.75" ry="18.75" style="stroke:#181818;stroke-width:0.75;" width="295.3019" x="87.855" y="1575.9559"/><text fill="#000000" font-family="'&#24494;&#36719;&#38597;&#40657;'" font-size="42" lengthAdjust="spacing" textLength="280.3019" x="95.355" y="1622.4413">&#26263;&#26464;/&#21152;&#26464;/&#25300;&#21271;</text><text fill="#000000" font-family="'&#24494;&#36719;&#38597;&#40657;'" font-size="42" lengthAdjust="spacing" textLength="251.877" x="109.5675" y="1671.3319">leimingpai()</text><rect fill="#F08080" height="112.7813" rx="18.75" ry="18.75" style="stroke:#181818;stroke-width:0.75;" width="165.0762" x="860.955" y="1850.7409"/><text fill="#000000" font-family="'&#24494;&#36719;&#38597;&#40657;'" font-size="42" lengthAdjust="spacing" textLength="84.0004" x="901.4929" y="1897.2263">&#21644;&#29260;</text><text fill="#000000" font-family="'&#24494;&#36719;&#38597;&#40657;'" font-size="42" lengthAdjust="spacing" textLength="150.0762" x="868.455" y="1946.1169">hupai()</text><rect fill="#BDB76B" height="112.7813" rx="18.75" ry="18.75" style="stroke:#181818;stroke-width:0.75;" width="249.7529" x="110.625" y="1850.7409"/><text fill="#000000" font-family="'&#24494;&#36719;&#38597;&#40657;'" font-size="42" lengthAdjust="spacing" textLength="168.0007" x="151.5011" y="1897.2263">&#24320;&#26464;&#20987;&#39134;</text><text fill="#000000" font-family="'&#24494;&#36719;&#38597;&#40657;'" font-size="42" lengthAdjust="spacing" textLength="234.7529" x="118.125" y="1946.1169">roundend()</text><ellipse cx="625.5" cy="316.9459" fill="#222222" rx="15" ry="15" style="stroke:#222222;stroke-width:1.5;"/><ellipse cx="558" cy="2621.0809" fill="none" rx="16.5" ry="16.5" style="stroke:#222222;stroke-width:1.5;"/><ellipse cx="558" cy="2621.0809" fill="#222222" rx="9" ry="9" style="stroke:#222222;stroke-width:1.5;"/><!--link S1 to S9--><g class="link" data-entity-1="S1" data-entity-2="S9" data-source-line="18" data-uid="lnk2" id="link_S1_S9"><path d="M526.44,825.8059 C511.935,838.4209 499.035,853.1959 490.5,870.1159 C469.44,911.8759 511.0891,1028.0323 541.1041,1101.3223" fill="none" id="S1-to-S9" style="stroke:#181818;stroke-width:3;"/><polygon fill="#181818" points="544.515,1109.6509,544.9511,1094.884,541.6726,1102.7104,533.8463,1099.4319,544.515,1109.6509" style="stroke:#181818;stroke-width:3;"/><text fill="#000000" font-family="'&#24494;&#36719;&#38597;&#40657;'" font-size="30" lengthAdjust="spacing" textLength="119.9999" x="492" y="899.4626">&#40857;&#20043;&#30446;&#29577;</text></g><!--link S1 to S10--><g class="link" data-entity-1="S1" data-entity-2="S10" data-source-line="19" data-uid="lnk3" id="link_S1_S10"><path d="M679.665,825.8509 C716.73,863.9359 759.3969,907.7673 796.4019,945.7773" fill="none" id="S1-to-S10" style="stroke:#181818;stroke-width:3;"/><polygon fill="#181818" points="802.68,952.2259,797.5619,938.3675,797.4482,946.852,788.9637,946.7384,802.68,952.2259" style="stroke:#181818;stroke-width:3;"/><text fill="#000000" font-family="'&#24494;&#36719;&#38597;&#40657;'" font-size="30" lengthAdjust="spacing" textLength="130.1073" x="756" y="899.4626">&#20462;&#32599;/&#24029;&#40635;</text></g><!--link S10 to S11--><g class="link" data-entity-1="S10" data-entity-2="S11" data-source-line="20" data-uid="lnk4" id="link_S10_S11"><path d="M858.615,1065.6559 C860.805,1122.6259 863.8492,1201.9825 866.0392,1258.9375" fill="none" id="S10-to-S11" style="stroke:#181818;stroke-width:3;"/><polygon fill="#181818" points="866.385,1267.9309,871.8619,1254.2103,866.0968,1260.4364,859.8707,1254.6714,866.385,1267.9309" style="stroke:#181818;stroke-width:3;"/><text fill="#000000" font-family="'&#24494;&#36719;&#38597;&#40657;'" font-size="30" lengthAdjust="spacing" textLength="60" x="865.5" y="1177.3826">&#24029;&#40635;</text></g><!--link S003 to S1--><g class="link" data-entity-1="S003" data-entity-2="S1" data-source-line="23" data-uid="lnk5" id="link_S003_S1"><path d="M625.5,553.7059 C625.5,578.5909 625.5,648.0559 625.5,702.5959" fill="none" id="S003-to-S1" style="stroke:#181818;stroke-width:3;"/><polygon fill="#181818" points="625.5,711.5959,631.5,698.0959,625.5,704.0959,619.5,698.0959,625.5,711.5959" style="stroke:#181818;stroke-width:3;"/></g><!--link S001 to S3--><g class="link" data-entity-1="S001" data-entity-2="S3" data-source-line="26" data-uid="lnk6" id="link_S001_S3"><path d="M422.13,553.8859 C414.93,621.3559 366.93,1092.8059 417,1223.1709 C423.195,1239.2959 427.5228,1247.5617 438.8028,1260.9567" fill="none" id="S001-to-S3" style="stroke:#181818;stroke-width:3;"/><polygon fill="#181818" points="444.6,1267.8409,440.4936,1253.6498,439.769,1262.1041,431.3147,1261.3794,444.6,1267.8409" style="stroke:#181818;stroke-width:3;"/></g><!--link S1 to S009--><g class="link" data-entity-1="S1" data-entity-2="S009" data-source-line="29" data-uid="lnk7" id="link_S1_S009"><path d="M624.975,825.4009 C625.185,899.4259 629.13,1026.1459 652.5,1065.3859 C670.95,1096.3759 702.99,1078.6009 720,1110.3859 C743.655,1154.5909 721.485,1173.0709 720,1223.1709 C717.03,1323.7609 708.1637,1437.5046 706.1087,1463.1546" fill="none" id="S1-to-S009" style="stroke:#181818;stroke-width:3;"/><polygon fill="#181818" points="705.39,1472.1259,712.449,1459.1482,705.989,1464.6499,700.4873,1458.1899,705.39,1472.1259" style="stroke:#181818;stroke-width:3;"/></g><!--link S3 to S009--><g class="link" data-entity-1="S3" data-entity-2="S009" data-source-line="30" data-uid="lnk8" id="link_S3_S009"><path d="M576.195,1381.3459 C595.425,1396.4659 616.41,1412.7409 636,1427.4559 C658.155,1444.1059 677.6149,1457.8327 690.2899,1466.6977" fill="none" id="S3-to-S009" style="stroke:#181818;stroke-width:3;"/><polygon fill="#181818" points="697.665,1471.8559,690.0411,1459.2018,691.5191,1467.5574,683.1635,1469.0353,697.665,1471.8559" style="stroke:#181818;stroke-width:3;"/></g><!--link S9 to S009--><g class="link" data-entity-1="S9" data-entity-2="S009" data-source-line="31" data-uid="lnk9" id="link_S9_S009"><path d="M599.97,1223.6809 C607.68,1238.0059 615.675,1253.5159 622.5,1268.1709 C659.7,1348.0159 692.5731,1441.092 700.4481,1463.817" fill="none" id="S9-to-S009" style="stroke:#181818;stroke-width:3;"/><polygon fill="#181818" points="703.395,1472.3209,704.6439,1457.6005,700.9393,1465.2343,693.3054,1461.5297,703.395,1472.3209" style="stroke:#181818;stroke-width:3;"/></g><!--link S10 to S009--><g class="link" data-entity-1="S10" data-entity-2="S009" data-source-line="32" data-uid="lnk10" id="link_S10_S009"><path d="M909.9,1065.6409 C977.19,1141.9909 1075.845,1281.7009 1003.5,1380.9559 C949.155,1455.5209 844.9083,1472.9727 774.5883,1476.5577" fill="none" id="S10-to-S009" style="stroke:#181818;stroke-width:3;"/><polygon fill="#181818" points="765.6,1477.0159,779.388,1482.3208,773.0903,1476.634,778.777,1470.3363,765.6,1477.0159" style="stroke:#181818;stroke-width:3;"/></g><!--link S11 to S009--><g class="link" data-entity-1="S11" data-entity-2="S009" data-source-line="33" data-uid="lnk11" id="link_S11_S009"><path d="M808.545,1381.3909 C770.64,1416.3859 732.5862,1451.5046 717.1662,1465.7246" fill="none" id="S11-to-S009" style="stroke:#181818;stroke-width:3;"/><polygon fill="#181818" points="710.55,1471.8259,724.5418,1467.0847,716.0635,1466.7415,716.4067,1458.2631,710.55,1471.8259" style="stroke:#181818;stroke-width:3;"/></g><!--link S009 to S002--><g class="link" data-entity-1="S009" data-entity-2="S002" data-source-line="36" data-uid="lnk12" id="link_S009_S002"><path d="M705,1484.9809 C705,1507.0609 705,1586.7259 705,1613.8909" fill="none" id="S009-to-S002" style="stroke:#181818;stroke-width:3;"/><polygon fill="#181818" points="705,1622.8909,711,1609.3909,705,1615.3909,699,1609.3909,705,1622.8909" style="stroke:#181818;stroke-width:3;"/></g><!--link S2 to S049--><g class="link" data-entity-1="S2" data-entity-2="S049" data-source-line="44" data-uid="lnk13" id="link_S2_S049"><path d="M1651.5,373.9009 C1651.5,431.5309 1651.5,507.2509 1651.5,528.7309" fill="none" id="S2-to-S049" style="stroke:#181818;stroke-width:3;"/><polygon fill="#181818" points="1651.5,537.7309,1657.5,524.2309,1651.5,530.2309,1645.5,524.2309,1651.5,537.7309" style="stroke:#181818;stroke-width:3;"/><text fill="#000000" font-family="'&#24494;&#36719;&#38597;&#40657;'" font-size="30" lengthAdjust="spacing" textLength="179.9999" x="1653" y="464.9276">&#26263;&#22812;&#20043;&#25112;&#26263;&#29260;</text></g><!--link S049 to S048--><g class="link" data-entity-1="S049" data-entity-2="S048" data-source-line="46" data-uid="lnk14" id="link_S049_S048"><path d="M1653.96,550.8709 C1668.465,580.6009 1738.7861,724.7461 1753.1411,754.1911" fill="none" id="S049-to-S048" style="stroke:#181818;stroke-width:3;"/><polygon fill="#181818" points="1757.085,762.2809,1756.5623,747.5169,1753.7984,755.5394,1745.7759,752.7755,1757.085,762.2809" style="stroke:#181818;stroke-width:3;"/><text fill="#000000" font-family="'&#24494;&#36719;&#38597;&#40657;'" font-size="30" lengthAdjust="spacing" textLength="119.9999" x="1693.5" y="627.6776">&#26377;&#20154;&#24320;&#29260;</text></g><!--link S048 to S13--><g class="link" data-entity-1="S048" data-entity-2="S13" data-source-line="47" data-uid="lnk15" id="link_S048_S13"><path d="M1765.11,775.1809 C1790.415,797.5459 1888.9704,884.6468 1958.3904,945.9818" fill="none" id="S048-to-S13" style="stroke:#181818;stroke-width:3;"/><polygon fill="#181818" points="1965.135,951.9409,1958.9908,938.5059,1959.5145,946.975,1951.0454,947.4987,1965.135,951.9409" style="stroke:#181818;stroke-width:3;"/><text fill="#000000" font-family="'&#24494;&#36719;&#38597;&#40657;'" font-size="30" lengthAdjust="spacing" textLength="60" x="1911" y="899.4626">&#25104;&#21151;</text></g><!--link S048 to S14--><g class="link" data-entity-1="S048" data-entity-2="S14" data-source-line="48" data-uid="lnk16" id="link_S048_S14"><path d="M1758.72,775.1809 C1755.18,797.5459 1741.8866,881.7165 1732.1816,943.0515" fill="none" id="S048-to-S14" style="stroke:#181818;stroke-width:3;"/><polygon fill="#181818" points="1730.775,951.9409,1738.8111,939.5445,1731.9471,944.5331,1726.9586,937.6691,1730.775,951.9409" style="stroke:#181818;stroke-width:3;"/><text fill="#000000" font-family="'&#24494;&#36719;&#38597;&#40657;'" font-size="30" lengthAdjust="spacing" textLength="60" x="1743" y="899.4626">&#38145;&#23450;</text></g><!--link S2 to S047--><g class="link" data-entity-1="S2" data-entity-2="S047" data-source-line="50" data-uid="lnk17" id="link_S2_S047"><path d="M1739.955,335.9059 C1893.81,368.8609 2194.5,445.6759 2194.5,542.8309 C2194.5,542.8309 2194.5,542.8309 2194.5,1010.5009 C2194.5,1164.3709 2018.0849,1286.2608 1976.3999,1313.0058" fill="none" id="S2-to-S047" style="stroke:#181818;stroke-width:3;"/><polygon fill="#181818" points="1968.825,1317.8659,1983.4275,1315.6258,1975.1375,1313.8158,1976.9474,1305.5258,1968.825,1317.8659" style="stroke:#181818;stroke-width:3;"/></g><!--link S13 to S047--><g class="link" data-entity-1="S13" data-entity-2="S047" data-source-line="51" data-uid="lnk18" id="link_S13_S047"><path d="M2016.09,1065.6559 C1998.675,1146.2809 1969.586,1281.019 1963.466,1309.339" fill="none" id="S13-to-S047" style="stroke:#181818;stroke-width:3;"/><polygon fill="#181818" points="1961.565,1318.1359,1970.2812,1306.2079,1963.1492,1310.8051,1958.5519,1303.6731,1961.565,1318.1359" style="stroke:#181818;stroke-width:3;"/></g><!--link S14 to S046--><g class="link" data-entity-1="S14" data-entity-2="S046" data-source-line="53" data-uid="lnk19" id="link_S14_S046"><path d="M1709.82,1065.6559 C1692.03,1146.2809 1662.2716,1281.0267 1656.0316,1309.3467" fill="none" id="S14-to-S046" style="stroke:#181818;stroke-width:3;"/><polygon fill="#181818" points="1654.095,1318.1359,1662.8593,1306.2432,1655.7088,1310.8116,1651.1404,1303.6611,1654.095,1318.1359" style="stroke:#181818;stroke-width:3;"/></g><!--link S049 to S046--><g class="link" data-entity-1="S049" data-entity-2="S046" data-source-line="54" data-uid="lnk20" id="link_S049_S046"><path d="M1649.115,550.9459 C1630.995,590.5609 1516.56,852.4459 1555.5,1065.3859 C1575.12,1172.6659 1632.9068,1285.3033 1646.2418,1310.3983" fill="none" id="S049-to-S046" style="stroke:#181818;stroke-width:3;"/><polygon fill="#181818" points="1650.465,1318.3459,1649.4286,1303.609,1646.9457,1311.7229,1638.8318,1309.24,1650.465,1318.3459" style="stroke:#181818;stroke-width:3;"/><text fill="#000000" font-family="'&#24494;&#36719;&#38597;&#40657;'" font-size="30" lengthAdjust="spacing" textLength="119.9999" x="1555.5" y="899.4626">&#26080;&#20154;&#24320;&#29260;</text></g><!--link S047 to S045--><g class="link" data-entity-1="S047" data-entity-2="S045" data-source-line="56" data-uid="lnk21" id="link_S047_S045"><path d="M1950.27,1331.0809 C1903.575,1354.0009 1719.0848,1444.5364 1671.6698,1467.8014" fill="none" id="S047-to-S045" style="stroke:#181818;stroke-width:3;"/><polygon fill="#181818" points="1663.59,1471.7659,1678.3527,1471.2057,1670.3232,1468.4622,1673.0667,1460.4326,1663.59,1471.7659" style="stroke:#181818;stroke-width:3;"/></g><!--link S046 to S045--><g class="link" data-entity-1="S046" data-entity-2="S045" data-source-line="57" data-uid="lnk22" id="link_S046_S045"><path d="M1653,1331.0809 C1653,1354.0009 1653,1439.5009 1653,1462.7659" fill="none" id="S046-to-S045" style="stroke:#181818;stroke-width:3;"/><polygon fill="#181818" points="1653,1471.7659,1659,1458.2659,1653,1464.2659,1647,1458.2659,1653,1471.7659" style="stroke:#181818;stroke-width:3;"/></g><!--link S041 to S2--><g class="link" data-entity-1="S041" data-entity-2="S2" data-source-line="60" data-uid="lnk23" id="link_S041_S2"><path d="M1527.09,101.9359 C1541.595,126.8059 1582.7684,197.495 1614.5534,252.035" fill="none" id="S041-to-S2" style="stroke:#181818;stroke-width:3;"/><polygon fill="#181818" points="1619.085,259.8109,1617.4714,245.126,1615.3086,253.331,1607.1036,251.1682,1619.085,259.8109" style="stroke:#181818;stroke-width:3;"/></g><!--link S047 to S042--><g class="link" data-entity-1="S047" data-entity-2="S042" data-source-line="64" data-uid="lnk24" id="link_S047_S042"><path d="M1954.725,1330.8559 C1912.725,1365.6859 1661.143,1574.3361 1609.063,1617.5211" fill="none" id="S047-to-S042" style="stroke:#181818;stroke-width:3;"/><polygon fill="#181818" points="1602.135,1623.2659,1616.3569,1619.2674,1607.9084,1618.4786,1608.6972,1610.0301,1602.135,1623.2659" style="stroke:#181818;stroke-width:3;"/></g><!--link S045 to S043--><g class="link" data-entity-1="S045" data-entity-2="S043" data-source-line="68" data-uid="lnk25" id="link_S045_S043"><path d="M1646.91,1485.1609 C1630.995,1498.9609 1587.27,1537.9909 1557,1575.9559 C1544.655,1591.4359 1537.3081,1603.6954 1531.2181,1614.7654" fill="none" id="S045-to-S043" style="stroke:#181818;stroke-width:3;"/><polygon fill="#181818" points="1526.88,1622.6509,1538.6441,1613.7147,1530.4951,1616.0797,1528.1301,1607.9306,1526.88,1622.6509" style="stroke:#181818;stroke-width:3;"/></g><!--link S051 to S7--><g class="link" data-entity-1="S051" data-entity-2="S7" data-source-line="76" data-uid="lnk26" id="link_S051_S7"><path d="M724.785,1916.7859 C705.045,1935.2959 655.515,1981.9909 615,2022.0109 C593.94,2042.8309 577.3826,2059.5665 557.5076,2079.9215" fill="none" id="S051-to-S7" style="stroke:#181818;stroke-width:3;"/><polygon fill="#181818" points="551.22,2086.3609,564.9443,2080.8935,556.4597,2080.9947,556.3584,2072.51,551.22,2086.3609" style="stroke:#181818;stroke-width:3;"/></g><!--link S051 to S8--><g class="link" data-entity-1="S051" data-entity-2="S8" data-source-line="77" data-uid="lnk27" id="link_S051_S8"><path d="M733.5,1916.3659 C733.5,1942.4059 733.5,2019.3709 733.5,2077.1809" fill="none" id="S051-to-S8" style="stroke:#181818;stroke-width:3;"/><polygon fill="#181818" points="733.5,2086.1809,739.5,2072.6809,733.5,2078.6809,727.5,2072.6809,733.5,2086.1809" style="stroke:#181818;stroke-width:3;"/></g><!--link S052 to S7--><g class="link" data-entity-1="S052" data-entity-2="S7" data-source-line="81" data-uid="lnk28" id="link_S052_S7"><path d="M569.055,1916.3659 C560.835,1942.4059 536.4121,2019.7893 518.1421,2077.5993" fill="none" id="S052-to-S7" style="stroke:#181818;stroke-width:3;"/><polygon fill="#181818" points="515.43,2086.1809,525.2192,2075.1165,517.6901,2079.0295,513.7771,2071.5004,515.43,2086.1809" style="stroke:#181818;stroke-width:3;"/></g><!--link S7 to S053--><g class="link" data-entity-1="S7" data-entity-2="S053" data-source-line="84" data-uid="lnk29" id="link_S7_S053"><path d="M519.66,2199.9709 C532.815,2233.7209 545.0465,2265.0384 551.5715,2281.8084" fill="none" id="S7-to-S053" style="stroke:#181818;stroke-width:3;"/><polygon fill="#181818" points="554.835,2290.1959,555.5315,2275.439,552.1154,2283.2063,544.3482,2279.7903,554.835,2290.1959" style="stroke:#181818;stroke-width:3;"/></g><!--link S8 to S053--><g class="link" data-entity-1="S8" data-entity-2="S053" data-source-line="85" data-uid="lnk30" id="link_S8_S053"><path d="M670.14,2199.9709 C631.65,2233.7209 593.1296,2267.4896 574.0196,2284.2596" fill="none" id="S8-to-S053" style="stroke:#181818;stroke-width:3;"/><polygon fill="#181818" points="567.255,2290.1959,581.3595,2285.8012,572.8922,2285.249,573.4444,2276.7817,567.255,2290.1959" style="stroke:#181818;stroke-width:3;"/></g><!--link *start* to S003--><g class="link" data-entity-1=".start." data-entity-2="S003" data-source-line="93" data-uid="lnk32" id="link_.start._S003"><path d="M625.5,332.4709 C625.5,375.0709 625.5,492.9859 625.5,525.9409" fill="none" id="*start*-to-S003" style="stroke:#181818;stroke-width:1.5;stroke-dasharray:10.5,10.5;"/><polygon fill="#181818" points="625.5,534.9409,631.5,521.4409,625.5,527.4409,619.5,521.4409,625.5,534.9409" style="stroke:#181818;stroke-width:1.5;"/></g><!--link S043 to S001--><g class="link" data-entity-1="S043" data-entity-2="S001" data-source-line="96" data-uid="lnk33" id="link_S043_S001"><path d="M1512.78,1629.4909 C1450.77,1620.5809 1113,1568.0359 1113,1479.9559 C1113,767.2159 1113,767.2159 1113,767.2159 C1113,708.7009 1104.165,683.1259 1057.5,647.8309 C952.725,568.5859 512.7688,549.1511 441.5338,546.4961" fill="none" id="S043-to-S001" style="stroke:#008000;stroke-width:3;"/><polygon fill="#008000" points="432.54,546.1609,445.8072,552.6595,440.0348,546.4402,446.2541,540.6679,432.54,546.1609" style="stroke:#008000;stroke-width:3;"/></g><!--link S002 to S041--><g class="link" data-entity-1="S002" data-entity-2="S041" data-source-line="97" data-uid="lnk34" id="link_S002_S041"><path d="M714.615,1630.9159 C784.65,1630.8859 1219.17,1620.8659 1404,1380.9559 C1537.56,1207.6009 1446,1109.2009 1446,890.3659 C1446,315.4459 1446,315.4459 1446,315.4459 C1446,227.6059 1495.8201,138.0846 1512.8301,109.8546" fill="none" id="S002-to-S041" style="stroke:#008000;stroke-width:3;"/><polygon fill="#008000" points="1517.475,102.1459,1505.3685,110.6124,1513.6042,108.5699,1515.6468,116.8056,1517.475,102.1459" style="stroke:#008000;stroke-width:3;"/></g><!--link S002 to S5--><g class="link" data-entity-1="S002" data-entity-2="S5" data-source-line="100" data-uid="lnk35" id="link_S002_S5"><path d="M695.265,1632.3409 C655.56,1632.3409 511.215,1632.3409 392.415,1632.3409" fill="none" id="S002-to-S5" style="stroke:#181818;stroke-width:3;"/><polygon fill="#181818" points="383.415,1632.3409,396.915,1638.3409,390.915,1632.3409,396.915,1626.3409,383.415,1632.3409" style="stroke:#181818;stroke-width:3;"/><text fill="#000000" font-family="'&#24494;&#36719;&#38597;&#40657;'" font-size="30" lengthAdjust="spacing" textLength="119.9999" x="480.33" y="1619.6876">&#33258;&#23478;&#40483;&#29260;</text></g><!--link S042 to S4--><g class="link" data-entity-1="S042" data-entity-2="S4" data-source-line="102" data-uid="lnk36" id="link_S042_S4"><path d="M1588.365,1622.8459 C1581.975,1611.9859 1569.975,1592.0959 1558.5,1575.9559 C1494.195,1485.4909 1459.41,1476.2509 1402.5,1380.9559 C1310.76,1227.3559 1245,1189.4059 1245,1010.5009 C1245,542.8309 1245,542.8309 1245,542.8309 C1245,239.3359 873.51,462.7909 583.5,373.3309 C569.73,369.0859 563.8792,367.2767 549.7192,362.3717" fill="none" id="S042-to-S4" style="stroke:#181818;stroke-width:3;"/><polygon fill="#181818" points="541.215,359.4259,552.0074,369.5142,548.3019,361.8808,555.9352,358.1752,541.215,359.4259" style="stroke:#181818;stroke-width:3;"/><text fill="#000000" font-family="'&#24494;&#36719;&#38597;&#40657;'" font-size="30" lengthAdjust="spacing" textLength="119.9999" x="1246.5" y="1019.5976">&#20182;&#23478;&#40483;&#29260;</text></g><!--link S4 to S041--><g class="link" data-entity-1="S4" data-entity-2="S041" data-source-line="103" data-uid="lnk37" id="link_S4_S041"><path d="M486.81,259.9309 C513.66,236.1859 547.845,210.6109 583.5,196.0459 C764.91,121.9459 1417.0251,97.6049 1504.0251,94.6649" fill="none" id="S4-to-S041" style="stroke:#181818;stroke-width:3;"/><polygon fill="#181818" points="1513.02,94.3609,1499.3251,88.8203,1505.5243,94.6142,1499.7303,100.8134,1513.02,94.3609" style="stroke:#181818;stroke-width:3;"/><text fill="#000000" font-family="'&#24494;&#36719;&#38597;&#40657;'" font-size="30" lengthAdjust="spacing" textLength="100.1074" x="801" y="175.8926">&#21507;/&#30896;&#21518;</text></g><!--link S4 to S001--><g class="link" data-entity-1="S4" data-entity-2="S001" data-source-line="104" data-uid="lnk38" id="link_S4_S001"><path d="M429.78,373.9009 C427.545,429.4609 424.6667,501.1832 423.6617,526.1732" fill="none" id="S4-to-S001" style="stroke:#181818;stroke-width:3;"/><polygon fill="#181818" points="423.3,535.1659,429.8376,521.9179,423.6014,527.672,417.8473,521.4357,423.3,535.1659" style="stroke:#181818;stroke-width:3;"/><text fill="#000000" font-family="'&#24494;&#36719;&#38597;&#40657;'" font-size="30" lengthAdjust="spacing" textLength="89.9999" x="444" y="447.6776">&#26126;&#26464;&#21518;</text><text fill="#000000" font-family="'&#24494;&#36719;&#38597;&#40657;'" font-size="30" lengthAdjust="spacing" textLength="119.9999" x="429" y="482.5995">&#23725;&#19978;&#25720;&#29260;</text></g><!--link S5 to S001--><g class="link" data-entity-1="S5" data-entity-2="S001" data-source-line="106" data-uid="lnk39" id="link_S5_S001"><path d="M245.235,1575.8509 C249.48,1547.3359 253.5,1511.8759 253.5,1479.9559 C253.5,767.2159 253.5,767.2159 253.5,767.2159 C253.5,661.2109 369.9586,579.3902 405.8086,556.5602" fill="none" id="S5-to-S001" style="stroke:#181818;stroke-width:3;"/><polygon fill="#181818" points="413.4,551.7259,398.79,553.9165,407.0738,555.7545,405.2358,564.0383,413.4,551.7259" style="stroke:#181818;stroke-width:3;"/><text fill="#000000" font-family="'&#24494;&#36719;&#38597;&#40657;'" font-size="30" lengthAdjust="spacing" textLength="119.9999" x="255" y="1177.3826">&#23725;&#19978;&#25720;&#29260;</text></g><!--link S042 to S6--><g class="link" data-entity-1="S042" data-entity-2="S6" data-source-line="109" data-uid="lnk40" id="link_S042_S6"><path d="M1590.03,1641.7459 C1585.185,1653.5959 1574.505,1675.9459 1558.5,1688.7409 C1397.115,1817.7559 1162.1525,1871.5661 1035.4475,1892.6861" fill="none" id="S042-to-S6" style="stroke:#FF0000;stroke-width:3;"/><polygon fill="#FF0000" points="1026.57,1894.1659,1040.8728,1897.8646,1033.9679,1892.9328,1038.8998,1886.0279,1026.57,1894.1659" style="stroke:#FF0000;stroke-width:3;"/></g><!--link S002 to S6--><g class="link" data-entity-1="S002" data-entity-2="S6" data-source-line="110" data-uid="lnk41" id="link_S002_S6"><path d="M711.885,1641.6859 C738.39,1671.8809 829.4139,1775.6211 889.1589,1843.7061" fill="none" id="S002-to-S6" style="stroke:#FF0000;stroke-width:3;"/><polygon fill="#FF0000" points="895.095,1850.4709,890.7006,1836.3663,890.1482,1844.8336,881.6809,1844.2812,895.095,1850.4709" style="stroke:#FF0000;stroke-width:3;"/></g><!--link S5 to S6--><g class="link" data-entity-1="S5" data-entity-2="S6" data-source-line="111" data-uid="lnk42" id="link_S5_S6"><path d="M383.685,1687.0309 C385.29,1687.6009 386.91,1688.1709 388.5,1688.7409 C595.47,1761.7909 656.865,1756.3159 855,1850.7409 C856.8,1851.5959 850.5369,1848.4827 852.3519,1849.3827" fill="none" id="S5-to-S6" style="stroke:#FF0000;stroke-width:3;"/><polygon fill="#FF0000" points="860.415,1853.3809,850.9858,1842.0081,853.6957,1850.049,845.6548,1852.7589,860.415,1853.3809" style="stroke:#FF0000;stroke-width:3;"/></g><!--link S043 to S051--><g class="link" data-entity-1="S043" data-entity-2="S051" data-source-line="114" data-uid="lnk43" id="link_S043_S051"><path d="M1512.93,1636.1059 C1451.115,1650.8809 1102.08,1736.5909 834,1850.7409 C799.245,1865.5309 768.3683,1883.8491 750.8033,1894.7691" fill="none" id="S043-to-S051" style="stroke:#0000FF;stroke-width:3;"/><polygon fill="#0000FF" points="743.16,1899.5209,757.7929,1897.4888,749.5294,1895.5611,751.4571,1887.2977,743.16,1899.5209" style="stroke:#0000FF;stroke-width:3;"/></g><!--link S002 to S052--><g class="link" data-entity-1="S002" data-entity-2="S052" data-source-line="115" data-uid="lnk44" id="link_S002_S052"><path d="M701.145,1641.6859 C681.735,1681.1959 598.7773,1850.0875 579.3373,1889.6725" fill="none" id="S002-to-S052" style="stroke:#0000FF;stroke-width:3;"/><polygon fill="#0000FF" points="575.37,1897.7509,586.7065,1888.2781,578.6761,1891.0189,575.9353,1882.9884,575.37,1897.7509" style="stroke:#0000FF;stroke-width:3;"/></g><!--link S4 to S12--><g class="link" data-entity-1="S4" data-entity-2="S12" data-source-line="117" data-uid="lnk45" id="link_S4_S12"><path d="M322.515,329.2909 C197.19,348.4609 9,400.8859 9,542.8309 C9,542.8309 9,542.8309 9,1633.8409 C9,1725.0559 78.0391,1796.4689 142.0441,1844.9189" fill="none" id="S4-to-S12" style="stroke:#008B8B;stroke-width:3;"/><polygon fill="#008B8B" points="149.22,1850.3509,142.0774,1837.419,143.2401,1845.8243,134.8348,1846.9869,149.22,1850.3509" style="stroke:#008B8B;stroke-width:3;"/><text fill="#000000" font-family="'&#24494;&#36719;&#38597;&#40657;'" font-size="30" lengthAdjust="spacing" textLength="119.9999" x="10.5" y="1160.1326">&#24029;&#40635;&#21038;&#39118;</text><text fill="#000000" font-family="'&#24494;&#36719;&#38597;&#40657;'" font-size="30" lengthAdjust="spacing" textLength="119.9999" x="10.5" y="1195.0545">&#21038;&#39118;&#20987;&#39134;</text></g><!--link S5 to S12--><g class="link" data-entity-1="S5" data-entity-2="S12" data-source-line="118" data-uid="lnk46" id="link_S5_S12"><path d="M235.5,1688.8459 C235.5,1735.8409 235.5,1794.1309 235.5,1841.2459" fill="none" id="S5-to-S12" style="stroke:#008B8B;stroke-width:3;"/><polygon fill="#008B8B" points="235.5,1850.2459,241.5,1836.7459,235.5,1842.7459,229.5,1836.7459,235.5,1850.2459" style="stroke:#008B8B;stroke-width:3;"/><text fill="#000000" font-family="'&#24494;&#36719;&#38597;&#40657;'" font-size="30" lengthAdjust="spacing" textLength="119.9999" x="237" y="1763.0876">&#24029;&#40635;&#21038;&#39118;</text><text fill="#000000" font-family="'&#24494;&#36719;&#38597;&#40657;'" font-size="30" lengthAdjust="spacing" textLength="119.9999" x="237" y="1798.0095">&#19979;&#38632;&#20987;&#39134;</text></g><!--link S6 to S0--><g class="link" data-entity-1="S6" data-entity-2="S0" data-source-line="121" data-uid="lnk47" id="link_S6_S0"><path d="M947.55,1963.9309 C950.805,2049.8359 944.73,2216.2909 861,2320.7959 C814.05,2379.4009 744.8675,2410.6524 679.8425,2429.6874" fill="none" id="S6-to-S0" style="stroke:#181818;stroke-width:1.5;stroke-dasharray:10.5,10.5;"/><polygon fill="#181818" points="671.205,2432.2159,685.8469,2434.1815,678.4029,2430.1088,682.4756,2422.6648,671.205,2432.2159" style="stroke:#181818;stroke-width:1.5;"/></g><!--link S053 to S0--><g class="link" data-entity-1="S053" data-entity-2="S0" data-source-line="122" data-uid="lnk48" id="link_S053_S0"><path d="M558,2309.1409 C558,2325.7459 558,2356.6909 558,2390.6059" fill="none" id="S053-to-S0" style="stroke:#181818;stroke-width:1.5;stroke-dasharray:10.5,10.5;"/><polygon fill="#181818" points="558,2399.6059,564,2386.1059,558,2392.1059,552,2386.1059,558,2399.6059" style="stroke:#181818;stroke-width:1.5;"/></g><!--link S12 to S0--><g class="link" data-entity-1="S12" data-entity-2="S0" data-source-line="123" data-uid="lnk49" id="link_S12_S0"><path d="M242.4,1963.6459 C255.225,2047.6909 289.245,2209.9759 370.5,2320.7959 C393.24,2351.8009 417.8365,2373.3969 449.0215,2394.5919" fill="none" id="S12-to-S0" style="stroke:#181818;stroke-width:1.5;stroke-dasharray:10.5,10.5;"/><polygon fill="#181818" points="456.465,2399.6509,448.6724,2387.1,450.2621,2395.435,441.927,2397.0247,456.465,2399.6509" style="stroke:#181818;stroke-width:1.5;"/></g><!--link S0 to *end*--><g class="link" data-entity-1="S0" data-entity-2=".end." data-source-line="124" data-uid="lnk51" id="link_S0_.end."><path d="M558,2513.7259 C558,2545.8259 558,2574.8209 558,2595.4309" fill="none" id="S0-to-*end*" style="stroke:#181818;stroke-width:1.5;stroke-dasharray:10.5,10.5;"/><polygon fill="#181818" points="558,2604.4309,564,2590.9309,558,2596.9309,552,2590.9309,558,2604.4309" style="stroke:#181818;stroke-width:1.5;"/></g><!--SRC=[ZLPjRzDM5FxkNs6r7u1jfOaJfob2bRQXJTeGGWfVfWPDRdD9h3ZN9R4t2ffKD52Rlb6WMhg-R5KxQMWQ0OR6qgGlVoRNhl_5Zk-r7TzRPre_9EcvptFUpxctefUGZ6fprhnSGetPkZvdwIQM6hEQWUJqLLLgL7KyfzMr6fpVqsp3keCUM9yQUXdN4BRaMVX0zOkeBqnitT9gI1uXf-tpapVUpbElztma1hmn01RqXqXMKh73WgLPI7uaIpBy3I1vwGT9OcSZpkwVvEqpycx1xRrqzdujOdAyG7vVWV_STcj4rXfo8IMFtjJB5UlpUGs7D79qrZzgEiyxRdFLxJq9WAaG-cKT8Im_edP31kXzjr34TTF6fHbKrl7bAuoMZkkFCPZs8gwPSveUWZDn2t6qkzDsrvlzapNtf7sPF7lZBJIl0DUUjnj8ingCFHcmR-kuofbQE-XtckHuluWhjeOR6dvOqN0vyZ2Cgw0PDPCpIzhRxd6tY4iwBj-tKSH8ImoLbiUcPqoZT7TioZT_JVPEV-uVhJ1l4o1WwfhSFskx9wrnyi-Ur-q5e1I7IWCgE8vxCnOM8YDVlmuzLP-_RUhOcffY85yUrvBCJG_XSdvcahcJmBrdrgiXY-F0CPDc4gMJYL8-y87uWkQuFn-7_YX-B0zqImX5CAN0G72DJPOMkSREHWrGdV_Ci97GsXHTnFTr5EjKXQS8im04SlJ1MTeWop1qDluEwKRKF9dXxSQO6-lUvcDelP3vhM7ELYDwLXwzeTMh1QInAKcgL5QibCAb9EktghFT8h_jGhSwIrlm6mmdQieBcdmofollwzfjzhjTvdu8otFDcF5HD1_9vrb_U6ZKYLvC_7Sy4q7RP1B5WgwSsCLPdfKR4cZE3w6rBmGgA5Slf6k2rwA6yfmeJzGtP5opt80eL4e_BidErgdWN3WlsUHv4JrKf40Jr6EOfaoo9fNNb1bCdlFtOteDXJEdHZCNz34_TDx2Ph_pcf6A-EfDtVxAPio9W2TEtVdQ2t0sOjmox-W6OfHyd1B45ko0zxsahAj3igvoMPz8bEP32y7rESI2CiI2mbj8IhwQc7o-Y6g6IVEYTB0ADtuSTm_UZZjRwyuUt8mrkE9Y-mssp3V8CCplem9kjm0tJfRt_IzdPPEijehOGBf0L4KYUR5AzsV5Zg5ouQl0h6j6z5o1kGBbPB7d7VuIl2KGBaMRJs6Rx-kALjKbQVgZkn1SIMjKKBZfuTgw9BkzCxTx5ewgrpdqgx3z13h3VRKYqTuTcnuj-pttIUoMI4lqGaauogPzjV0oese3XJiTylHzf3F5bKs5HN6- -0TfVs1WIQAp5qFuswxV-sc0A0WxYBu0M8NWEX2FK_unAnoSmglkhzVzpZ9hE32cNWJp24XIzu16mueJ-ZTQHwL1uBae8w9OJH22qlENUoppT0YZLC_0sCNIgGuoBPx0vg6HqZBx3yR18HG_V1EHfRPtw4TDlrct13xzBrw_i-Bjl0fuj66MgBivePqaEcgYBArSX74IwCj_0G00]--></g></svg>